<!-- Generated by readme-aura https://github.com/collectioneur/readme-aura -->
<svg width="118" height="44" viewBox="0 0 118 44" xmlns="http://www.w3.org/2000/svg"><defs><clipPath id="satori_bc-id"><path x="0" y="0" width="118" height="44" d="M22,0 h74 a22,22 0 0 1 22,22 v0 a22,22 0 0 1 -22,22 h-74 a22,22 0 0 1 -22,-22 v0 a22,22 0 0 1 22,-22"/></clipPath></defs><mask id="satori_om-id"><rect x="1" y="1" width="116" height="42" fill="#fff"/><path width="118" height="44" fill="none" stroke="#000" stroke-width="2" d="M6.444000000000001,6.444000000000001 A22,22 0 0 1 22,0 h74 a22,22 0 0 1 22,22 v0 a22,22 0 0 1 -22,22 h-74 a22,22 0 0 1 -22,-22 v0 A22,22 0 0 1 6.444000000000001,6.444000000000001"/></mask><path x="0" y="0" width="118" height="44" fill="#0d0d0d" d="M22,0 h74 a22,22 0 0 1 22,22 v0 a22,22 0 0 1 -22,22 h-74 a22,22 0 0 1 -22,-22 v0 a22,22 0 0 1 22,-22"/><path width="118" height="44" clip-path="url(#satori_bc-id)" fill="none" stroke="rgba(234,67,53,0.45)" stroke-width="2" d="M6.444000000000001,6.444000000000001 A22,22 0 0 1 22,0 h74 a22,22 0 0 1 22,22 v0 a22,22 0 0 1 -22,22 h-74 a22,22 0 0 1 -22,-22 v0 A22,22 0 0 1 6.444000000000001,6.444000000000001"/><clipPath id="satori_cp-id-0"><rect x="31" y="16" width="13" height="13"/></clipPath><mask id="satori_om-id-0"><rect x="31" y="16" width="13" height="13" fill="#fff"/></mask><svg x="31" y="16" width="13" height="13" preserveAspectRatio="none" clip-path="url(#satori_cp-id-0)" mask="url(#satori_om-id-0)"><path d="M20 4H4c-1.1 0-2 .9-2 2v12c0 1.1.9 2 2 2h16c1.1 0 2-.9 2-2V6c0-1.1-.9-2-2-2zm0 4-8 5-8-5V6l8 5 8-5v2z"></path></svg><mask id="satori_om-id-0-0"><rect x="31" y="16" width="0" height="13" fill="#fff"/></mask><mask id="satori_om-id-1"><rect x="51" y="14" width="37" height="16" fill="#fff"/></mask><g  ><path fill="rgba(255,110,90,0.90)" d="M56.0 27.1L56.0 27.1Q54.7 27.1 53.7 26.5Q52.7 26.0 52.2 24.9Q51.6 23.8 51.6 22.3L51.6 22.3Q51.6 20.7 52.2 19.7Q52.8 18.6 53.8 18.0Q54.8 17.4 56.0 17.4L56.0 17.4Q56.8 17.4 57.5 17.6Q58.2 17.9 58.7 18.3Q59.3 18.7 59.6 19.3Q59.9 19.9 60.0 20.6L60.0 20.6L58.1 20.6Q58.0 20.3 57.8 20.0Q57.6 19.7 57.3 19.5Q57.1 19.3 56.8 19.2Q56.4 19.1 56.0 19.1L56.0 19.1Q55.3 19.1 54.7 19.5Q54.2 19.9 53.9 20.6Q53.6 21.3 53.6 22.3Q53.6 23.3 53.9 24.0Q54.2 24.7 54.7 25.0Q55.3 25.4 56.1 25.4L56.1 25.4Q56.7 25.4 57.2 25.2Q57.7 24.9 58.0 24.4L58.0 24.4Q58.2 24.0 58.2 23.4L58.2 23.4L56.2 23.4L56.2 22.0L60.1 22.0L60.1 23.1Q60.1 24.4 59.6 25.3Q59.1 26.2 58.2 26.6Q57.2 27.1 56.0 27.1ZM63.5 27L61.6 27L61.6 19.9L63.3 19.9L63.4 21.3Q63.6 20.9 63.8 20.6L63.8 20.6Q64.1 20.2 64.5 20.0Q65.0 19.8 65.4 19.8L65.4 19.8Q66.2 19.8 66.7 20.3L66.7 20.3Q67.0 20.7 67.3 21.4L67.3 21.4Q67.4 21.0 67.7 20.7L67.7 20.7Q68.0 20.2 68.5 20.0Q69.0 19.8 69.5 19.8L69.5 19.8Q70.2 19.8 70.7 20.1Q71.2 20.4 71.5 20.9Q71.8 21.4 71.8 22.2L71.8 22.2L71.8 27L69.9 27L69.9 22.6Q69.9 22.0 69.6 21.7Q69.2 21.4 68.8 21.4L68.8 21.4Q68.4 21.4 68.2 21.5Q67.9 21.7 67.7 22.0Q67.6 22.3 67.6 22.6L67.6 22.6L67.6 27L65.8 27L65.8 22.5Q65.8 22.0 65.5 21.7Q65.1 21.4 64.7 21.4L64.7 21.4Q64.3 21.4 64.1 21.5Q63.8 21.7 63.6 22.0Q63.5 22.3 63.5 22.7L63.5 22.7L63.5 27ZM75.4 27.1L75.4 27.1Q74.7 27.1 74.2 26.9Q73.7 26.7 73.4 26.2Q73.1 25.7 73.1 25.0L73.1 25.0Q73.1 24.4 73.3 24.0Q73.5 23.6 73.9 23.4Q74.2 23.1 74.7 23.0Q75.2 22.9 75.7 22.8L75.7 22.8Q76.3 22.8 76.7 22.7Q77.1 22.7 77.3 22.5Q77.5 22.4 77.5 22.2L77.5 22.2L77.5 22.2Q77.5 21.9 77.3 21.7Q77.2 21.4 76.9 21.3Q76.7 21.2 76.3 21.2L76.3 21.2Q76.0 21.2 75.7 21.3Q75.4 21.4 75.3 21.6Q75.1 21.8 75.0 22.0L75.0 22.0L73.3 21.8Q73.4 21.1 73.9 20.7Q74.3 20.3 74.9 20.0Q75.6 19.8 76.3 19.8L76.3 19.8Q76.9 19.8 77.5 20.0Q78.0 20.1 78.4 20.4Q78.9 20.7 79.1 21.1Q79.4 21.6 79.4 22.2L79.4 22.2L79.4 27L77.6 27L77.6 26.0L77.5 26.0Q77.3 26.3 77.0 26.6Q76.7 26.8 76.3 27.0Q75.9 27.1 75.4 27.1ZM76.0 25.8L76.0 25.8Q76.4 25.8 76.7 25.6Q77.1 25.4 77.3 25.1Q77.5 24.8 77.5 24.5L77.5 24.5L77.5 23.7Q77.4 23.8 77.2 23.8Q77.0 23.9 76.8 23.9Q76.6 23.9 76.4 24.0Q76.2 24.0 76.1 24.0L76.1 24.0Q75.7 24.1 75.4 24.2Q75.2 24.3 75.0 24.5Q74.9 24.7 74.9 25.0L74.9 25.0Q74.9 25.2 75.0 25.4Q75.2 25.6 75.4 25.7Q75.6 25.8 76.0 25.8ZM82.9 27L81.0 27L81.0 19.9L82.9 19.9L82.9 27ZM81.9 19.0L81.9 19.0Q81.5 19.0 81.2 18.7Q80.9 18.4 80.9 18.0L80.9 18.0Q80.9 17.6 81.2 17.3Q81.5 17.0 81.9 17.0L81.9 17.0Q82.4 17.0 82.7 17.3Q83.0 17.6 83.0 18.0L83.0 18.0Q83.0 18.4 82.7 18.7Q82.4 19.0 81.9 19.0ZM84.5 17.5L86.4 17.5L86.4 27L84.5 27L84.5 17.5Z "/></g></svg>