<!-- Generated by readme-aura https://github.com/collectioneur/readme-aura -->
<svg width="130" height="44" viewBox="0 0 130 44" xmlns="http://www.w3.org/2000/svg"><defs><clipPath id="satori_bc-id"><path x="0" y="0" width="130" height="44" d="M22,0 h86 a22,22 0 0 1 22,22 v0 a22,22 0 0 1 -22,22 h-86 a22,22 0 0 1 -22,-22 v0 a22,22 0 0 1 22,-22"/></clipPath></defs><mask id="satori_om-id"><rect x="1" y="1" width="128" height="42" fill="#fff"/><path width="130" height="44" fill="none" stroke="#000" stroke-width="2" d="M6.444000000000001,6.444000000000001 A22,22 0 0 1 22,0 h86 a22,22 0 0 1 22,22 v0 a22,22 0 0 1 -22,22 h-86 a22,22 0 0 1 -22,-22 v0 A22,22 0 0 1 6.444000000000001,6.444000000000001"/></mask><path x="0" y="0" width="130" height="44" fill="#0f0f0f" d="M22,0 h86 a22,22 0 0 1 22,22 v0 a22,22 0 0 1 -22,22 h-86 a22,22 0 0 1 -22,-22 v0 a22,22 0 0 1 22,-22"/><path width="130" height="44" clip-path="url(#satori_bc-id)" fill="none" stroke="rgba(10,102,194,0.5)" stroke-width="2" d="M6.444000000000001,6.444000000000001 A22,22 0 0 1 22,0 h86 a22,22 0 0 1 22,22 v0 a22,22 0 0 1 -22,22 h-86 a22,22 0 0 1 -22,-22 v0 A22,22 0 0 1 6.444000000000001,6.444000000000001"/><mask id="satori_om-id-0"><rect x="38" y="14" width="55" height="16" fill="#fff"/></mask><g  ><path fill="#e0e0e0" d="M44.9 27L38.9 27L38.9 17.5L40.8 17.5L40.8 25.4L44.9 25.4L44.9 27ZM48.1 27L46.2 27L46.2 19.9L48.1 19.9L48.1 27ZM47.1 19.0L47.1 19.0Q46.7 19.0 46.4 18.7Q46.1 18.4 46.1 18.0L46.1 18.0Q46.1 17.6 46.4 17.3Q46.7 17.0 47.1 17.0L47.1 17.0Q47.5 17.0 47.9 17.3Q48.2 17.6 48.2 18.0L48.2 18.0Q48.2 18.4 47.9 18.7Q47.5 19.0 47.1 19.0ZM51.6 22.9L51.6 22.9L51.6 27L49.7 27L49.7 19.9L51.5 19.9L51.5 21.4Q51.8 20.7 52.3 20.3L52.3 20.3Q52.8 19.8 53.7 19.8L53.7 19.8Q54.5 19.8 55.0 20.1Q55.6 20.5 55.9 21.1Q56.2 21.7 56.2 22.5L56.2 22.5L56.2 27L54.3 27L54.3 22.8Q54.3 22.2 53.9 21.8Q53.6 21.4 53.0 21.4L53.0 21.4Q52.6 21.4 52.3 21.6Q51.9 21.8 51.8 22.1Q51.6 22.4 51.6 22.9ZM59.7 27L57.8 27L57.8 17.5L59.7 17.5L59.7 22.6L59.8 22.6L62.1 19.9L64.3 19.9L61.7 23.0L64.5 27L62.2 27L60.2 24.1L59.7 24.7L59.7 27ZM68.5 27.1L68.5 27.1Q67.4 27.1 66.7 26.7Q65.9 26.3 65.4 25.4Q65.0 24.6 65.0 23.5L65.0 23.5Q65.0 22.4 65.4 21.6Q65.9 20.7 66.6 20.3Q67.4 19.8 68.4 19.8L68.4 19.8Q69.1 19.8 69.7 20.0Q70.3 20.3 70.8 20.7Q71.2 21.2 71.5 21.8Q71.8 22.5 71.8 23.4L71.8 23.4L71.8 23.9L66.9 23.9Q66.9 24.5 67.1 24.9L67.1 24.9Q67.3 25.3 67.7 25.5Q68.1 25.7 68.6 25.7L68.6 25.7Q68.9 25.7 69.2 25.6Q69.4 25.5 69.6 25.3Q69.8 25.1 69.9 24.9L69.9 24.9L71.7 25.2Q71.5 25.8 71.1 26.2Q70.6 26.7 70.0 26.9Q69.4 27.1 68.5 27.1ZM66.9 22.8L66.9 22.8L69.9 22.8Q69.9 22.4 69.8 22.1L69.8 22.1Q69.6 21.7 69.3 21.5Q68.9 21.2 68.4 21.2L68.4 21.2Q68.0 21.2 67.6 21.5Q67.3 21.7 67.1 22.1L67.1 22.1Q67.0 22.4 66.9 22.8ZM75.7 27.1L75.7 27.1Q74.8 27.1 74.2 26.7Q73.5 26.3 73.1 25.5Q72.8 24.6 72.8 23.5L72.8 23.5Q72.8 22.3 73.2 21.4Q73.6 20.6 74.2 20.2Q74.9 19.8 75.6 19.8L75.6 19.8Q76.3 19.8 76.7 20.0Q77.1 20.2 77.3 20.5Q77.5 20.8 77.7 21.1L77.7 21.1L77.7 21.1L77.7 17.5L79.6 17.5L79.6 27L77.8 27L77.8 25.9L77.7 25.9Q77.5 26.1 77.3 26.4Q77.0 26.7 76.6 26.9Q76.2 27.1 75.7 27.1ZM76.2 25.6L76.2 25.6Q76.7 25.6 77.1 25.3Q77.4 25.1 77.6 24.6Q77.8 24.1 77.8 23.5L77.8 23.5Q77.8 22.8 77.6 22.3Q77.4 21.9 77.1 21.6Q76.7 21.3 76.2 21.3L76.2 21.3Q75.7 21.3 75.4 21.6Q75.1 21.9 74.9 22.4Q74.7 22.8 74.7 23.5L74.7 23.5Q74.7 24.1 74.9 24.6Q75.1 25.0 75.4 25.3Q75.7 25.6 76.2 25.6ZM81.3 17.5L83.2 17.5L83.2 27L81.3 27L81.3 17.5ZM86.8 22.9L86.8 22.9L86.8 27L84.9 27L84.9 19.9L86.7 19.9L86.7 21.4Q87.0 20.7 87.5 20.3L87.5 20.3Q88.0 19.8 88.9 19.8L88.9 19.8Q89.7 19.8 90.2 20.1Q90.8 20.5 91.1 21.1Q91.4 21.7 91.4 22.5L91.4 22.5L91.4 27L89.5 27L89.5 22.8Q89.5 22.2 89.1 21.8Q88.8 21.4 88.2 21.4L88.2 21.4Q87.8 21.4 87.5 21.6Q87.2 21.8 87.0 22.1Q86.8 22.4 86.8 22.9Z "/></g></svg>