<!-- Generated by readme-aura https://github.com/collectioneur/readme-aura -->
<svg width="860" height="110" viewBox="0 0 860 110" xmlns="http://www.w3.org/2000/svg"><defs><clipPath id="satori_bc-id"><path x="0" y="0" width="860" height="110" d="M16,0 h828 a16,16 0 0 1 16,16 v78 a16,16 0 0 1 -16,16 h-828 a16,16 0 0 1 -16,-16 v-78 a16,16 0 0 1 16,-16"/></clipPath></defs><clipPath id="satori_cp-id"><path x="0" y="0" width="860" height="110" d="M16,0 h828 a16,16 0 0 1 16,16 v78 a16,16 0 0 1 -16,16 h-828 a16,16 0 0 1 -16,-16 v-78 a16,16 0 0 1 16,-16"/></clipPath><mask id="satori_om-id"><rect x="1" y="1" width="858" height="108" fill="#fff"/><path width="860" height="110" fill="none" stroke="#000" stroke-width="2" d="M4.686,4.686 A16,16 0 0 1 16,0 h828 a16,16 0 0 1 16,16 v78 a16,16 0 0 1 -16,16 h-828 a16,16 0 0 1 -16,-16 v-78 A16,16 0 0 1 4.686,4.686"/></mask><path x="0" y="0" width="860" height="110" fill="#08080c" d="M16,0 h828 a16,16 0 0 1 16,16 v78 a16,16 0 0 1 -16,16 h-828 a16,16 0 0 1 -16,-16 v-78 a16,16 0 0 1 16,-16"/><path width="860" height="110" clip-path="url(#satori_bc-id)" fill="none" stroke="rgba(80,60,200,0.18)" stroke-width="2" d="M4.686,4.686 A16,16 0 0 1 16,0 h828 a16,16 0 0 1 16,16 v78 a16,16 0 0 1 -16,16 h-828 a16,16 0 0 1 -16,-16 v-78 A16,16 0 0 1 4.686,4.686"/><clipPath id="satori_cp-id-0" clip-path="url(#satori_cp-id)"><rect x="1" y="1" width="860" height="110"/></clipPath><mask id="satori_om-id-0"><rect x="1" y="1" width="860" height="110" fill="#fff" mask="url(#satori_om-id)"/></mask><svg x="1" y="1" width="860" height="110" preserveAspectRatio="none" clip-path="url(#satori_cp-id-0)" mask="url(#satori_om-id-0)"><defs><radialGradient id="sg1g" cx="50%" cy="50%" r="50%"><stop offset="0%" stop-color="rgba(40,80,255,0.48)"></stop><stop offset="70%" stop-color="rgba(40,80,255,0)"></stop></radialGradient><radialGradient id="sg2g" cx="50%" cy="50%" r="50%"><stop offset="0%" stop-color="rgba(130,30,255,0.42)"></stop><stop offset="70%" stop-color="rgba(130,30,255,0)"></stop></radialGradient></defs><ellipse id="sg1" cx="200" cy="110" rx="280" ry="150" fill="url(#sg1g)"></ellipse><ellipse id="sg2" cx="660" cy="110" rx="240" ry="140" fill="url(#sg2g)"></ellipse><style>

    @keyframes sg1-drift { 0%,100%{transform:translateX(0);opacity:0.55} 50%{transform:translateX(200px);opacity:0.85} }
    @keyframes sg2-drift { 0%,100%{transform:translateX(0);opacity:0.45} 50%{transform:translateX(-160px);opacity:0.80} }
    #sg1 { animation: sg1-drift 14s ease-in-out infinite; }
    #sg2 { animation: sg2-drift 11s ease-in-out infinite reverse; }
  
</style>
</svg><mask id="satori_om-id-0-0"><rect x="1" y="1" width="0" height="110" fill="#fff" mask="url(#satori_om-id)"/></mask><mask id="satori_om-id-0-0-0"><rect x="1" y="1" width="0" height="110" fill="#fff" mask="url(#satori_om-id)"/></mask><mask id="satori_om-id-0-0-0-0"><rect x="1" y="1" width="0" height="110" fill="#fff" mask="url(#satori_om-id)"/></mask><mask id="satori_om-id-0-0-0-1"><rect x="1" y="1" width="0" height="110" fill="#fff" mask="url(#satori_om-id)"/></mask><mask id="satori_om-id-0-0-1"><rect x="1" y="1" width="0" height="110" fill="#fff" mask="url(#satori_om-id)"/></mask><mask id="satori_om-id-0-0-1-0"><rect x="1" y="1" width="0" height="110" fill="#fff" mask="url(#satori_om-id)"/></mask><mask id="satori_om-id-0-0-1-1"><rect x="1" y="1" width="0" height="110" fill="#fff" mask="url(#satori_om-id)"/></mask><mask id="satori_om-id-0-1"><rect x="1" y="1" width="0" height="110" fill="#fff" mask="url(#satori_om-id)"/></mask><mask id="satori_om-id-0-2"><rect x="1" y="1" width="0" height="110" fill="#fff" mask="url(#satori_om-id)"/></mask><defs><clipPath id="satori_bc-id-1" clip-path="url(#satori_cp-id)"><rect x="1" y="25" width="286" height="61"/></clipPath></defs><mask id="satori_om-id-1"><rect x="1" y="25" width="285" height="61" fill="#fff" mask="url(#satori_om-id)"/><path width="286" height="61" fill="none" stroke="#000" stroke-width="2" d="M287,25 A0,0 0 0 1 287,25 v61 A0,0 0 0 1 287,86"/></mask><path width="286" height="61" clip-path="url(#satori_bc-id-1)" fill="none" stroke="rgba(80,60,180,0.20)" stroke-width="2" d="M287,25 A0,0 0 0 1 287,25 v61 A0,0 0 0 1 287,86"/><mask id="satori_om-id-1-0"><rect x="116" y="25" width="56" height="44" fill="#fff" mask="url(#satori_om-id)"/></mask><g mask="url(#satori_om-id)" clip-path="url(#satori_cp-id)"><path fill="rgba(100,170,255,1)" d="M133.5 57.3L118.2 57.3L118.2 52.1L131.6 31.0L139.8 31.0L139.8 52.0L143.8 52.0L143.8 57.3L139.8 57.3L139.8 63L133.5 63L133.5 57.3ZM124.8 52.0L133.6 52.0L133.6 38.2L133.4 38.2L124.8 51.8L124.8 52.0ZM170.1 63L147.4 63L147.4 58.3L158.8 47.6Q160.2 46.2 161.2 45.1Q162.2 43.9 162.7 42.8Q163.3 41.7 163.3 40.4L163.3 40.4Q163.3 39.0 162.6 37.9Q162.0 36.9 160.9 36.4Q159.8 35.8 158.3 35.8L158.3 35.8Q156.8 35.8 155.7 36.4Q154.6 37.0 154.0 38.1Q153.4 39.2 153.4 40.8L153.4 40.8L147.1 40.8Q147.1 37.7 148.5 35.4Q150.0 33.1 152.5 31.8Q155.0 30.6 158.4 30.6L158.4 30.6Q161.8 30.6 164.3 31.8Q166.8 33.0 168.2 35.1Q169.6 37.2 169.6 40.0L169.6 40.0Q169.6 41.8 168.9 43.5Q168.2 45.3 166.4 47.4Q164.7 49.6 161.4 52.6L161.4 52.6L156.5 57.4L156.5 57.6L170.1 57.6L170.1 63Z "/></g><mask id="satori_om-id-1-1"><rect x="121" y="74" width="46" height="12" fill="#fff" mask="url(#satori_om-id)"/></mask><g mask="url(#satori_om-id)" clip-path="url(#satori_cp-id)"><path fill="rgba(120,110,170,0.55)" d="M123.1 84L121.7 84L121.7 76.7L124.5 76.7Q125.3 76.7 125.9 77.0Q126.5 77.3 126.8 77.8Q127.1 78.4 127.1 79.1Q127.1 79.8 126.8 80.3Q126.5 80.9 125.9 81.1L125.9 81.1Q125.8 81.1 125.8 81.2L125.8 81.2L127.4 84L125.7 84L124.3 81.4L123.1 81.4L123.1 84ZM123.1 78.0L123.1 80.2L124.2 80.2Q124.7 80.2 125.0 80.1Q125.3 79.9 125.4 79.7Q125.6 79.5 125.6 79.1L125.6 79.1Q125.6 78.7 125.4 78.5Q125.3 78.2 125.0 78.1Q124.7 78.0 124.2 78.0L124.2 78.0L123.1 78.0ZM135.6 84L130.7 84L130.7 76.7L135.6 76.7L135.6 78.0L132.2 78.0L132.2 79.7L135.3 79.7L135.3 80.9L132.2 80.9L132.2 82.8L135.6 82.8L135.6 84ZM140.8 84L139.3 84L139.3 76.7L142.1 76.7Q143.0 76.7 143.5 77.0Q144.1 77.4 144.4 77.9Q144.7 78.5 144.7 79.2L144.7 79.2Q144.7 79.9 144.4 80.5Q144.1 81.0 143.5 81.3Q142.9 81.6 142.1 81.6L142.1 81.6L140.8 81.6L140.8 84ZM140.8 78.0L140.8 80.4L141.9 80.4Q142.3 80.4 142.6 80.3Q142.9 80.1 143.1 79.8Q143.2 79.5 143.2 79.2Q143.2 78.8 143.1 78.5Q142.9 78.3 142.6 78.1Q142.3 78.0 141.9 78.0L141.9 78.0L140.8 78.0ZM151.5 84.1L151.5 84.1Q150.5 84.1 149.7 83.7Q149.0 83.2 148.5 82.4Q148.1 81.5 148.1 80.4L148.1 80.4Q148.1 79.2 148.5 78.3Q149.0 77.5 149.7 77.1Q150.5 76.6 151.5 76.6L151.5 76.6Q152.4 76.6 153.2 77.1Q154.0 77.5 154.4 78.3Q154.9 79.2 154.9 80.4L154.9 80.4Q154.9 81.5 154.4 82.4Q154.0 83.2 153.2 83.7Q152.4 84.1 151.5 84.1ZM151.5 82.8L151.5 82.8Q152.0 82.8 152.5 82.5Q152.9 82.2 153.1 81.7Q153.4 81.1 153.4 80.4L153.4 80.4Q153.4 79.6 153.1 79.0Q152.9 78.5 152.5 78.2Q152.0 78.0 151.5 78.0L151.5 78.0Q150.9 78.0 150.5 78.2Q150.1 78.5 149.8 79.0Q149.6 79.6 149.6 80.4L149.6 80.4Q149.6 81.1 149.8 81.7Q150.1 82.2 150.5 82.5Q150.9 82.8 151.5 82.8ZM161.2 84.1L161.2 84.1Q160.3 84.1 159.6 83.8Q159.0 83.6 158.6 83.0Q158.3 82.5 158.2 81.7L158.2 81.7L159.7 81.7Q159.7 82.1 159.9 82.4Q160.1 82.6 160.4 82.7Q160.7 82.8 161.1 82.8L161.1 82.8Q161.5 82.8 161.8 82.7Q162.1 82.6 162.3 82.4Q162.5 82.2 162.5 81.9L162.5 81.9Q162.5 81.7 162.3 81.5Q162.2 81.3 161.9 81.2Q161.6 81.1 161.2 81.0L161.2 81.0L160.4 80.8Q159.5 80.6 159.0 80.1Q158.4 79.6 158.4 78.8L158.4 78.8Q158.4 78.2 158.8 77.7Q159.1 77.2 159.8 76.9Q160.4 76.6 161.2 76.6L161.2 76.6Q162.0 76.6 162.6 76.9Q163.2 77.2 163.5 77.7Q163.9 78.2 163.9 78.8L163.9 78.8L162.4 78.8Q162.4 78.4 162.0 78.1Q161.7 77.9 161.2 77.9L161.2 77.9Q160.8 77.9 160.5 78.0Q160.2 78.1 160.1 78.3Q160.0 78.5 160.0 78.7L160.0 78.7Q160.0 79.0 160.1 79.2Q160.3 79.3 160.6 79.5Q160.8 79.6 161.1 79.6L161.1 79.6L161.8 79.8Q162.2 79.9 162.6 80.1Q163.0 80.3 163.3 80.5Q163.6 80.8 163.8 81.1Q164.0 81.5 164.0 81.9L164.0 81.9Q164.0 82.6 163.6 83.1Q163.3 83.6 162.7 83.8Q162.0 84.1 161.2 84.1Z "/></g><defs><clipPath id="satori_bc-id-2" clip-path="url(#satori_cp-id)"><rect x="287" y="25" width="287" height="61"/></clipPath></defs><mask id="satori_om-id-2"><rect x="287" y="25" width="286" height="61" fill="#fff" mask="url(#satori_om-id)"/><path width="287" height="61" fill="none" stroke="#000" stroke-width="2" d="M574,25 A0,0 0 0 1 574,25 v61 A0,0 0 0 1 574,86"/></mask><path width="287" height="61" clip-path="url(#satori_bc-id-2)" fill="none" stroke="rgba(80,60,180,0.20)" stroke-width="2" d="M574,25 A0,0 0 0 1 574,25 v61 A0,0 0 0 1 574,86"/><mask id="satori_om-id-2-0"><rect x="421" y="25" width="18" height="44" fill="#fff" mask="url(#satori_om-id)"/></mask><g mask="url(#satori_om-id)" clip-path="url(#satori_cp-id)"><path fill="rgba(255,200,80,1)" d="M430.1 31.0L437.1 31.0L437.1 63L430.5 63L430.5 36.8L430.3 36.8L423.0 42.0L423.0 36.0L430.1 31.0Z "/></g><mask id="satori_om-id-2-1"><rect x="406" y="74" width="47" height="12" fill="#fff" mask="url(#satori_om-id)"/></mask><g mask="url(#satori_om-id)" clip-path="url(#satori_cp-id)"><path fill="rgba(120,110,170,0.55)" d="M409.3 84.1L409.3 84.1Q408.5 84.1 407.8 83.8Q407.2 83.6 406.8 83.0Q406.4 82.5 406.4 81.7L406.4 81.7L407.9 81.7Q407.9 82.1 408.1 82.4Q408.3 82.6 408.6 82.7Q408.9 82.8 409.3 82.8L409.3 82.8Q409.7 82.8 410.0 82.7Q410.3 82.6 410.5 82.4Q410.6 82.2 410.6 81.9L410.6 81.9Q410.6 81.7 410.5 81.5Q410.3 81.3 410.1 81.2Q409.8 81.1 409.4 81.0L409.4 81.0L408.6 80.8Q407.7 80.6 407.1 80.1Q406.6 79.6 406.6 78.8L406.6 78.8Q406.6 78.2 407.0 77.7Q407.3 77.2 407.9 76.9Q408.6 76.6 409.3 76.6L409.3 76.6Q410.2 76.6 410.8 76.9Q411.4 77.2 411.7 77.7Q412.0 78.2 412.0 78.8L412.0 78.8L410.6 78.8Q410.6 78.4 410.2 78.1Q409.9 77.9 409.3 77.9L409.3 77.9Q409.0 77.9 408.7 78.0Q408.4 78.1 408.3 78.3Q408.1 78.5 408.1 78.7L408.1 78.7Q408.1 79.0 408.3 79.2Q408.5 79.3 408.7 79.5Q409.0 79.6 409.3 79.6L409.3 79.6L410.0 79.8Q410.4 79.9 410.8 80.1Q411.2 80.3 411.5 80.5Q411.8 80.8 412.0 81.1Q412.1 81.5 412.1 81.9L412.1 81.9Q412.1 82.6 411.8 83.1Q411.5 83.6 410.8 83.8Q410.2 84.1 409.3 84.1ZM417.6 78.0L415.4 78.0L415.4 76.7L421.4 76.7L421.4 78.0L419.1 78.0L419.1 84L417.6 84L417.6 78.0ZM426.1 84L424.5 84L426.9 76.7L428.9 76.7L431.4 84L429.8 84L429.2 82.3L426.6 82.3L426.1 84ZM427.0 81.1L428.8 81.1L428.6 80.5Q428.4 79.8 428.2 79L428.2 79Q428.1 78.5 427.9 77.9L427.9 77.9Q427.8 78.5 427.6 79.0L427.6 79.0Q427.4 79.8 427.2 80.5L427.2 80.5L427.0 81.1ZM436.3 84L434.8 84L434.8 76.7L437.7 76.7Q438.5 76.7 439.1 77.0Q439.7 77.3 440.0 77.8Q440.3 78.4 440.3 79.1Q440.3 79.8 440.0 80.3Q439.7 80.9 439.1 81.1L439.1 81.1Q439.0 81.1 439.0 81.2L439.0 81.2L440.5 84L438.9 84L437.5 81.4L436.3 81.4L436.3 84ZM436.3 78.0L436.3 80.2L437.4 80.2Q437.9 80.2 438.2 80.1Q438.5 79.9 438.6 79.7Q438.7 79.5 438.7 79.1L438.7 79.1Q438.7 78.7 438.6 78.5Q438.5 78.2 438.2 78.1Q437.9 78.0 437.4 78.0L437.4 78.0L436.3 78.0ZM446.6 84.1L446.6 84.1Q445.7 84.1 445.1 83.8Q444.4 83.6 444.1 83.0Q443.7 82.5 443.7 81.7L443.7 81.7L445.1 81.7Q445.2 82.1 445.3 82.4Q445.5 82.6 445.8 82.7Q446.2 82.8 446.6 82.8L446.6 82.8Q447.0 82.8 447.3 82.7Q447.6 82.6 447.7 82.4Q447.9 82.2 447.9 81.9L447.9 81.9Q447.9 81.7 447.7 81.5Q447.6 81.3 447.3 81.2Q447.0 81.1 446.6 81.0L446.6 81.0L445.8 80.8Q444.9 80.6 444.4 80.1Q443.9 79.6 443.9 78.8L443.9 78.8Q443.9 78.2 444.2 77.7Q444.6 77.2 445.2 76.9Q445.8 76.6 446.6 76.6L446.6 76.6Q447.4 76.6 448.0 76.9Q448.6 77.2 448.9 77.7Q449.3 78.2 449.3 78.8L449.3 78.8L447.9 78.8Q447.8 78.4 447.5 78.1Q447.1 77.9 446.6 77.9L446.6 77.9Q446.2 77.9 445.9 78.0Q445.7 78.1 445.5 78.3Q445.4 78.5 445.4 78.7L445.4 78.7Q445.4 79.0 445.6 79.2Q445.7 79.3 446.0 79.5Q446.3 79.6 446.6 79.6L446.6 79.6L447.2 79.8Q447.7 79.9 448.1 80.1Q448.5 80.3 448.8 80.5Q449.1 80.8 449.2 81.1Q449.4 81.5 449.4 81.9L449.4 81.9Q449.4 82.6 449.1 83.1Q448.7 83.6 448.1 83.8Q447.5 84.1 446.6 84.1Z "/></g><mask id="satori_om-id-3"><rect x="574" y="25" width="285" height="61" fill="#fff" mask="url(#satori_om-id)"/></mask><mask id="satori_om-id-3-0"><rect x="654" y="25" width="126" height="44" fill="#fff" mask="url(#satori_om-id)"/></mask><g mask="url(#satori_om-id)" clip-path="url(#satori_cp-id)"><path fill="rgba(180,130,255,1)" d="M663.1 31.0L670.1 31.0L670.1 63L663.5 63L663.5 36.8L663.3 36.8L656.0 42.0L656.0 36.0L663.1 31.0ZM686.7 63.4L686.7 63.4Q684.2 63.4 682.0 62.6Q679.7 61.8 677.9 60.0Q676.1 58.2 675.0 55.2Q674.0 52.2 674.0 47.7L674.0 47.7Q674.0 43.7 674.9 40.5Q675.8 37.3 677.5 35.1Q679.2 32.9 681.6 31.7Q684.0 30.6 686.9 30.6L686.9 30.6Q690.1 30.6 692.5 31.8Q694.9 33.0 696.4 35.1Q697.9 37.2 698.2 39.9L698.2 39.9L691.8 39.9Q691.3 38.2 690.1 37.2Q688.8 36.2 686.9 36.2L686.9 36.2Q684.8 36.2 683.3 37.5Q681.9 38.7 681.2 41.0Q680.4 43.3 680.4 46.4L680.4 46.4L680.7 46.4Q681.4 45.0 682.6 44.0Q683.8 43.0 685.4 42.5Q686.9 42.0 688.7 42.0L688.7 42.0Q691.5 42.0 693.7 43.3Q696.0 44.6 697.3 47.0Q698.5 49.3 698.5 52.3L698.5 52.3Q698.5 55.5 697.0 58.1Q695.5 60.6 692.9 62.0Q690.2 63.4 686.7 63.4ZM686.6 58.2L686.6 58.2Q688.2 58.2 689.5 57.5Q690.7 56.7 691.4 55.4Q692.2 54.1 692.2 52.5L692.2 52.5Q692.2 50.9 691.5 49.6Q690.7 48.3 689.5 47.5Q688.3 46.8 686.7 46.8L686.7 46.8Q685.5 46.8 684.5 47.2Q683.5 47.7 682.7 48.5Q681.9 49.3 681.5 50.3Q681.1 51.3 681.1 52.5L681.1 52.5Q681.1 54.1 681.8 55.4Q682.5 56.7 683.8 57.4Q685.0 58.2 686.6 58.2ZM713.0 63.4L713.0 63.4Q709.8 63.4 707.2 62.2Q704.6 61.0 703.1 58.9Q701.6 56.7 701.5 54.0L701.5 54.0L707.9 54.0Q708.0 55.3 708.7 56.2Q709.4 57.2 710.5 57.7Q711.7 58.2 713.0 58.2L713.0 58.2Q714.6 58.2 715.9 57.5Q717.1 56.8 717.8 55.5Q718.5 54.2 718.5 52.5L718.5 52.5Q718.5 50.8 717.8 49.5Q717.1 48.2 715.8 47.4Q714.6 46.7 712.9 46.7L712.9 46.7Q711.5 46.7 710.2 47.3Q708.8 47.9 708.1 48.8L708.1 48.8L702.2 47.8L703.8 31.0L723.1 31.0L723.1 36.4L709.2 36.4L708.4 44.5L708.5 44.5Q709.4 43.3 711.1 42.6Q712.8 41.8 714.8 41.8L714.8 41.8Q717.0 41.8 718.8 42.6Q720.7 43.4 722.0 44.8Q723.4 46.2 724.1 48.1Q724.9 50.1 724.9 52.4L724.9 52.4Q724.9 55.6 723.4 58.1Q721.9 60.6 719.2 62.0Q716.6 63.4 713.0 63.4ZM736.5 63L729.7 63L743.0 36.6L743.0 36.4L727.5 36.4L727.5 31.0L749.9 31.0L749.9 36.5L736.5 63ZM765.4 57.3L750.1 57.3L750.1 52.1L763.5 31.0L771.7 31.0L771.7 52.0L775.7 52.0L775.7 57.3L771.7 57.3L771.7 63L765.4 63L765.4 57.3ZM756.7 52.0L765.6 52.0L765.6 38.2L765.3 38.2L756.7 51.8L756.7 52.0Z "/></g><mask id="satori_om-id-3-1"><rect x="683" y="74" width="68" height="12" fill="#fff" mask="url(#satori_om-id)"/></mask><g mask="url(#satori_om-id)" clip-path="url(#satori_cp-id)"><path fill="rgba(120,110,170,0.55)" d="M686.8 84.1L686.8 84.1Q685.9 84.1 685.1 83.7Q684.3 83.2 683.9 82.4Q683.5 81.5 683.5 80.4L683.5 80.4Q683.5 79.2 683.9 78.3Q684.3 77.5 685.1 77.1Q685.9 76.6 686.8 76.6L686.8 76.6Q687.5 76.6 688.0 76.8Q688.5 77.0 688.9 77.3Q689.4 77.6 689.6 78.1Q689.9 78.6 690.0 79.2L690.0 79.2L688.5 79.2Q688.4 78.9 688.3 78.7Q688.1 78.4 687.9 78.3Q687.7 78.1 687.4 78.0Q687.2 78.0 686.9 78.0L686.9 78.0Q686.3 78.0 685.9 78.2Q685.4 78.5 685.2 79.1Q685.0 79.6 685.0 80.4L685.0 80.4Q685.0 81.2 685.2 81.7Q685.5 82.2 685.9 82.5Q686.3 82.8 686.9 82.8L686.9 82.8Q687.2 82.8 687.4 82.7Q687.7 82.6 687.9 82.4Q688.1 82.3 688.3 82.0Q688.4 81.8 688.5 81.5L688.5 81.5L690.0 81.5Q689.9 82.0 689.7 82.5Q689.4 82.9 689.0 83.3Q688.6 83.7 688.1 83.9Q687.5 84.1 686.8 84.1ZM696.8 84.1L696.8 84.1Q695.8 84.1 695.0 83.7Q694.3 83.2 693.8 82.4Q693.4 81.5 693.4 80.4L693.4 80.4Q693.4 79.2 693.8 78.3Q694.3 77.5 695.0 77.1Q695.8 76.6 696.8 76.6L696.8 76.6Q697.7 76.6 698.5 77.1Q699.3 77.5 699.7 78.3Q700.1 79.2 700.1 80.4L700.1 80.4Q700.1 81.5 699.7 82.4Q699.3 83.2 698.5 83.7Q697.7 84.1 696.8 84.1ZM696.8 82.8L696.8 82.8Q697.3 82.8 697.7 82.5Q698.2 82.2 698.4 81.7Q698.6 81.1 698.6 80.4L698.6 80.4Q698.6 79.6 698.4 79.0Q698.2 78.5 697.7 78.2Q697.3 78.0 696.8 78.0L696.8 78.0Q696.2 78.0 695.8 78.2Q695.3 78.5 695.1 79.0Q694.9 79.6 694.9 80.4L694.9 80.4Q694.9 81.1 695.1 81.7Q695.3 82.2 695.8 82.5Q696.2 82.8 696.8 82.8ZM705.2 84L703.8 84L703.8 76.7L706.0 76.7L707.2 80.1Q707.3 80.3 707.4 80.7Q707.5 81.0 707.6 81.5L707.6 81.5Q707.7 81.9 707.8 82.3L707.8 82.3Q707.9 81.9 707.9 81.5L707.9 81.5Q708.0 81.1 708.1 80.7Q708.2 80.3 708.3 80.1L708.3 80.1L709.5 76.7L711.8 76.7L711.8 84L710.3 84L710.3 80.6Q710.3 80.3 710.3 80.0Q710.3 79.6 710.3 79.2Q710.3 78.8 710.3 78.4L710.3 78.4Q710.3 78.2 710.3 78.0L710.3 78.0Q710.3 78.2 710.2 78.4L710.2 78.4Q710.1 78.9 710.0 79.3Q709.9 79.7 709.8 80.0Q709.7 80.3 709.6 80.6L709.6 80.6L708.4 84L707.1 84L705.9 80.6Q705.8 80.3 705.7 80.0Q705.6 79.7 705.5 79.3Q705.4 78.9 705.3 78.4L705.3 78.4Q705.2 78.2 705.2 78.1L705.2 78.1Q705.2 78.2 705.2 78.4L705.2 78.4Q705.2 78.8 705.2 79.2Q705.2 79.6 705.2 80.0Q705.2 80.3 705.2 80.6L705.2 80.6L705.2 84ZM717.1 84L715.6 84L715.6 76.7L717.9 76.7L719.0 80.1Q719.1 80.3 719.2 80.7Q719.3 81.0 719.4 81.5L719.4 81.5Q719.5 81.9 719.6 82.3L719.6 82.3Q719.7 81.9 719.8 81.5L719.8 81.5Q719.9 81.1 720.0 80.7Q720.1 80.3 720.1 80.1L720.1 80.1L721.3 76.7L723.6 76.7L723.6 84L722.1 84L722.1 80.6Q722.1 80.3 722.1 80.0Q722.1 79.6 722.1 79.2Q722.1 78.8 722.1 78.4L722.1 78.4Q722.1 78.2 722.1 78.0L722.1 78.0Q722.1 78.2 722.0 78.4L722.0 78.4Q721.9 78.9 721.8 79.3Q721.7 79.7 721.6 80.0Q721.5 80.3 721.4 80.6L721.4 80.6L720.2 84L719.0 84L717.7 80.6Q717.7 80.3 717.6 80.0Q717.4 79.7 717.3 79.3Q717.2 78.9 717.1 78.4L717.1 78.4Q717.1 78.2 717.0 78.1L717.0 78.1Q717.0 78.2 717.0 78.4L717.0 78.4Q717.0 78.8 717.0 79.2Q717.0 79.6 717.1 80.0Q717.1 80.3 717.1 80.6L717.1 80.6L717.1 84ZM727.4 76.7L728.9 76.7L728.9 84L727.4 84L727.4 76.7ZM734.6 78.0L732.4 78.0L732.4 76.7L738.4 76.7L738.4 78.0L736.1 78.0L736.1 84L734.6 84L734.6 78.0ZM744.5 84.1L744.5 84.1Q743.7 84.1 743.0 83.8Q742.4 83.6 742.0 83.0Q741.7 82.5 741.6 81.7L741.6 81.7L743.1 81.7Q743.1 82.1 743.3 82.4Q743.5 82.6 743.8 82.7Q744.1 82.8 744.5 82.8L744.5 82.8Q744.9 82.8 745.2 82.7Q745.5 82.6 745.7 82.4Q745.9 82.2 745.9 81.9L745.9 81.9Q745.9 81.7 745.7 81.5Q745.6 81.3 745.3 81.2Q745.0 81.1 744.6 81.0L744.6 81.0L743.8 80.8Q742.9 80.6 742.4 80.1Q741.8 79.6 741.8 78.8L741.8 78.8Q741.8 78.2 742.2 77.7Q742.5 77.2 743.2 76.9Q743.8 76.6 744.6 76.6L744.6 76.6Q745.4 76.6 746.0 76.9Q746.6 77.2 746.9 77.7Q747.2 78.2 747.3 78.8L747.3 78.8L745.8 78.8Q745.8 78.4 745.4 78.1Q745.1 77.9 744.5 77.9L744.5 77.9Q744.2 77.9 743.9 78.0Q743.6 78.1 743.5 78.3Q743.4 78.5 743.4 78.7L743.4 78.7Q743.4 79.0 743.5 79.2Q743.7 79.3 743.9 79.5Q744.2 79.6 744.5 79.6L744.5 79.6L745.2 79.8Q745.6 79.9 746.0 80.1Q746.4 80.3 746.7 80.5Q747.0 80.8 747.2 81.1Q747.4 81.5 747.4 81.9L747.4 81.9Q747.4 82.6 747.0 83.1Q746.7 83.6 746.1 83.8Q745.4 84.1 744.5 84.1Z "/></g></svg>