<!-- Generated by readme-aura https://github.com/collectioneur/readme-aura -->
<svg width="860" height="168" viewBox="0 0 860 168" xmlns="http://www.w3.org/2000/svg"><defs><clipPath id="satori_bc-id"><path x="0" y="0" width="860" height="168" d="M16,0 h828 a16,16 0 0 1 16,16 v136 a16,16 0 0 1 -16,16 h-828 a16,16 0 0 1 -16,-16 v-136 a16,16 0 0 1 16,-16"/></clipPath></defs><clipPath id="satori_cp-id"><path x="0" y="0" width="860" height="168" d="M16,0 h828 a16,16 0 0 1 16,16 v136 a16,16 0 0 1 -16,16 h-828 a16,16 0 0 1 -16,-16 v-136 a16,16 0 0 1 16,-16"/></clipPath><mask id="satori_om-id"><rect x="1" y="1" width="858" height="166" fill="#fff"/><path width="860" height="168" fill="none" stroke="#000" stroke-width="2" d="M4.686,4.686 A16,16 0 0 1 16,0 h828 a16,16 0 0 1 16,16 v136 a16,16 0 0 1 -16,16 h-828 a16,16 0 0 1 -16,-16 v-136 A16,16 0 0 1 4.686,4.686"/></mask><path x="0" y="0" width="860" height="168" fill="#08080c" d="M16,0 h828 a16,16 0 0 1 16,16 v136 a16,16 0 0 1 -16,16 h-828 a16,16 0 0 1 -16,-16 v-136 a16,16 0 0 1 16,-16"/><path width="860" height="168" clip-path="url(#satori_bc-id)" fill="none" stroke="rgba(120,130,255,0.10)" stroke-width="2" d="M4.686,4.686 A16,16 0 0 1 16,0 h828 a16,16 0 0 1 16,16 v136 a16,16 0 0 1 -16,16 h-828 a16,16 0 0 1 -16,-16 v-136 A16,16 0 0 1 4.686,4.686"/><clipPath id="satori_cp-id-0" clip-path="url(#satori_cp-id)"><rect x="1" y="1" width="860" height="168"/></clipPath><mask id="satori_om-id-0"><rect x="1" y="1" width="860" height="168" fill="#fff" mask="url(#satori_om-id)"/></mask><svg x="1" y="1" width="860" height="168" preserveAspectRatio="none" clip-path="url(#satori_cp-id-0)" mask="url(#satori_om-id-0)"><defs><radialGradient id="tg1"><stop offset="0%" stop-color="rgba(120,140,255,0.22)"></stop><stop offset="70%" stop-color="rgba(120,140,255,0)"></stop></radialGradient><radialGradient id="tg2"><stop offset="0%" stop-color="rgba(80,180,255,0.18)"></stop><stop offset="70%" stop-color="rgba(80,180,255,0)"></stop></radialGradient></defs><ellipse id="tech-a" cx="200" cy="180" rx="260" ry="160" fill="url(#tg1)"></ellipse><ellipse id="tech-b" cx="620" cy="170" rx="240" ry="150" fill="url(#tg2)"></ellipse><style>

       @keyframes move-a {
         0%,100% { transform:translateX(0px); opacity:0.45; }
         50% { transform:translateX(260px); opacity:0.70; }
       }

       @keyframes move-b {
         0%,100% { transform:translateX(0px); opacity:0.35; }
         50% { transform:translateX(-180px); opacity:0.60; }
       }

       #tech-a { animation: move-a 13s ease-in-out infinite; }
       #tech-b { animation: move-b 16s ease-in-out infinite; }
     
</style>
</svg><mask id="satori_om-id-0-0"><rect x="1" y="1" width="0" height="168" fill="#fff" mask="url(#satori_om-id)"/></mask><mask id="satori_om-id-0-0-0"><rect x="1" y="1" width="0" height="168" fill="#fff" mask="url(#satori_om-id)"/></mask><mask id="satori_om-id-0-0-0-0"><rect x="1" y="1" width="0" height="168" fill="#fff" mask="url(#satori_om-id)"/></mask><mask id="satori_om-id-0-0-0-1"><rect x="1" y="1" width="0" height="168" fill="#fff" mask="url(#satori_om-id)"/></mask><mask id="satori_om-id-0-0-1"><rect x="1" y="1" width="0" height="168" fill="#fff" mask="url(#satori_om-id)"/></mask><mask id="satori_om-id-0-0-1-0"><rect x="1" y="1" width="0" height="168" fill="#fff" mask="url(#satori_om-id)"/></mask><mask id="satori_om-id-0-0-1-1"><rect x="1" y="1" width="0" height="168" fill="#fff" mask="url(#satori_om-id)"/></mask><mask id="satori_om-id-0-1"><rect x="1" y="1" width="0" height="168" fill="#fff" mask="url(#satori_om-id)"/></mask><mask id="satori_om-id-0-2"><rect x="1" y="1" width="0" height="168" fill="#fff" mask="url(#satori_om-id)"/></mask><mask id="satori_om-id-1"><rect x="33" y="21" width="794" height="9" fill="#fff" mask="url(#satori_om-id)"/></mask><g mask="url(#satori_om-id)" clip-path="url(#satori_cp-id)"><path fill="rgba(200,205,255,0.40)" d="M35.6 25.0L33.4 25.0L33.4 23.7L39.3 23.7L39.3 25.0L37.1 25.0L37.1 31L35.6 31L35.6 25.0ZM48.2 31L43.3 31L43.3 23.7L48.2 23.7L48.2 25.0L44.8 25.0L44.8 26.7L47.9 26.7L47.9 27.9L44.8 27.9L44.8 29.8L48.2 29.8L48.2 31ZM55.6 31.1L55.6 31.1Q54.6 31.1 53.9 30.7Q53.1 30.2 52.6 29.4Q52.2 28.5 52.2 27.4L52.2 27.4Q52.2 26.2 52.7 25.3Q53.1 24.5 53.9 24.1Q54.6 23.6 55.6 23.6L55.6 23.6Q56.2 23.6 56.7 23.8Q57.3 24.0 57.7 24.3Q58.1 24.6 58.4 25.1Q58.6 25.6 58.7 26.2L58.7 26.2L57.2 26.2Q57.2 25.9 57.0 25.7Q56.9 25.4 56.7 25.3Q56.5 25.1 56.2 25.0Q55.9 25.0 55.6 25.0L55.6 25.0Q55.0 25.0 54.6 25.2Q54.2 25.5 54.0 26.1Q53.7 26.6 53.7 27.4L53.7 27.4Q53.7 28.2 54.0 28.7Q54.2 29.2 54.6 29.5Q55.0 29.8 55.6 29.8L55.6 29.8Q55.9 29.8 56.2 29.7Q56.5 29.6 56.7 29.4Q56.9 29.3 57.0 29.0Q57.2 28.8 57.2 28.5L57.2 28.5L58.7 28.5Q58.7 29.0 58.4 29.5Q58.2 29.9 57.8 30.3Q57.4 30.7 56.8 30.9Q56.3 31.1 55.6 31.1ZM64.3 31L62.8 31L62.8 23.7L64.3 23.7L64.3 26.7L67.5 26.7L67.5 23.7L69.0 23.7L69.0 31L67.5 31L67.5 27.9L64.3 27.9L64.3 31Z M81.3 31.1L81.3 31.1Q80.4 31.1 79.8 30.8Q79.1 30.6 78.8 30.0Q78.4 29.5 78.4 28.7L78.4 28.7L79.9 28.7Q79.9 29.1 80.1 29.4Q80.3 29.6 80.6 29.7Q80.9 29.8 81.3 29.8L81.3 29.8Q81.7 29.8 82.0 29.7Q82.3 29.6 82.5 29.4Q82.6 29.2 82.6 28.9L82.6 28.9Q82.6 28.7 82.5 28.5Q82.3 28.3 82.0 28.2Q81.8 28.1 81.4 28.0L81.4 28.0L80.6 27.8Q79.6 27.6 79.1 27.1Q78.6 26.6 78.6 25.8L78.6 25.8Q78.6 25.2 78.9 24.7Q79.3 24.2 79.9 23.9Q80.5 23.6 81.3 23.6L81.3 23.6Q82.1 23.6 82.7 23.9Q83.3 24.2 83.7 24.7Q84.0 25.2 84.0 25.8L84.0 25.8L82.6 25.8Q82.5 25.4 82.2 25.1Q81.9 24.9 81.3 24.9L81.3 24.9Q80.9 24.9 80.7 25.0Q80.4 25.1 80.3 25.3Q80.1 25.5 80.1 25.7L80.1 25.7Q80.1 26.0 80.3 26.2Q80.4 26.3 80.7 26.5Q81.0 26.6 81.3 26.6L81.3 26.6L81.9 26.8Q82.4 26.9 82.8 27.1Q83.2 27.3 83.5 27.5Q83.8 27.8 84.0 28.1Q84.1 28.5 84.1 28.9L84.1 28.9Q84.1 29.6 83.8 30.1Q83.5 30.6 82.8 30.8Q82.2 31.1 81.3 31.1ZM90.1 25.0L87.9 25.0L87.9 23.7L93.8 23.7L93.8 25.0L91.6 25.0L91.6 31L90.1 31L90.1 25.0ZM99.1 31L97.4 31L99.9 23.7L101.9 23.7L104.4 31L102.8 31L102.2 29.3L99.6 29.3L99.1 31ZM100.0 28.1L101.8 28.1L101.6 27.5Q101.4 26.8 101.2 26L101.2 26Q101.0 25.5 100.9 24.9L100.9 24.9Q100.7 25.5 100.6 26.0L100.6 26.0Q100.4 26.8 100.2 27.5L100.2 27.5L100.0 28.1ZM111.5 31.1L111.5 31.1Q110.5 31.1 109.8 30.7Q109.0 30.2 108.6 29.4Q108.1 28.5 108.1 27.4L108.1 27.4Q108.1 26.2 108.6 25.3Q109.0 24.5 109.8 24.1Q110.6 23.6 111.5 23.6L111.5 23.6Q112.1 23.6 112.7 23.8Q113.2 24.0 113.6 24.3Q114.0 24.6 114.3 25.1Q114.6 25.6 114.6 26.2L114.6 26.2L113.1 26.2Q113.1 25.9 112.9 25.7Q112.8 25.4 112.6 25.3Q112.4 25.1 112.1 25.0Q111.9 25.0 111.5 25.0L111.5 25.0Q111.0 25.0 110.5 25.2Q110.1 25.5 109.9 26.1Q109.6 26.6 109.6 27.4L109.6 27.4Q109.6 28.2 109.9 28.7Q110.1 29.2 110.5 29.5Q111.0 29.8 111.5 29.8L111.5 29.8Q111.8 29.8 112.1 29.7Q112.4 29.6 112.6 29.4Q112.8 29.3 112.9 29.0Q113.1 28.8 113.1 28.5L113.1 28.5L114.6 28.5Q114.6 29.0 114.3 29.5Q114.1 29.9 113.7 30.3Q113.3 30.7 112.8 30.9Q112.2 31.1 111.5 31.1ZM120.2 31L118.7 31L118.7 23.7L120.2 23.7L120.2 25.7L120.2 27.4Q120.2 27.3 120.3 27.3L120.3 27.3Q120.5 26.9 120.7 26.6Q121.0 26.2 121.3 25.8L121.3 25.8L123.1 23.7L124.9 23.7L122.2 26.9L125.0 31L123.3 31L121.2 27.9L120.2 28.9L120.2 31Z "/></g><mask id="satori_om-id-2"><rect x="33" y="44" width="794" height="103" fill="#fff" mask="url(#satori_om-id)"/></mask><mask id="satori_om-id-2-0"><rect x="33" y="44" width="794" height="25" fill="#fff" mask="url(#satori_om-id)"/></mask><mask id="satori_om-id-2-0-0"><rect x="33" y="51" width="84" height="12" fill="#fff" mask="url(#satori_om-id)"/></mask><g mask="url(#satori_om-id)" clip-path="url(#satori_cp-id)"><path fill="rgba(180,190,255,0.92)" d="M38.3 61L33.7 61L33.7 53.7L35.1 53.7L35.1 59.8L38.3 59.8L38.3 61ZM41.5 61L39.9 61L42.4 53.7L44.3 53.7L46.9 61L45.2 61L44.7 59.3L42.1 59.3L41.5 61ZM42.5 58.1L44.3 58.1L44.1 57.5Q43.8 56.8 43.6 56L43.6 56Q43.5 55.5 43.3 54.9L43.3 54.9Q43.2 55.5 43.1 56.0L43.1 56.0Q42.9 56.8 42.7 57.5L42.7 57.5L42.5 58.1ZM50.3 61L48.8 61L48.8 53.7L50.4 53.7L52.7 57.4Q52.9 57.7 53.1 58.0Q53.3 58.4 53.5 58.8L53.5 58.8Q53.6 59.0 53.6 59.2L53.6 59.2Q53.6 59.0 53.6 58.8L53.6 58.8Q53.6 58.3 53.6 57.9Q53.6 57.5 53.6 57.2L53.6 57.2L53.6 53.7L55.1 53.7L55.1 61L53.4 61L51.3 57.7Q51.1 57.3 50.9 56.9Q50.7 56.6 50.5 56.1L50.5 56.1Q50.4 55.9 50.2 55.6L50.2 55.6Q50.2 55.9 50.2 56.1L50.2 56.1Q50.3 56.6 50.3 57.0Q50.3 57.4 50.3 57.7L50.3 57.7L50.3 61ZM60.6 61.1L60.6 61.1Q59.6 61.1 58.8 60.6Q58.1 60.2 57.6 59.4Q57.2 58.5 57.2 57.4L57.2 57.4Q57.2 56.2 57.7 55.4Q58.1 54.5 58.9 54.1Q59.6 53.6 60.6 53.6L60.6 53.6Q61.2 53.6 61.7 53.8Q62.3 54.0 62.7 54.3Q63.1 54.6 63.4 55.1Q63.6 55.5 63.7 56.1L63.7 56.1L62.2 56.1Q62.1 55.8 62.0 55.6Q61.8 55.4 61.6 55.2Q61.4 55.1 61.2 55.0Q60.9 55.0 60.6 55.0L60.6 55.0Q60.1 55.0 59.6 55.2Q59.2 55.5 59.0 56.0Q58.7 56.6 58.7 57.4Q58.7 58.1 59.0 58.7Q59.2 59.2 59.6 59.5Q60.0 59.8 60.6 59.8L60.6 59.8Q61.2 59.8 61.5 59.6Q61.9 59.4 62.1 59.0L62.1 59.0Q62.3 58.7 62.3 58.3L62.3 58.3L60.7 58.3L60.7 57.1L63.8 57.1L63.8 58.0Q63.8 59.0 63.4 59.7Q63.0 60.4 62.2 60.7Q61.5 61.1 60.6 61.1ZM68.9 61.1L68.9 61.1Q68.0 61.1 67.3 60.8Q66.7 60.4 66.3 59.8Q65.9 59.2 65.9 58.4L65.9 58.4L65.9 53.7L67.4 53.7L67.4 58.3Q67.4 58.7 67.6 59.1Q67.8 59.4 68.1 59.6Q68.5 59.8 68.9 59.8L68.9 59.8Q69.4 59.8 69.7 59.6Q70.0 59.4 70.2 59.1Q70.4 58.7 70.4 58.3L70.4 58.3L70.4 53.7L71.9 53.7L71.9 58.4Q71.9 59.2 71.5 59.8Q71.2 60.4 70.5 60.8Q69.8 61.1 68.9 61.1ZM75.5 61L73.8 61L76.3 53.7L78.2 53.7L80.8 61L79.1 61L78.6 59.3L76.0 59.3L75.5 61ZM76.4 58.1L78.2 58.1L78.0 57.5Q77.8 56.8 77.5 56L77.5 56Q77.4 55.5 77.3 54.9L77.3 54.9Q77.1 55.5 77.0 56.0L77.0 56.0Q76.8 56.8 76.6 57.5L76.6 57.5L76.4 58.1ZM85.9 61.1L85.9 61.1Q84.9 61.1 84.1 60.6Q83.4 60.2 82.9 59.4Q82.5 58.5 82.5 57.4L82.5 57.4Q82.5 56.2 82.9 55.4Q83.4 54.5 84.2 54.1Q84.9 53.6 85.9 53.6L85.9 53.6Q86.5 53.6 87.0 53.8Q87.6 54.0 88.0 54.3Q88.4 54.6 88.6 55.1Q88.9 55.5 89.0 56.1L89.0 56.1L87.5 56.1Q87.4 55.8 87.2 55.6Q87.1 55.4 86.9 55.2Q86.7 55.1 86.5 55.0Q86.2 55.0 85.9 55.0L85.9 55.0Q85.3 55.0 84.9 55.2Q84.5 55.5 84.2 56.0Q84.0 56.6 84.0 57.4Q84.0 58.1 84.2 58.7Q84.5 59.2 84.9 59.5Q85.3 59.8 85.9 59.8L85.9 59.8Q86.5 59.8 86.8 59.6Q87.2 59.4 87.4 59.0L87.4 59.0Q87.6 58.7 87.6 58.3L87.6 58.3L86.0 58.3L86.0 57.1L89.1 57.1L89.1 58.0Q89.1 59.0 88.6 59.7Q88.2 60.4 87.5 60.7Q86.8 61.1 85.9 61.1ZM96.1 61L91.2 61L91.2 53.7L96.1 53.7L96.1 55.0L92.7 55.0L92.7 56.7L95.8 56.7L95.8 57.9L92.7 57.9L92.7 59.8L96.1 59.8L96.1 61ZM100.9 61.1L100.9 61.1Q100.1 61.1 99.4 60.8Q98.8 60.6 98.4 60.0Q98.0 59.5 98.0 58.7L98.0 58.7L99.5 58.7Q99.5 59.1 99.7 59.4Q99.9 59.6 100.2 59.7Q100.5 59.8 100.9 59.8L100.9 59.8Q101.3 59.8 101.6 59.7Q101.9 59.6 102.1 59.4Q102.2 59.2 102.2 58.9L102.2 58.9Q102.2 58.7 102.1 58.5Q101.9 58.3 101.7 58.2Q101.4 58.1 101.0 58.0L101.0 58.0L100.2 57.8Q99.3 57.6 98.7 57.1Q98.2 56.6 98.2 55.8L98.2 55.8Q98.2 55.2 98.6 54.7Q98.9 54.2 99.5 53.9Q100.2 53.6 101.0 53.6L101.0 53.6Q101.8 53.6 102.4 53.9Q103.0 54.2 103.3 54.7Q103.6 55.2 103.6 55.8L103.6 55.8L102.2 55.8Q102.2 55.4 101.8 55.1Q101.5 54.9 100.9 54.9L100.9 54.9Q100.6 54.9 100.3 55.0Q100.0 55.1 99.9 55.3Q99.8 55.5 99.8 55.7L99.8 55.7Q99.8 56.0 99.9 56.2Q100.1 56.3 100.3 56.5Q100.6 56.6 100.9 56.6L100.9 56.6L101.6 56.8Q102.0 56.9 102.4 57.1Q102.8 57.3 103.1 57.5Q103.4 57.8 103.6 58.1Q103.7 58.5 103.7 58.9L103.7 58.9Q103.7 59.6 103.4 60.1Q103.1 60.6 102.5 60.8Q101.8 61.1 100.9 61.1Z "/></g><mask id="satori_om-id-2-0-1"><rect x="133" y="44" width="538" height="25" fill="#fff" mask="url(#satori_om-id)"/></mask><defs><clipPath id="satori_bc-id-2-0-1-0" clip-path="url(#satori_cp-id)"><path x="133" y="44" width="93" height="25" d="M143,44 h73 a10,10 0 0 1 10,10 v5 a10,10 0 0 1 -10,10 h-73 a10,10 0 0 1 -10,-10 v-5 a10,10 0 0 1 10,-10"/></clipPath></defs><mask id="satori_om-id-2-0-1-0"><rect x="134" y="45" width="91" height="23" fill="#fff" mask="url(#satori_om-id)"/><path width="93" height="25" fill="none" stroke="#000" stroke-width="2" d="M135.929,46.929 A10,10 0 0 1 143,44 h73 a10,10 0 0 1 10,10 v5 a10,10 0 0 1 -10,10 h-73 a10,10 0 0 1 -10,-10 v-5 A10,10 0 0 1 135.929,46.929"/></mask><path x="133" y="44" width="93" height="25" fill="rgba(255,255,255,0.04)" d="M143,44 h73 a10,10 0 0 1 10,10 v5 a10,10 0 0 1 -10,10 h-73 a10,10 0 0 1 -10,-10 v-5 a10,10 0 0 1 10,-10" clip-path="url(#satori_cp-id)" mask="url(#satori_om-id)"/><path width="93" height="25" clip-path="url(#satori_bc-id-2-0-1-0)" fill="none" stroke="rgba(255,255,255,0.08)" stroke-width="2" d="M135.929,46.929 A10,10 0 0 1 143,44 h73 a10,10 0 0 1 10,10 v5 a10,10 0 0 1 -10,10 h-73 a10,10 0 0 1 -10,-10 v-5 A10,10 0 0 1 135.929,46.929"/><g mask="url(#satori_om-id)" clip-path="url(#satori_cp-id)"><path fill="rgba(230,235,255,0.85)" d="M150.1 53.8L147.4 53.8L147.4 52.3L154.6 52.3L154.6 53.8L151.9 53.8L151.9 61L150.1 61L150.1 53.8ZM155.7 63.3L155.7 63.3L156.1 62.0L156.3 62.0Q156.7 62.1 157.0 62.1Q157.2 62.1 157.4 61.9Q157.6 61.7 157.6 61.4L157.6 61.4L157.7 61.0L155.2 54.4L157.1 54.4L158.2 57.8Q158.4 58.5 158.5 59.1L158.5 59.1Q158.5 59.4 158.6 59.6L158.6 59.6Q158.6 59.4 158.7 59.1L158.7 59.1Q158.8 58.5 159.1 57.8L159.1 57.8L160.2 54.4L162.0 54.4L159.3 61.8Q159.1 62.3 158.8 62.7Q158.4 63.1 158.0 63.3Q157.5 63.5 156.9 63.5L156.9 63.5Q156.5 63.5 156.2 63.4Q155.9 63.4 155.7 63.3ZM164.7 63.4L163.0 63.4L163.0 54.4L164.7 54.4L164.7 55.6L164.8 55.6Q164.9 55.3 165.1 55.0Q165.4 54.7 165.7 54.6Q166.1 54.4 166.7 54.4L166.7 54.4Q167.4 54.4 168.0 54.7Q168.6 55.1 169.0 55.9Q169.3 56.6 169.3 57.7L169.3 57.7Q169.3 58.8 169.0 59.6Q168.6 60.3 168.0 60.7Q167.4 61.1 166.7 61.1L166.7 61.1Q166.1 61.1 165.8 60.9Q165.4 60.7 165.1 60.5Q164.9 60.2 164.8 60.0L164.8 60.0L164.7 60.0L164.7 63.4ZM166.1 59.7L166.1 59.7Q166.6 59.7 166.9 59.4Q167.2 59.2 167.4 58.8Q167.5 58.3 167.5 57.7L167.5 57.7Q167.5 57.2 167.4 56.7Q167.2 56.3 166.9 56.0Q166.6 55.8 166.1 55.8L166.1 55.8Q165.7 55.8 165.3 56.0Q165.0 56.3 164.9 56.7Q164.7 57.1 164.7 57.7L164.7 57.7Q164.7 58.3 164.9 58.8Q165.0 59.2 165.4 59.5Q165.7 59.7 166.1 59.7ZM173.5 61.1L173.5 61.1Q172.5 61.1 171.8 60.7Q171.1 60.3 170.7 59.6Q170.3 58.8 170.3 57.8L170.3 57.8Q170.3 56.7 170.7 56.0Q171.0 55.2 171.8 54.8Q172.5 54.4 173.4 54.4L173.4 54.4Q174.1 54.4 174.6 54.6Q175.2 54.8 175.6 55.2Q176.0 55.6 176.3 56.2Q176.5 56.8 176.5 57.7L176.5 57.7L176.5 58.2L172.0 58.2Q172.0 58.7 172.2 59.0L172.2 59.0Q172.4 59.4 172.7 59.6Q173.1 59.8 173.5 59.8L173.5 59.8Q173.8 59.8 174.1 59.7Q174.4 59.6 174.5 59.5Q174.7 59.3 174.8 59.0L174.8 59.0L176.4 59.3Q176.2 59.9 175.8 60.3Q175.5 60.7 174.9 60.9Q174.3 61.1 173.5 61.1ZM172.0 57.1L172.0 57.1L174.8 57.1Q174.8 56.8 174.7 56.5L174.7 56.5Q174.5 56.1 174.2 55.9Q173.9 55.7 173.4 55.7L173.4 55.7Q173.0 55.7 172.7 55.9Q172.3 56.1 172.2 56.5L172.2 56.5Q172.1 56.7 172.0 57.1ZM180.9 61.1L180.9 61.1Q179.9 61.1 179.1 60.8Q178.3 60.5 177.9 59.9Q177.5 59.2 177.4 58.3L177.4 58.3L179.2 58.3Q179.2 58.7 179.4 59.0Q179.7 59.3 180.1 59.5Q180.4 59.6 180.9 59.6L180.9 59.6Q181.4 59.6 181.8 59.5Q182.1 59.3 182.3 59.1Q182.5 58.8 182.5 58.5L182.5 58.5Q182.5 58.2 182.3 58.0Q182.2 57.8 181.8 57.7Q181.5 57.5 181.0 57.4L181.0 57.4L180.0 57.2Q178.9 56.9 178.3 56.3Q177.7 55.7 177.7 54.8L177.7 54.8Q177.7 54.0 178.1 53.4Q178.5 52.8 179.3 52.5Q180.0 52.2 181.0 52.2L181.0 52.2Q181.9 52.2 182.6 52.5Q183.4 52.8 183.8 53.4Q184.2 54.0 184.2 54.8L184.2 54.8L182.5 54.8Q182.4 54.2 182.0 53.9Q181.6 53.7 180.9 53.7L180.9 53.7Q180.5 53.7 180.2 53.8Q179.8 53.9 179.7 54.1Q179.5 54.4 179.5 54.7L179.5 54.7Q179.5 55.0 179.7 55.2Q179.9 55.4 180.2 55.5Q180.5 55.7 180.9 55.8L180.9 55.8L181.7 56.0Q182.3 56.1 182.7 56.3Q183.2 56.5 183.6 56.8Q183.9 57.1 184.1 57.5Q184.3 58.0 184.3 58.5L184.3 58.5Q184.3 59.3 183.9 59.9Q183.5 60.5 182.8 60.8Q182.0 61.1 180.9 61.1ZM188.5 61.1L188.5 61.1Q187.5 61.1 186.8 60.7Q186.1 60.3 185.7 59.5Q185.3 58.8 185.3 57.8L185.3 57.8Q185.3 56.7 185.7 56.0Q186.1 55.2 186.8 54.8Q187.5 54.4 188.5 54.4L188.5 54.4Q189.1 54.4 189.6 54.5Q190.0 54.7 190.4 55.0Q190.8 55.2 191.1 55.6Q191.3 56.0 191.4 56.5L191.4 56.5L189.8 56.9Q189.7 56.6 189.6 56.4Q189.5 56.2 189.3 56.0Q189.2 55.9 189.0 55.8Q188.8 55.8 188.5 55.8L188.5 55.8Q188.0 55.8 187.7 56.0Q187.4 56.3 187.2 56.7Q187.1 57.2 187.1 57.7L187.1 57.7Q187.1 58.3 187.2 58.8Q187.4 59.2 187.7 59.5Q188.0 59.7 188.5 59.7L188.5 59.7Q188.8 59.7 189.0 59.7Q189.2 59.6 189.3 59.4Q189.5 59.3 189.6 59.1Q189.7 58.9 189.8 58.6L189.8 58.6L191.4 58.9Q191.3 59.4 191.1 59.8Q190.8 60.2 190.4 60.5Q190.1 60.8 189.6 61.0Q189.1 61.1 188.5 61.1ZM194.4 61L192.6 61L192.6 54.4L194.3 54.4L194.3 55.6L194.4 55.6Q194.6 55.0 195.0 54.7Q195.4 54.4 196.0 54.4L196.0 54.4Q196.1 54.4 196.3 54.4Q196.4 54.4 196.5 54.4L196.5 54.4L196.5 56.0Q196.4 55.9 196.2 55.9Q196.0 55.9 195.8 55.9L195.8 55.9Q195.4 55.9 195.1 56.1Q194.7 56.2 194.6 56.6Q194.4 56.9 194.4 57.3L194.4 57.3L194.4 61ZM199.3 61L197.5 61L197.5 54.4L199.3 54.4L199.3 61ZM198.4 53.6L198.4 53.6Q198.0 53.6 197.7 53.3Q197.4 53.1 197.4 52.7L197.4 52.7Q197.4 52.3 197.7 52.1Q198.0 51.8 198.4 51.8L198.4 51.8Q198.8 51.8 199.1 52.0Q199.3 52.3 199.3 52.7L199.3 52.7Q199.3 53.1 199.1 53.3Q198.8 53.6 198.4 53.6ZM202.5 63.4L200.8 63.4L200.8 54.4L202.5 54.4L202.5 55.6L202.6 55.6Q202.7 55.3 202.9 55.0Q203.1 54.7 203.5 54.6Q203.9 54.4 204.4 54.4L204.4 54.4Q205.2 54.4 205.8 54.7Q206.4 55.1 206.7 55.9Q207.1 56.6 207.1 57.7L207.1 57.7Q207.1 58.8 206.7 59.6Q206.4 60.3 205.8 60.7Q205.2 61.1 204.4 61.1L204.4 61.1Q203.9 61.1 203.5 60.9Q203.2 60.7 202.9 60.5Q202.7 60.2 202.6 60.0L202.6 60.0L202.5 60.0L202.5 63.4ZM203.9 59.7L203.9 59.7Q204.3 59.7 204.7 59.4Q205.0 59.2 205.1 58.8Q205.3 58.3 205.3 57.7L205.3 57.7Q205.3 57.2 205.1 56.7Q205.0 56.3 204.7 56.0Q204.3 55.8 203.9 55.8L203.9 55.8Q203.4 55.8 203.1 56.0Q202.8 56.3 202.6 56.7Q202.5 57.1 202.5 57.7L202.5 57.7Q202.5 58.3 202.6 58.8Q202.8 59.2 203.1 59.5Q203.4 59.7 203.9 59.7ZM210.3 54.4L211.6 54.4L211.6 55.8L210.3 55.8L210.3 59.1Q210.3 59.4 210.5 59.5Q210.6 59.7 210.9 59.7L210.9 59.7Q211.0 59.7 211.2 59.7Q211.4 59.6 211.5 59.6L211.5 59.6L211.8 60.9Q211.5 61.0 211.2 61.1Q210.9 61.1 210.6 61.1L210.6 61.1Q209.6 61.1 209.1 60.6Q208.6 60.1 208.6 59.2L208.6 59.2L208.6 55.8L207.7 55.8L207.7 54.4L208.6 54.4L208.6 52.9L210.3 52.9L210.3 54.4Z "/></g><defs><clipPath id="satori_bc-id-2-0-1-1" clip-path="url(#satori_cp-id)"><path x="233" y="44" width="92" height="25" d="M243,44 h72 a10,10 0 0 1 10,10 v5 a10,10 0 0 1 -10,10 h-72 a10,10 0 0 1 -10,-10 v-5 a10,10 0 0 1 10,-10"/></clipPath></defs><mask id="satori_om-id-2-0-1-1"><rect x="234" y="45" width="90" height="23" fill="#fff" mask="url(#satori_om-id)"/><path width="92" height="25" fill="none" stroke="#000" stroke-width="2" d="M235.929,46.929 A10,10 0 0 1 243,44 h72 a10,10 0 0 1 10,10 v5 a10,10 0 0 1 -10,10 h-72 a10,10 0 0 1 -10,-10 v-5 A10,10 0 0 1 235.929,46.929"/></mask><path x="233" y="44" width="92" height="25" fill="rgba(255,255,255,0.04)" d="M243,44 h72 a10,10 0 0 1 10,10 v5 a10,10 0 0 1 -10,10 h-72 a10,10 0 0 1 -10,-10 v-5 a10,10 0 0 1 10,-10" clip-path="url(#satori_cp-id)" mask="url(#satori_om-id)"/><path width="92" height="25" clip-path="url(#satori_bc-id-2-0-1-1)" fill="none" stroke="rgba(255,255,255,0.08)" stroke-width="2" d="M235.929,46.929 A10,10 0 0 1 243,44 h72 a10,10 0 0 1 10,10 v5 a10,10 0 0 1 -10,10 h-72 a10,10 0 0 1 -10,-10 v-5 A10,10 0 0 1 235.929,46.929"/><g mask="url(#satori_om-id)" clip-path="url(#satori_cp-id)"><path fill="rgba(230,235,255,0.85)" d="M250.3 61.1L250.3 61.1Q249.0 61.1 248.2 60.4Q247.4 59.7 247.4 58.4L247.4 58.4L247.4 57.9L249.2 57.9L249.2 58.4Q249.2 59.0 249.5 59.4Q249.8 59.7 250.3 59.7L250.3 59.7Q250.8 59.7 251.1 59.4Q251.5 59.0 251.5 58.4L251.5 58.4L251.5 52.3L253.2 52.3L253.2 58.4Q253.2 59.7 252.4 60.4Q251.7 61.1 250.3 61.1ZM256.6 61.1L256.6 61.1Q256.0 61.1 255.5 60.9Q255.0 60.7 254.7 60.3Q254.4 59.8 254.4 59.2L254.4 59.2Q254.4 58.6 254.6 58.3Q254.8 57.9 255.2 57.7Q255.5 57.4 256.0 57.3Q256.4 57.2 256.9 57.2L256.9 57.2Q257.5 57.1 257.8 57.0Q258.2 57.0 258.3 56.9Q258.5 56.8 258.5 56.6L258.5 56.6L258.5 56.5Q258.5 56.3 258.4 56.1Q258.2 55.9 258.0 55.8Q257.8 55.7 257.4 55.7L257.4 55.7Q257.1 55.7 256.9 55.8Q256.6 55.9 256.4 56.0Q256.3 56.2 256.2 56.4L256.2 56.4L254.6 56.2Q254.8 55.6 255.2 55.2Q255.6 54.8 256.1 54.6Q256.7 54.4 257.5 54.4L257.5 54.4Q258.0 54.4 258.5 54.5Q259.0 54.6 259.4 54.9Q259.8 55.1 260.0 55.6Q260.2 56.0 260.2 56.6L260.2 56.6L260.2 61L258.6 61L258.6 60.1L258.5 60.1Q258.3 60.4 258.1 60.6Q257.8 60.9 257.5 61.0Q257.1 61.1 256.6 61.1ZM257.1 59.9L257.1 59.9Q257.5 59.9 257.8 59.7Q258.1 59.6 258.3 59.3Q258.5 59.0 258.5 58.7L258.5 58.7L258.5 57.9Q258.4 58.0 258.3 58.1Q258.1 58.1 257.9 58.1Q257.7 58.2 257.5 58.2Q257.3 58.2 257.2 58.2L257.2 58.2Q256.9 58.3 256.6 58.4Q256.4 58.5 256.2 58.7Q256.1 58.8 256.1 59.1L256.1 59.1Q256.1 59.4 256.2 59.5Q256.4 59.7 256.6 59.8Q256.8 59.9 257.1 59.9ZM265.6 61L263.6 61L261.2 54.4L263.0 54.4L264.1 57.8Q264.3 58.5 264.5 59.1L264.5 59.1Q264.5 59.4 264.6 59.6L264.6 59.6Q264.7 59.4 264.7 59.1L264.7 59.1Q264.9 58.5 265.1 57.8L265.1 57.8L266.1 54.4L268.0 54.4L265.6 61ZM270.8 61.1L270.8 61.1Q270.1 61.1 269.6 60.9Q269.1 60.7 268.9 60.3Q268.6 59.8 268.6 59.2L268.6 59.2Q268.6 58.6 268.8 58.3Q269.0 57.9 269.3 57.7Q269.7 57.4 270.1 57.3Q270.6 57.2 271.0 57.2L271.0 57.2Q271.6 57.1 272.0 57.0Q272.3 57.0 272.5 56.9Q272.6 56.8 272.6 56.6L272.6 56.6L272.6 56.5Q272.6 56.3 272.5 56.1Q272.4 55.9 272.2 55.8Q271.9 55.7 271.6 55.7L271.6 55.7Q271.3 55.7 271.0 55.8Q270.8 55.9 270.6 56.0Q270.4 56.2 270.4 56.4L270.4 56.4L268.8 56.2Q268.9 55.6 269.3 55.2Q269.7 54.8 270.3 54.6Q270.9 54.4 271.6 54.4L271.6 54.4Q272.1 54.4 272.6 54.5Q273.1 54.6 273.5 54.9Q273.9 55.1 274.2 55.6Q274.4 56.0 274.4 56.6L274.4 56.6L274.4 61L272.7 61L272.7 60.1L272.7 60.1Q272.5 60.4 272.2 60.6Q272.0 60.9 271.6 61.0Q271.2 61.1 270.8 61.1ZM271.3 59.9L271.3 59.9Q271.7 59.9 272.0 59.7Q272.3 59.6 272.5 59.3Q272.6 59.0 272.6 58.7L272.6 58.7L272.6 57.9Q272.6 58.0 272.4 58.1Q272.3 58.1 272.1 58.1Q271.9 58.2 271.7 58.2Q271.5 58.2 271.3 58.2L271.3 58.2Q271.0 58.3 270.8 58.4Q270.5 58.5 270.4 58.7Q270.3 58.8 270.3 59.1L270.3 59.1Q270.3 59.4 270.4 59.5Q270.5 59.7 270.7 59.8Q271.0 59.9 271.3 59.9ZM279.1 61.1L279.1 61.1Q278.1 61.1 277.3 60.8Q276.5 60.5 276.1 59.9Q275.7 59.2 275.6 58.3L275.6 58.3L277.4 58.3Q277.4 58.7 277.6 59.0Q277.9 59.3 278.3 59.5Q278.6 59.6 279.1 59.6L279.1 59.6Q279.6 59.6 280.0 59.5Q280.3 59.3 280.5 59.1Q280.7 58.8 280.7 58.5L280.7 58.5Q280.7 58.2 280.5 58.0Q280.3 57.8 280.0 57.7Q279.7 57.5 279.2 57.4L279.2 57.4L278.2 57.2Q277.1 56.9 276.5 56.3Q275.9 55.7 275.9 54.8L275.9 54.8Q275.9 54.0 276.3 53.4Q276.7 52.8 277.5 52.5Q278.2 52.2 279.2 52.2L279.2 52.2Q280.1 52.2 280.8 52.5Q281.6 52.8 282.0 53.4Q282.4 54.0 282.4 54.8L282.4 54.8L280.7 54.8Q280.6 54.2 280.2 53.9Q279.8 53.7 279.1 53.7L279.1 53.7Q278.7 53.7 278.4 53.8Q278.0 53.9 277.9 54.1Q277.7 54.4 277.7 54.7L277.7 54.7Q277.7 55.0 277.9 55.2Q278.1 55.4 278.4 55.5Q278.7 55.7 279.1 55.8L279.1 55.8L279.9 56.0Q280.4 56.1 280.9 56.3Q281.4 56.5 281.8 56.8Q282.1 57.1 282.3 57.5Q282.5 58.0 282.5 58.5L282.5 58.5Q282.5 59.3 282.1 59.9Q281.7 60.5 280.9 60.8Q280.2 61.1 279.1 61.1ZM286.7 61.1L286.7 61.1Q285.7 61.1 285.0 60.7Q284.3 60.3 283.9 59.5Q283.5 58.8 283.5 57.8L283.5 57.8Q283.5 56.7 283.9 56.0Q284.3 55.2 285.0 54.8Q285.7 54.4 286.7 54.4L286.7 54.4Q287.3 54.4 287.8 54.5Q288.2 54.7 288.6 55.0Q289.0 55.2 289.3 55.6Q289.5 56.0 289.6 56.5L289.6 56.5L288.0 56.9Q287.9 56.6 287.8 56.4Q287.7 56.2 287.5 56.0Q287.4 55.9 287.2 55.8Q286.9 55.8 286.7 55.8L286.7 55.8Q286.2 55.8 285.9 56.0Q285.6 56.3 285.4 56.7Q285.3 57.2 285.3 57.7L285.3 57.7Q285.3 58.3 285.4 58.8Q285.6 59.2 285.9 59.5Q286.2 59.7 286.7 59.7L286.7 59.7Q286.9 59.7 287.2 59.7Q287.4 59.6 287.5 59.4Q287.7 59.3 287.8 59.1Q287.9 58.9 288.0 58.6L288.0 58.6L289.6 58.9Q289.5 59.4 289.3 59.8Q289.0 60.2 288.6 60.5Q288.3 60.8 287.8 61.0Q287.3 61.1 286.7 61.1ZM292.6 61L290.8 61L290.8 54.4L292.5 54.4L292.5 55.6L292.6 55.6Q292.8 55.0 293.2 54.7Q293.6 54.4 294.2 54.4L294.2 54.4Q294.3 54.4 294.5 54.4Q294.6 54.4 294.7 54.4L294.7 54.4L294.7 56.0Q294.6 55.9 294.4 55.9Q294.2 55.9 294.0 55.9L294.0 55.9Q293.6 55.9 293.2 56.1Q292.9 56.2 292.7 56.6Q292.6 56.9 292.6 57.3L292.6 57.3L292.6 61ZM297.5 61L295.7 61L295.7 54.4L297.5 54.4L297.5 61ZM296.6 53.6L296.6 53.6Q296.2 53.6 295.9 53.3Q295.6 53.1 295.6 52.7L295.6 52.7Q295.6 52.3 295.9 52.1Q296.2 51.8 296.6 51.8L296.6 51.8Q297.0 51.8 297.3 52.0Q297.5 52.3 297.5 52.7L297.5 52.7Q297.5 53.1 297.3 53.3Q297.0 53.6 296.6 53.6ZM300.7 63.4L298.9 63.4L298.9 54.4L300.7 54.4L300.7 55.6L300.8 55.6Q300.9 55.3 301.1 55.0Q301.3 54.7 301.7 54.6Q302.1 54.4 302.6 54.4L302.6 54.4Q303.4 54.4 304.0 54.7Q304.6 55.1 304.9 55.9Q305.3 56.6 305.3 57.7L305.3 57.7Q305.3 58.8 304.9 59.6Q304.6 60.3 304.0 60.7Q303.4 61.1 302.6 61.1L302.6 61.1Q302.1 61.1 301.7 60.9Q301.3 60.7 301.1 60.5Q300.9 60.2 300.8 60.0L300.8 60.0L300.7 60.0L300.7 63.4ZM302.1 59.7L302.1 59.7Q302.5 59.7 302.8 59.4Q303.2 59.2 303.3 58.8Q303.5 58.3 303.5 57.7L303.5 57.7Q303.5 57.2 303.3 56.7Q303.2 56.3 302.9 56.0Q302.5 55.8 302.1 55.8L302.1 55.8Q301.6 55.8 301.3 56.0Q301.0 56.3 300.8 56.7Q300.7 57.1 300.7 57.7L300.7 57.7Q300.7 58.3 300.8 58.8Q301 59.2 301.3 59.5Q301.6 59.7 302.1 59.7ZM308.5 54.4L309.8 54.4L309.8 55.8L308.5 55.8L308.5 59.1Q308.5 59.4 308.7 59.5Q308.8 59.7 309.1 59.7L309.1 59.7Q309.2 59.7 309.4 59.7Q309.6 59.6 309.7 59.6L309.7 59.6L309.9 60.9Q309.7 61.0 309.4 61.1Q309.1 61.1 308.8 61.1L308.8 61.1Q307.8 61.1 307.3 60.6Q306.8 60.1 306.8 59.2L306.8 59.2L306.8 55.8L305.9 55.8L305.9 54.4L306.8 54.4L306.8 52.9L308.5 52.9L308.5 54.4Z "/></g><defs><clipPath id="satori_bc-id-2-0-1-2" clip-path="url(#satori_cp-id)"><path x="332" y="44" width="70" height="25" d="M342,44 h50 a10,10 0 0 1 10,10 v5 a10,10 0 0 1 -10,10 h-50 a10,10 0 0 1 -10,-10 v-5 a10,10 0 0 1 10,-10"/></clipPath></defs><mask id="satori_om-id-2-0-1-2"><rect x="333" y="45" width="68" height="23" fill="#fff" mask="url(#satori_om-id)"/><path width="70" height="25" fill="none" stroke="#000" stroke-width="2" d="M334.929,46.929 A10,10 0 0 1 342,44 h50 a10,10 0 0 1 10,10 v5 a10,10 0 0 1 -10,10 h-50 a10,10 0 0 1 -10,-10 v-5 A10,10 0 0 1 334.929,46.929"/></mask><path x="332" y="44" width="70" height="25" fill="rgba(255,255,255,0.04)" d="M342,44 h50 a10,10 0 0 1 10,10 v5 a10,10 0 0 1 -10,10 h-50 a10,10 0 0 1 -10,-10 v-5 a10,10 0 0 1 10,-10" clip-path="url(#satori_cp-id)" mask="url(#satori_om-id)"/><path width="70" height="25" clip-path="url(#satori_bc-id-2-0-1-2)" fill="none" stroke="rgba(255,255,255,0.08)" stroke-width="2" d="M334.929,46.929 A10,10 0 0 1 342,44 h50 a10,10 0 0 1 10,10 v5 a10,10 0 0 1 -10,10 h-50 a10,10 0 0 1 -10,-10 v-5 A10,10 0 0 1 334.929,46.929"/><g mask="url(#satori_om-id)" clip-path="url(#satori_cp-id)"><path fill="rgba(230,235,255,0.85)" d="M348.6 61L346.8 61L346.8 52.3L350.2 52.3Q351.2 52.3 351.9 52.6Q352.6 53.0 353.0 53.7Q353.3 54.4 353.3 55.2L353.3 55.2Q353.3 56.1 352.9 56.7Q352.6 57.4 351.9 57.8Q351.2 58.1 350.2 58.1L350.2 58.1L348.6 58.1L348.6 61ZM348.6 53.7L348.6 56.7L349.9 56.7Q350.4 56.7 350.8 56.5Q351.1 56.3 351.3 56.0Q351.5 55.7 351.5 55.2Q351.5 54.8 351.3 54.4Q351.1 54.1 350.8 53.9Q350.4 53.7 349.9 53.7L349.9 53.7L348.6 53.7ZM354.5 63.3L354.5 63.3L354.9 62.0L355.1 62.0Q355.5 62.1 355.7 62.1Q356.0 62.1 356.2 61.9Q356.3 61.7 356.4 61.4L356.4 61.4L356.4 61.0L354.0 54.4L355.8 54.4L356.9 57.8Q357.1 58.5 357.3 59.1L357.3 59.1Q357.3 59.4 357.3 59.6L357.3 59.6Q357.4 59.4 357.4 59.1L357.4 59.1Q357.6 58.5 357.8 57.8L357.8 57.8L359.0 54.4L360.8 54.4L358.0 61.8Q357.8 62.3 357.5 62.7Q357.2 63.1 356.7 63.3Q356.3 63.5 355.6 63.5L355.6 63.5Q355.3 63.5 355.0 63.4Q354.7 63.4 354.5 63.3ZM363.8 54.4L365.0 54.4L365.0 55.8L363.8 55.8L363.8 59.1Q363.8 59.4 363.9 59.5Q364.1 59.7 364.4 59.7L364.4 59.7Q364.5 59.7 364.7 59.7Q364.8 59.6 364.9 59.6L364.9 59.6L365.2 60.9Q364.9 61.0 364.6 61.1Q364.3 61.1 364.0 61.1L364.0 61.1Q363.1 61.1 362.5 60.6Q362.0 60.1 362.0 59.2L362.0 59.2L362.0 55.8L361.1 55.8L361.1 54.4L362.0 54.4L362.0 52.9L363.8 52.9L363.8 54.4ZM367.9 57.2L367.9 57.2L367.9 61L366.1 61L366.1 52.3L367.9 52.3L367.9 55.7Q368.1 55.2 368.5 54.8L368.5 54.8Q369.0 54.4 369.9 54.4L369.9 54.4Q370.5 54.4 371.1 54.7Q371.6 55.0 371.8 55.5Q372.1 56.1 372.1 56.8L372.1 56.8L372.1 61L370.4 61L370.4 57.1Q370.4 56.5 370.0 56.2Q369.7 55.8 369.2 55.8L369.2 55.8Q368.8 55.8 368.5 56.0Q368.2 56.2 368.1 56.5Q367.9 56.8 367.9 57.2ZM376.5 61.1L376.5 61.1Q375.6 61.1 374.8 60.7Q374.1 60.3 373.7 59.5Q373.3 58.8 373.3 57.8L373.3 57.8Q373.3 56.7 373.7 56.0Q374.1 55.2 374.8 54.8Q375.6 54.4 376.5 54.4L376.5 54.4Q377.5 54.4 378.3 54.8Q379.0 55.2 379.4 56.0Q379.8 56.7 379.8 57.8L379.8 57.8Q379.8 58.8 379.4 59.5Q379.0 60.3 378.3 60.7Q377.5 61.1 376.5 61.1ZM376.5 59.7L376.5 59.7Q377.0 59.7 377.3 59.5Q377.6 59.2 377.8 58.8Q378.0 58.3 378.0 57.7L378.0 57.7Q378.0 57.2 377.8 56.7Q377.6 56.3 377.3 56.0Q377.0 55.8 376.5 55.8L376.5 55.8Q376.1 55.8 375.8 56.0Q375.4 56.3 375.3 56.7Q375.1 57.2 375.1 57.7L375.1 57.7Q375.1 58.3 375.3 58.8Q375.4 59.2 375.8 59.5Q376.1 59.7 376.5 59.7ZM382.7 57.2L382.7 57.2L382.7 61L381.0 61L381.0 54.4L382.6 54.4L382.7 55.8Q382.9 55.2 383.3 54.8L383.3 54.8Q383.9 54.4 384.7 54.4L384.7 54.4Q385.4 54.4 385.9 54.7Q386.4 55.0 386.7 55.5Q386.9 56.1 386.9 56.8L386.9 56.8L386.9 61L385.2 61L385.2 57.1Q385.2 56.5 384.9 56.2Q384.6 55.8 384.0 55.8L384.0 55.8Q383.6 55.8 383.3 56.0Q383.1 56.2 382.9 56.5Q382.7 56.8 382.7 57.2Z "/></g><defs><clipPath id="satori_bc-id-2-0-1-3" clip-path="url(#satori_cp-id)"><path x="409" y="44" width="57" height="25" d="M419,44 h37 a10,10 0 0 1 10,10 v5 a10,10 0 0 1 -10,10 h-37 a10,10 0 0 1 -10,-10 v-5 a10,10 0 0 1 10,-10"/></clipPath></defs><mask id="satori_om-id-2-0-1-3"><rect x="410" y="45" width="55" height="23" fill="#fff" mask="url(#satori_om-id)"/><path width="57" height="25" fill="none" stroke="#000" stroke-width="2" d="M411.929,46.929 A10,10 0 0 1 419,44 h37 a10,10 0 0 1 10,10 v5 a10,10 0 0 1 -10,10 h-37 a10,10 0 0 1 -10,-10 v-5 A10,10 0 0 1 411.929,46.929"/></mask><path x="409" y="44" width="57" height="25" fill="rgba(255,255,255,0.04)" d="M419,44 h37 a10,10 0 0 1 10,10 v5 a10,10 0 0 1 -10,10 h-37 a10,10 0 0 1 -10,-10 v-5 a10,10 0 0 1 10,-10" clip-path="url(#satori_cp-id)" mask="url(#satori_om-id)"/><path width="57" height="25" clip-path="url(#satori_bc-id-2-0-1-3)" fill="none" stroke="rgba(255,255,255,0.08)" stroke-width="2" d="M411.929,46.929 A10,10 0 0 1 419,44 h37 a10,10 0 0 1 10,10 v5 a10,10 0 0 1 -10,10 h-37 a10,10 0 0 1 -10,-10 v-5 A10,10 0 0 1 411.929,46.929"/><g mask="url(#satori_om-id)" clip-path="url(#satori_cp-id)"><path fill="rgba(230,235,255,0.85)" d="M426.3 61.1L426.3 61.1Q425.0 61.1 424.2 60.4Q423.4 59.7 423.4 58.4L423.4 58.4L423.4 57.9L425.2 57.9L425.2 58.4Q425.2 59.0 425.5 59.4Q425.8 59.7 426.3 59.7L426.3 59.7Q426.8 59.7 427.1 59.4Q427.5 59.0 427.5 58.4L427.5 58.4L427.5 52.3L429.2 52.3L429.2 58.4Q429.2 59.7 428.4 60.4Q427.7 61.1 426.3 61.1ZM432.6 61.1L432.6 61.1Q432.0 61.1 431.5 60.9Q431.0 60.7 430.7 60.3Q430.4 59.8 430.4 59.2L430.4 59.2Q430.4 58.6 430.6 58.3Q430.8 57.9 431.2 57.7Q431.5 57.4 432.0 57.3Q432.4 57.2 432.9 57.2L432.9 57.2Q433.5 57.1 433.8 57.0Q434.2 57.0 434.3 56.9Q434.5 56.8 434.5 56.6L434.5 56.6L434.5 56.5Q434.5 56.3 434.4 56.1Q434.2 55.9 434.0 55.8Q433.8 55.7 433.4 55.7L433.4 55.7Q433.1 55.7 432.9 55.8Q432.6 55.9 432.4 56.0Q432.3 56.2 432.2 56.4L432.2 56.4L430.6 56.2Q430.8 55.6 431.2 55.2Q431.6 54.8 432.1 54.6Q432.7 54.4 433.5 54.4L433.5 54.4Q434.0 54.4 434.5 54.5Q435.0 54.6 435.4 54.9Q435.8 55.1 436.0 55.6Q436.2 56.0 436.2 56.6L436.2 56.6L436.2 61L434.6 61L434.6 60.1L434.5 60.1Q434.3 60.4 434.1 60.6Q433.8 60.9 433.5 61.0Q433.1 61.1 432.6 61.1ZM433.1 59.9L433.1 59.9Q433.5 59.9 433.8 59.7Q434.1 59.6 434.3 59.3Q434.5 59.0 434.5 58.7L434.5 58.7L434.5 57.9Q434.4 58.0 434.3 58.1Q434.1 58.1 433.9 58.1Q433.7 58.2 433.5 58.2Q433.3 58.2 433.2 58.2L433.2 58.2Q432.9 58.3 432.6 58.4Q432.4 58.5 432.2 58.7Q432.1 58.8 432.1 59.1L432.1 59.1Q432.1 59.4 432.2 59.5Q432.4 59.7 432.6 59.8Q432.8 59.9 433.1 59.9ZM441.6 61L439.6 61L437.2 54.4L439.0 54.4L440.1 57.8Q440.3 58.5 440.5 59.1L440.5 59.1Q440.5 59.4 440.6 59.6L440.6 59.6Q440.7 59.4 440.7 59.1L440.7 59.1Q440.9 58.5 441.1 57.8L441.1 57.8L442.1 54.4L444.0 54.4L441.6 61ZM446.8 61.1L446.8 61.1Q446.1 61.1 445.6 60.9Q445.1 60.7 444.9 60.3Q444.6 59.8 444.6 59.2L444.6 59.2Q444.6 58.6 444.8 58.3Q445.0 57.9 445.3 57.7Q445.7 57.4 446.1 57.3Q446.6 57.2 447.0 57.2L447.0 57.2Q447.6 57.1 448.0 57.0Q448.3 57.0 448.5 56.9Q448.6 56.8 448.6 56.6L448.6 56.6L448.6 56.5Q448.6 56.3 448.5 56.1Q448.4 55.9 448.2 55.8Q447.9 55.7 447.6 55.7L447.6 55.7Q447.3 55.7 447.0 55.8Q446.8 55.9 446.6 56.0Q446.4 56.2 446.4 56.4L446.4 56.4L444.8 56.2Q444.9 55.6 445.3 55.2Q445.7 54.8 446.3 54.6Q446.9 54.4 447.6 54.4L447.6 54.4Q448.1 54.4 448.6 54.5Q449.1 54.6 449.5 54.9Q449.9 55.1 450.2 55.6Q450.4 56.0 450.4 56.6L450.4 56.6L450.4 61L448.7 61L448.7 60.1L448.7 60.1Q448.5 60.4 448.2 60.6Q448.0 60.9 447.6 61.0Q447.2 61.1 446.8 61.1ZM447.3 59.9L447.3 59.9Q447.7 59.9 448.0 59.7Q448.3 59.6 448.5 59.3Q448.6 59.0 448.6 58.7L448.6 58.7L448.6 57.9Q448.6 58.0 448.4 58.1Q448.3 58.1 448.1 58.1Q447.9 58.2 447.7 58.2Q447.5 58.2 447.3 58.2L447.3 58.2Q447.0 58.3 446.8 58.4Q446.5 58.5 446.4 58.7Q446.3 58.8 446.3 59.1L446.3 59.1Q446.3 59.4 446.4 59.5Q446.5 59.7 446.7 59.8Q447.0 59.9 447.3 59.9Z "/></g><defs><clipPath id="satori_bc-id-2-0-1-4" clip-path="url(#satori_cp-id)"><path x="473" y="44" width="134" height="25" d="M483,44 h114 a10,10 0 0 1 10,10 v5 a10,10 0 0 1 -10,10 h-114 a10,10 0 0 1 -10,-10 v-5 a10,10 0 0 1 10,-10"/></clipPath></defs><mask id="satori_om-id-2-0-1-4"><rect x="474" y="45" width="132" height="23" fill="#fff" mask="url(#satori_om-id)"/><path width="134" height="25" fill="none" stroke="#000" stroke-width="2" d="M475.929,46.929 A10,10 0 0 1 483,44 h114 a10,10 0 0 1 10,10 v5 a10,10 0 0 1 -10,10 h-114 a10,10 0 0 1 -10,-10 v-5 A10,10 0 0 1 475.929,46.929"/></mask><path x="473" y="44" width="134" height="25" fill="rgba(255,255,255,0.04)" d="M483,44 h114 a10,10 0 0 1 10,10 v5 a10,10 0 0 1 -10,10 h-114 a10,10 0 0 1 -10,-10 v-5 a10,10 0 0 1 10,-10" clip-path="url(#satori_cp-id)" mask="url(#satori_om-id)"/><path width="134" height="25" clip-path="url(#satori_bc-id-2-0-1-4)" fill="none" stroke="rgba(255,255,255,0.08)" stroke-width="2" d="M475.929,46.929 A10,10 0 0 1 483,44 h114 a10,10 0 0 1 10,10 v5 a10,10 0 0 1 -10,10 h-114 a10,10 0 0 1 -10,-10 v-5 A10,10 0 0 1 475.929,46.929"/><g mask="url(#satori_om-id)" clip-path="url(#satori_cp-id)"><path fill="rgba(230,235,255,0.85)" d="M490.3 61.1L490.3 61.1Q489.0 61.1 488.2 60.4Q487.4 59.7 487.4 58.4L487.4 58.4L487.4 57.9L489.2 57.9L489.2 58.4Q489.2 59.0 489.5 59.4Q489.8 59.7 490.3 59.7L490.3 59.7Q490.8 59.7 491.1 59.4Q491.5 59.0 491.5 58.4L491.5 58.4L491.5 52.3L493.2 52.3L493.2 58.4Q493.2 59.7 492.4 60.4Q491.7 61.1 490.3 61.1ZM497.0 61.1L497.0 61.1Q496.3 61.1 495.8 60.8Q495.3 60.5 495.0 59.9Q494.8 59.4 494.8 58.6L494.8 58.6L494.8 54.4L496.5 54.4L496.5 58.3Q496.5 58.9 496.8 59.3Q497.2 59.6 497.7 59.6L497.7 59.6Q498.1 59.6 498.4 59.5Q498.7 59.3 498.8 59.0Q499.0 58.7 499.0 58.2L499.0 58.2L499.0 54.4L500.7 54.4L500.7 61L499.1 61L499.1 59.6Q498.8 60.3 498.4 60.6L498.4 60.6Q497.8 61.1 497.0 61.1ZM504.0 63.4L502.2 63.4L502.2 54.4L504.0 54.4L504.0 55.6L504.0 55.6Q504.2 55.3 504.4 55.0Q504.6 54.7 505.0 54.6Q505.4 54.4 505.9 54.4L505.9 54.4Q506.6 54.4 507.2 54.7Q507.8 55.1 508.2 55.9Q508.6 56.6 508.6 57.7L508.6 57.7Q508.6 58.8 508.2 59.6Q507.9 60.3 507.3 60.7Q506.7 61.1 505.9 61.1L505.9 61.1Q505.4 61.1 505 60.9Q504.6 60.7 504.4 60.5Q504.2 60.2 504.0 60.0L504.0 60.0L504.0 60.0L504.0 63.4ZM505.4 59.7L505.4 59.7Q505.8 59.7 506.1 59.4Q506.4 59.2 506.6 58.8Q506.8 58.3 506.8 57.7L506.8 57.7Q506.8 57.2 506.6 56.7Q506.4 56.3 506.1 56.0Q505.8 55.8 505.4 55.8L505.4 55.8Q504.9 55.8 504.6 56.0Q504.3 56.3 504.1 56.7Q504.0 57.1 504.0 57.7L504.0 57.7Q504.0 58.3 504.1 58.8Q504.3 59.2 504.6 59.5Q504.9 59.7 505.4 59.7ZM509.8 63.3L509.8 63.3L510.2 62.0L510.4 62.0Q510.7 62.1 511 62.1Q511.3 62.1 511.4 61.9Q511.6 61.7 511.6 61.4L511.6 61.4L511.7 61.0L509.2 54.4L511.1 54.4L512.2 57.8Q512.4 58.5 512.5 59.1L512.5 59.1Q512.6 59.4 512.6 59.6L512.6 59.6Q512.7 59.4 512.7 59.1L512.7 59.1Q512.9 58.5 513.1 57.8L513.1 57.8L514.2 54.4L516.1 54.4L513.3 61.8Q513.1 62.3 512.8 62.7Q512.5 63.1 512.0 63.3Q511.6 63.5 510.9 63.5L510.9 63.5Q510.5 63.5 510.2 63.4Q509.9 63.4 509.8 63.3ZM519.1 54.4L520.3 54.4L520.3 55.8L519.1 55.8L519.1 59.1Q519.1 59.4 519.2 59.5Q519.3 59.7 519.6 59.7L519.6 59.7Q519.7 59.7 519.9 59.7Q520.1 59.6 520.2 59.6L520.2 59.6L520.5 60.9Q520.2 61.0 519.9 61.1Q519.6 61.1 519.3 61.1L519.3 61.1Q518.3 61.1 517.8 60.6Q517.3 60.1 517.3 59.2L517.3 59.2L517.3 55.8L516.4 55.8L516.4 54.4L517.3 54.4L517.3 52.9L519.1 52.9L519.1 54.4ZM524.4 61.1L524.4 61.1Q523.4 61.1 522.6 60.7Q521.9 60.3 521.5 59.6Q521.1 58.8 521.1 57.8L521.1 57.8Q521.1 56.7 521.5 56.0Q521.9 55.2 522.6 54.8Q523.3 54.4 524.3 54.4L524.3 54.4Q524.9 54.4 525.5 54.6Q526.0 54.8 526.5 55.2Q526.9 55.6 527.1 56.2Q527.4 56.8 527.4 57.7L527.4 57.7L527.4 58.2L522.9 58.2Q522.9 58.7 523.1 59.0L523.1 59.0Q523.3 59.4 523.6 59.6Q523.9 59.8 524.4 59.8L524.4 59.8Q524.7 59.8 525.0 59.7Q525.2 59.6 525.4 59.5Q525.6 59.3 525.7 59.0L525.7 59.0L527.3 59.3Q527.1 59.9 526.7 60.3Q526.3 60.7 525.7 60.9Q525.1 61.1 524.4 61.1ZM522.9 57.1L522.9 57.1L525.7 57.1Q525.6 56.8 525.5 56.5L525.5 56.5Q525.4 56.1 525.1 55.9Q524.8 55.7 524.3 55.7L524.3 55.7Q523.8 55.7 523.5 55.9Q523.2 56.1 523.0 56.5L523.0 56.5Q522.9 56.7 522.9 57.1ZM530.3 61L528.6 61L528.6 54.4L530.3 54.4L530.3 55.6L530.3 55.6Q530.5 55.0 530.9 54.7Q531.4 54.4 531.9 54.4L531.9 54.4Q532.1 54.4 532.2 54.4Q532.4 54.4 532.5 54.4L532.5 54.4L532.5 56.0Q532.4 55.9 532.1 55.9Q531.9 55.9 531.7 55.9L531.7 55.9Q531.3 55.9 531.0 56.1Q530.7 56.2 530.5 56.6Q530.3 56.9 530.3 57.3L530.3 57.3L530.3 61Z M538.2 61L536.3 61L536.3 52.3L538.3 52.3L541.1 56.7Q541.3 57.0 541.5 57.4Q541.7 57.8 542.0 58.3L542.0 58.3Q542.1 58.6 542.2 58.8L542.2 58.8Q542.2 58.6 542.2 58.4L542.2 58.4Q542.1 57.8 542.1 57.3Q542.1 56.8 542.1 56.5L542.1 56.5L542.1 52.3L543.9 52.3L543.9 61L541.9 61L539.4 57.0Q539.1 56.5 538.9 56.1Q538.7 55.7 538.4 55.2L538.4 55.2Q538.2 54.9 538.0 54.5L538.0 54.5Q538.1 54.8 538.1 55.2L538.1 55.2Q538.1 55.7 538.1 56.2Q538.2 56.7 538.2 57.0L538.2 57.0L538.2 61ZM548.4 61.1L548.4 61.1Q547.4 61.1 546.7 60.7Q545.9 60.3 545.6 59.5Q545.2 58.8 545.2 57.8L545.2 57.8Q545.2 56.7 545.6 56.0Q545.9 55.2 546.7 54.8Q547.4 54.4 548.4 54.4L548.4 54.4Q549.4 54.4 550.1 54.8Q550.8 55.2 551.2 56.0Q551.6 56.7 551.6 57.8L551.6 57.8Q551.6 58.8 551.2 59.5Q550.8 60.3 550.1 60.7Q549.4 61.1 548.4 61.1ZM548.4 59.7L548.4 59.7Q548.8 59.7 549.2 59.5Q549.5 59.2 549.6 58.8Q549.8 58.3 549.8 57.7L549.8 57.7Q549.8 57.2 549.6 56.7Q549.5 56.3 549.2 56.0Q548.8 55.8 548.4 55.8L548.4 55.8Q547.9 55.8 547.6 56.0Q547.3 56.3 547.1 56.7Q547.0 57.2 547.0 57.7L547.0 57.7Q547.0 58.3 547.1 58.8Q547.3 59.2 547.6 59.5Q547.9 59.7 548.4 59.7ZM554.8 54.4L556.1 54.4L556.1 55.8L554.8 55.8L554.8 59.1Q554.8 59.4 555.0 59.5Q555.1 59.7 555.4 59.7L555.4 59.7Q555.5 59.7 555.7 59.7Q555.9 59.6 556.0 59.6L556.0 59.6L556.2 60.9Q555.9 61.0 555.7 61.1Q555.4 61.1 555.1 61.1L555.1 61.1Q554.1 61.1 553.6 60.6Q553.1 60.1 553.1 59.2L553.1 59.2L553.1 55.8L552.2 55.8L552.2 54.4L553.1 54.4L553.1 52.9L554.8 52.9L554.8 54.4ZM560.2 61.1L560.2 61.1Q559.2 61.1 558.4 60.7Q557.7 60.3 557.3 59.6Q556.9 58.8 556.9 57.8L556.9 57.8Q556.9 56.7 557.3 56.0Q557.7 55.2 558.4 54.8Q559.1 54.4 560.1 54.4L560.1 54.4Q560.7 54.4 561.3 54.6Q561.8 54.8 562.2 55.2Q562.7 55.6 562.9 56.2Q563.1 56.8 563.1 57.7L563.1 57.7L563.1 58.2L558.7 58.2Q558.7 58.7 558.9 59.0L558.9 59.0Q559.0 59.4 559.4 59.6Q559.7 59.8 560.2 59.8L560.2 59.8Q560.5 59.8 560.7 59.7Q561.0 59.6 561.2 59.5Q561.4 59.3 561.4 59.0L561.4 59.0L563.0 59.3Q562.9 59.9 562.5 60.3Q562.1 60.7 561.5 60.9Q560.9 61.1 560.2 61.1ZM558.7 57.1L558.7 57.1L561.4 57.1Q561.4 56.8 561.3 56.5L561.3 56.5Q561.2 56.1 560.8 55.9Q560.5 55.7 560.1 55.7L560.1 55.7Q559.6 55.7 559.3 55.9Q559.0 56.1 558.8 56.5L558.8 56.5Q558.7 56.7 558.7 57.1ZM568.0 61.1L568.0 61.1Q567.5 61.1 567.1 60.9Q566.7 60.7 566.5 60.5Q566.3 60.2 566.2 60.0L566.2 60.0L566.1 60.0L566.1 61L564.3 61L564.3 52.3L566.1 52.3L566.1 55.6L566.2 55.6Q566.3 55.3 566.5 55.0Q566.7 54.7 567.1 54.6Q567.5 54.4 568.0 54.4L568.0 54.4Q568.8 54.4 569.4 54.7Q570.0 55.1 570.3 55.9Q570.7 56.6 570.7 57.7L570.7 57.7Q570.7 58.8 570.3 59.6Q570.0 60.3 569.4 60.7Q568.8 61.1 568.0 61.1ZM567.5 59.7L567.5 59.7Q567.9 59.7 568.2 59.4Q568.6 59.2 568.7 58.8Q568.9 58.3 568.9 57.7L568.9 57.7Q568.9 57.2 568.7 56.7Q568.6 56.3 568.2 56.0Q567.9 55.8 567.5 55.8L567.5 55.8Q567.0 55.8 566.7 56.0Q566.4 56.3 566.2 56.7Q566.1 57.1 566.1 57.7L566.1 57.7Q566.1 58.3 566.2 58.8Q566.4 59.2 566.7 59.5Q567.0 59.7 567.5 59.7ZM574.8 61.1L574.8 61.1Q573.9 61.1 573.1 60.7Q572.4 60.3 572.0 59.5Q571.6 58.8 571.6 57.8L571.6 57.8Q571.6 56.7 572.0 56.0Q572.4 55.2 573.1 54.8Q573.9 54.4 574.8 54.4L574.8 54.4Q575.8 54.4 576.5 54.8Q577.3 55.2 577.7 56.0Q578.0 56.7 578.0 57.8L578.0 57.8Q578.0 58.8 577.7 59.5Q577.3 60.3 576.5 60.7Q575.8 61.1 574.8 61.1ZM574.8 59.7L574.8 59.7Q575.3 59.7 575.6 59.5Q575.9 59.2 576.1 58.8Q576.3 58.3 576.3 57.7L576.3 57.7Q576.3 57.2 576.1 56.7Q575.9 56.3 575.6 56.0Q575.3 55.8 574.8 55.8L574.8 55.8Q574.4 55.8 574.1 56.0Q573.7 56.3 573.6 56.7Q573.4 57.2 573.4 57.7L573.4 57.7Q573.4 58.3 573.6 58.8Q573.7 59.2 574.1 59.5Q574.4 59.7 574.8 59.7ZM582.2 61.1L582.2 61.1Q581.2 61.1 580.5 60.7Q579.8 60.3 579.4 59.5Q579.0 58.8 579.0 57.8L579.0 57.8Q579.0 56.7 579.4 56.0Q579.8 55.2 580.5 54.8Q581.2 54.4 582.2 54.4L582.2 54.4Q583.2 54.4 583.9 54.8Q584.6 55.2 585.0 56.0Q585.4 56.7 585.4 57.8L585.4 57.8Q585.4 58.8 585.0 59.5Q584.6 60.3 583.9 60.7Q583.2 61.1 582.2 61.1ZM582.2 59.7L582.2 59.7Q582.7 59.7 583.0 59.5Q583.3 59.2 583.5 58.8Q583.6 58.3 583.6 57.7L583.6 57.7Q583.6 57.2 583.5 56.7Q583.3 56.3 583.0 56.0Q582.7 55.8 582.2 55.8L582.2 55.8Q581.7 55.8 581.4 56.0Q581.1 56.3 580.9 56.7Q580.8 57.2 580.8 57.7L580.8 57.7Q580.8 58.3 580.9 58.8Q581.1 59.2 581.4 59.5Q581.7 59.7 582.2 59.7ZM588.4 61L586.6 61L586.6 52.3L588.4 52.3L588.4 57.0L588.5 57.0L590.6 54.4L592.7 54.4L590.2 57.3L592.8 61L590.7 61L588.9 58.3L588.4 58.9L588.4 61Z "/></g><defs><clipPath id="satori_bc-id-2-0-1-5" clip-path="url(#satori_cp-id)"><path x="614" y="44" width="57" height="25" d="M624,44 h37 a10,10 0 0 1 10,10 v5 a10,10 0 0 1 -10,10 h-37 a10,10 0 0 1 -10,-10 v-5 a10,10 0 0 1 10,-10"/></clipPath></defs><mask id="satori_om-id-2-0-1-5"><rect x="615" y="45" width="55" height="23" fill="#fff" mask="url(#satori_om-id)"/><path width="57" height="25" fill="none" stroke="#000" stroke-width="2" d="M616.929,46.929 A10,10 0 0 1 624,44 h37 a10,10 0 0 1 10,10 v5 a10,10 0 0 1 -10,10 h-37 a10,10 0 0 1 -10,-10 v-5 A10,10 0 0 1 616.929,46.929"/></mask><path x="614" y="44" width="57" height="25" fill="rgba(255,255,255,0.04)" d="M624,44 h37 a10,10 0 0 1 10,10 v5 a10,10 0 0 1 -10,10 h-37 a10,10 0 0 1 -10,-10 v-5 a10,10 0 0 1 10,-10" clip-path="url(#satori_cp-id)" mask="url(#satori_om-id)"/><path width="57" height="25" clip-path="url(#satori_bc-id-2-0-1-5)" fill="none" stroke="rgba(255,255,255,0.08)" stroke-width="2" d="M616.929,46.929 A10,10 0 0 1 624,44 h37 a10,10 0 0 1 10,10 v5 a10,10 0 0 1 -10,10 h-37 a10,10 0 0 1 -10,-10 v-5 A10,10 0 0 1 616.929,46.929"/><g mask="url(#satori_om-id)" clip-path="url(#satori_cp-id)"><path fill="rgba(230,235,255,0.85)" d="M632.0 61.1L632.0 61.1Q630.9 61.1 630.2 60.8Q629.4 60.5 629.0 59.9Q628.5 59.2 628.5 58.3L628.5 58.3L630.2 58.3Q630.3 58.7 630.5 59.0Q630.7 59.3 631.1 59.5Q631.5 59.6 632.0 59.6L632.0 59.6Q632.5 59.6 632.8 59.5Q633.2 59.3 633.4 59.1Q633.6 58.8 633.6 58.5L633.6 58.5Q633.6 58.2 633.4 58.0Q633.2 57.8 632.9 57.7Q632.5 57.5 632.1 57.4L632.1 57.4L631.1 57.2Q630.0 56.9 629.4 56.3Q628.7 55.7 628.7 54.8L628.7 54.8Q628.7 54.0 629.2 53.4Q629.6 52.8 630.3 52.5Q631.1 52.2 632.0 52.2L632.0 52.2Q633.0 52.2 633.7 52.5Q634.4 52.8 634.8 53.4Q635.2 54.0 635.2 54.8L635.2 54.8L633.5 54.8Q633.5 54.2 633.1 53.9Q632.7 53.7 632.0 53.7L632.0 53.7Q631.5 53.7 631.2 53.8Q630.9 53.9 630.7 54.1Q630.6 54.4 630.6 54.7L630.6 54.7Q630.6 55.0 630.8 55.2Q631.0 55.4 631.3 55.5Q631.6 55.7 632.0 55.8L632.0 55.8L632.8 56.0Q633.3 56.1 633.8 56.3Q634.3 56.5 634.6 56.8Q635.0 57.1 635.2 57.5Q635.4 58.0 635.4 58.5L635.4 58.5Q635.4 59.3 635.0 59.9Q634.6 60.5 633.8 60.8Q633.1 61.1 632.0 61.1ZM638.4 57.2L638.4 57.2L638.4 61L636.6 61L636.6 52.3L638.3 52.3L638.3 55.7Q638.6 55.2 639.0 54.8L639.0 54.8Q639.5 54.4 640.3 54.4L640.3 54.4Q641.0 54.4 641.5 54.7Q642.0 55.0 642.3 55.5Q642.6 56.1 642.6 56.8L642.6 56.8L642.6 61L640.8 61L640.8 57.1Q640.8 56.5 640.5 56.2Q640.2 55.8 639.6 55.8L639.6 55.8Q639.3 55.8 639.0 56.0Q638.7 56.2 638.5 56.5Q638.4 56.8 638.4 57.2ZM647.0 61.1L647.0 61.1Q646.0 61.1 645.3 60.7Q644.6 60.3 644.2 59.6Q643.8 58.8 643.8 57.8L643.8 57.8Q643.8 56.7 644.2 56.0Q644.6 55.2 645.3 54.8Q646.0 54.4 646.9 54.4L646.9 54.4Q647.6 54.4 648.2 54.6Q648.7 54.8 649.1 55.2Q649.6 55.6 649.8 56.2Q650.0 56.8 650.0 57.7L650.0 57.7L650.0 58.2L645.5 58.2Q645.6 58.7 645.7 59.0L645.7 59.0Q645.9 59.4 646.3 59.6Q646.6 59.8 647.1 59.8L647.1 59.8Q647.4 59.8 647.6 59.7Q647.9 59.6 648.1 59.5Q648.2 59.3 648.3 59.0L648.3 59.0L649.9 59.3Q649.8 59.9 649.4 60.3Q649.0 60.7 648.4 60.9Q647.8 61.1 647.0 61.1ZM645.6 57.1L645.6 57.1L648.3 57.1Q648.3 56.8 648.2 56.5L648.2 56.5Q648.0 56.1 647.7 55.9Q647.4 55.7 647.0 55.7L647.0 55.7Q646.5 55.7 646.2 55.9Q645.9 56.1 645.7 56.5L645.7 56.5Q645.6 56.7 645.6 57.1ZM651.2 52.3L653.0 52.3L653.0 61L651.2 61L651.2 52.3ZM654.5 52.3L656.2 52.3L656.2 61L654.5 61L654.5 52.3Z "/></g><mask id="satori_om-id-2-1"><rect x="33" y="83" width="794" height="25" fill="#fff" mask="url(#satori_om-id)"/></mask><mask id="satori_om-id-2-1-0"><rect x="33" y="90" width="84" height="12" fill="#fff" mask="url(#satori_om-id)"/></mask><g mask="url(#satori_om-id)" clip-path="url(#satori_cp-id)"><path fill="rgba(120,190,255,0.92)" d="M35.1 100L33.7 100L33.7 92.7L38.4 92.7L38.4 94.0L35.1 94.0L35.1 96.0L38.1 96.0L38.1 97.2L35.1 97.2L35.1 100ZM42.0 100L40.5 100L40.5 92.7L43.4 92.7Q44.2 92.7 44.8 93.0Q45.4 93.3 45.7 93.8Q46.0 94.4 46.0 95.1Q46.0 95.8 45.7 96.3Q45.3 96.9 44.8 97.1L44.8 97.1Q44.7 97.1 44.7 97.2L44.7 97.2L46.2 100L44.6 100L43.2 97.4L42.0 97.4L42.0 100ZM42.0 94.0L42.0 96.2L43.1 96.2Q43.6 96.2 43.8 96.1Q44.1 95.9 44.3 95.7Q44.4 95.5 44.4 95.1L44.4 95.1Q44.4 94.7 44.3 94.5Q44.1 94.2 43.8 94.1Q43.5 94.0 43.1 94.0L43.1 94.0L42.0 94.0ZM49.3 100L47.7 100L50.2 92.7L52.1 92.7L54.7 100L53.0 100L52.4 98.3L49.9 98.3L49.3 100ZM50.2 97.1L52.1 97.1L51.8 96.5Q51.6 95.8 51.4 95L51.4 95Q51.3 94.5 51.1 93.9L51.1 93.9Q51.0 94.5 50.8 95.0L50.8 95.0Q50.6 95.8 50.4 96.5L50.4 96.5L50.2 97.1ZM58.0 100L56.6 100L56.6 92.7L58.8 92.7L60.0 96.1Q60.1 96.3 60.2 96.7Q60.3 97.0 60.4 97.5L60.4 97.5Q60.5 97.9 60.6 98.3L60.6 98.3Q60.7 97.9 60.7 97.5L60.7 97.5Q60.8 97.1 60.9 96.7Q61.0 96.3 61.1 96.1L61.1 96.1L62.3 92.7L64.6 92.7L64.6 100L63.1 100L63.1 96.6Q63.1 96.3 63.1 96.0Q63.1 95.6 63.1 95.2Q63.1 94.8 63.1 94.4L63.1 94.4Q63.1 94.2 63.1 94.0L63.1 94.0Q63.1 94.2 63.0 94.4L63.0 94.4Q62.9 94.9 62.8 95.3Q62.7 95.7 62.6 96.0Q62.5 96.3 62.4 96.6L62.4 96.6L61.2 100L59.9 100L58.7 96.6Q58.6 96.3 58.5 96.0Q58.4 95.7 58.3 95.3Q58.2 94.9 58.1 94.4L58.1 94.4Q58.0 94.2 58.0 94.1L58.0 94.1Q58.0 94.2 58.0 94.4L58.0 94.4Q58.0 94.8 58.0 95.2Q58.0 95.6 58.0 96.0Q58.0 96.3 58.0 96.6L58.0 96.6L58.0 100ZM71.8 100L66.9 100L66.9 92.7L71.7 92.7L71.7 94.0L68.4 94.0L68.4 95.7L71.5 95.7L71.5 96.9L68.4 96.9L68.4 98.8L71.8 98.8L71.8 100ZM77.2 100L75.5 100L73.5 92.7L75.2 92.7L76.0 96.3Q76.1 96.8 76.2 97.3Q76.3 97.8 76.4 98.3L76.4 98.3Q76.4 98.4 76.4 98.5L76.4 98.5Q76.4 98.4 76.4 98.3L76.4 98.3Q76.5 97.8 76.6 97.3Q76.7 96.8 76.8 96.3L76.8 96.3L77.7 92.7L79.3 92.7L80.1 96.3Q80.3 96.8 80.3 97.3Q80.4 97.8 80.5 98.3L80.5 98.3Q80.5 98.4 80.6 98.5L80.6 98.5Q80.6 98.4 80.6 98.3L80.6 98.3Q80.7 97.8 80.8 97.3Q80.9 96.8 81.0 96.3L81.0 96.3L81.8 92.7L83.4 92.7L81.5 100L79.8 100L78.8 96.3Q78.6 95.7 78.5 94.9L78.5 94.9Q78.5 94.7 78.5 94.5L78.5 94.5Q78.4 94.7 78.4 94.9L78.4 94.9Q78.3 95.6 78.2 96.3L78.2 96.3L77.2 100ZM88.5 100.1L88.5 100.1Q87.6 100.1 86.8 99.7Q86.0 99.2 85.6 98.4Q85.1 97.5 85.1 96.4L85.1 96.4Q85.1 95.2 85.6 94.3Q86.0 93.5 86.8 93.1Q87.6 92.6 88.5 92.6L88.5 92.6Q89.5 92.6 90.3 93.1Q91.0 93.5 91.5 94.3Q91.9 95.2 91.9 96.4L91.9 96.4Q91.9 97.5 91.5 98.4Q91.0 99.2 90.3 99.7Q89.5 100.1 88.5 100.1ZM88.5 98.8L88.5 98.8Q89.1 98.8 89.5 98.5Q89.9 98.2 90.2 97.7Q90.4 97.1 90.4 96.4L90.4 96.4Q90.4 95.6 90.2 95.0Q89.9 94.5 89.5 94.2Q89.1 94.0 88.5 94.0L88.5 94.0Q88.0 94.0 87.5 94.2Q87.1 94.5 86.9 95.0Q86.6 95.6 86.6 96.4L86.6 96.4Q86.6 97.1 86.9 97.7Q87.1 98.2 87.5 98.5Q88.0 98.8 88.5 98.8ZM95.5 100L94.0 100L94.0 92.7L96.9 92.7Q97.7 92.7 98.3 93.0Q98.9 93.3 99.2 93.8Q99.5 94.4 99.5 95.1Q99.5 95.8 99.2 96.3Q98.9 96.9 98.3 97.1L98.3 97.1Q98.2 97.1 98.2 97.2L98.2 97.2L99.7 100L98.1 100L96.7 97.4L95.5 97.4L95.5 100ZM95.5 94.0L95.5 96.2L96.6 96.2Q97.1 96.2 97.3 96.1Q97.6 95.9 97.8 95.7Q97.9 95.5 97.9 95.1L97.9 95.1Q97.9 94.7 97.8 94.5Q97.6 94.2 97.3 94.1Q97.1 94.0 96.6 94.0L96.6 94.0L95.5 94.0ZM103.1 100L101.6 100L101.6 92.7L103.1 92.7L103.1 94.7L103.1 96.4Q103.1 96.3 103.1 96.3L103.1 96.3Q103.4 95.9 103.6 95.6Q103.9 95.2 104.2 94.8L104.2 94.8L106.0 92.7L107.8 92.7L105.1 95.9L107.9 100L106.1 100L104.1 96.9L103.1 97.9L103.1 100ZM112.5 100.1L112.5 100.1Q111.6 100.1 110.9 99.8Q110.3 99.6 109.9 99.0Q109.6 98.5 109.5 97.7L109.5 97.7L111.0 97.7Q111.0 98.1 111.2 98.4Q111.4 98.6 111.7 98.7Q112.0 98.8 112.4 98.8L112.4 98.8Q112.8 98.8 113.1 98.7Q113.4 98.6 113.6 98.4Q113.8 98.2 113.8 97.9L113.8 97.9Q113.8 97.7 113.6 97.5Q113.5 97.3 113.2 97.2Q112.9 97.1 112.5 97.0L112.5 97.0L111.7 96.8Q110.8 96.6 110.3 96.1Q109.7 95.6 109.7 94.8L109.7 94.8Q109.7 94.2 110.1 93.7Q110.5 93.2 111.1 92.9Q111.7 92.6 112.5 92.6L112.5 92.6Q113.3 92.6 113.9 92.9Q114.5 93.2 114.8 93.7Q115.2 94.2 115.2 94.8L115.2 94.8L113.7 94.8Q113.7 94.4 113.4 94.1Q113.0 93.9 112.5 93.9L112.5 93.9Q112.1 93.9 111.8 94.0Q111.6 94.1 111.4 94.3Q111.3 94.5 111.3 94.7L111.3 94.7Q111.3 95.0 111.4 95.2Q111.6 95.3 111.9 95.5Q112.1 95.6 112.4 95.6L112.4 95.6L113.1 95.8Q113.6 95.9 113.9 96.1Q114.3 96.3 114.6 96.5Q114.9 96.8 115.1 97.1Q115.3 97.5 115.3 97.9L115.3 97.9Q115.3 98.6 114.9 99.1Q114.6 99.6 114.0 99.8Q113.3 100.1 112.5 100.1Z "/></g><mask id="satori_om-id-2-1-1"><rect x="133" y="83" width="252" height="25" fill="#fff" mask="url(#satori_om-id)"/></mask><defs><clipPath id="satori_bc-id-2-1-1-0" clip-path="url(#satori_cp-id)"><path x="133" y="83" width="62" height="25" d="M143,83 h42 a10,10 0 0 1 10,10 v5 a10,10 0 0 1 -10,10 h-42 a10,10 0 0 1 -10,-10 v-5 a10,10 0 0 1 10,-10"/></clipPath></defs><mask id="satori_om-id-2-1-1-0"><rect x="134" y="84" width="60" height="23" fill="#fff" mask="url(#satori_om-id)"/><path width="62" height="25" fill="none" stroke="#000" stroke-width="2" d="M135.929,85.929 A10,10 0 0 1 143,83 h42 a10,10 0 0 1 10,10 v5 a10,10 0 0 1 -10,10 h-42 a10,10 0 0 1 -10,-10 v-5 A10,10 0 0 1 135.929,85.929"/></mask><path x="133" y="83" width="62" height="25" fill="rgba(255,255,255,0.04)" d="M143,83 h42 a10,10 0 0 1 10,10 v5 a10,10 0 0 1 -10,10 h-42 a10,10 0 0 1 -10,-10 v-5 a10,10 0 0 1 10,-10" clip-path="url(#satori_cp-id)" mask="url(#satori_om-id)"/><path width="62" height="25" clip-path="url(#satori_bc-id-2-1-1-0)" fill="none" stroke="rgba(255,255,255,0.08)" stroke-width="2" d="M135.929,85.929 A10,10 0 0 1 143,83 h42 a10,10 0 0 1 10,10 v5 a10,10 0 0 1 -10,10 h-42 a10,10 0 0 1 -10,-10 v-5 A10,10 0 0 1 135.929,85.929"/><g mask="url(#satori_om-id)" clip-path="url(#satori_cp-id)"><path fill="rgba(230,235,255,0.85)" d="M149.6 100L147.8 100L147.8 91.3L151.2 91.3Q152.2 91.3 152.9 91.6Q153.6 92.0 154.0 92.6Q154.3 93.3 154.3 94.1Q154.3 95.0 153.9 95.6Q153.6 96.2 152.9 96.5L152.9 96.5Q152.8 96.6 152.8 96.6L152.8 96.6L154.6 100L152.6 100L151.0 96.9L149.6 96.9L149.6 100ZM149.6 92.7L149.6 95.4L150.9 95.4Q151.4 95.4 151.8 95.3Q152.1 95.1 152.3 94.8Q152.5 94.5 152.5 94.1L152.5 94.1Q152.5 93.7 152.3 93.4Q152.1 93.1 151.8 92.9Q151.4 92.7 150.9 92.7L150.9 92.7L149.6 92.7ZM158.6 100.1L158.6 100.1Q157.6 100.1 156.9 99.7Q156.1 99.3 155.7 98.6Q155.4 97.8 155.4 96.8L155.4 96.8Q155.4 95.7 155.7 95.0Q156.1 94.2 156.8 93.8Q157.5 93.4 158.5 93.4L158.5 93.4Q159.1 93.4 159.7 93.6Q160.3 93.8 160.7 94.2Q161.1 94.6 161.3 95.2Q161.6 95.8 161.6 96.7L161.6 96.7L161.6 97.2L157.1 97.2Q157.1 97.7 157.3 98.0L157.3 98.0Q157.5 98.4 157.8 98.6Q158.2 98.8 158.6 98.8L158.6 98.8Q158.9 98.8 159.2 98.7Q159.4 98.6 159.6 98.5Q159.8 98.3 159.9 98.0L159.9 98.0L161.5 98.3Q161.3 98.9 160.9 99.3Q160.5 99.7 159.9 99.9Q159.4 100.1 158.6 100.1ZM157.1 96.1L157.1 96.1L159.9 96.1Q159.8 95.8 159.7 95.5L159.7 95.5Q159.6 95.1 159.3 94.9Q159.0 94.7 158.5 94.7L158.5 94.7Q158.1 94.7 157.7 94.9Q157.4 95.1 157.3 95.5L157.3 95.5Q157.1 95.7 157.1 96.1ZM164.6 100.1L164.6 100.1Q164.0 100.1 163.5 99.9Q163.0 99.7 162.7 99.3Q162.4 98.8 162.4 98.2L162.4 98.2Q162.4 97.6 162.6 97.3Q162.8 96.9 163.2 96.7Q163.5 96.4 164.0 96.3Q164.4 96.2 164.9 96.2L164.9 96.2Q165.5 96.1 165.8 96.0Q166.2 96.0 166.3 95.9Q166.5 95.8 166.5 95.6L166.5 95.6L166.5 95.5Q166.5 95.3 166.4 95.1Q166.3 94.9 166.0 94.8Q165.8 94.7 165.5 94.7L165.5 94.7Q165.1 94.7 164.9 94.8Q164.6 94.9 164.5 95.0Q164.3 95.2 164.2 95.4L164.2 95.4L162.6 95.2Q162.8 94.6 163.2 94.2Q163.6 93.8 164.2 93.6Q164.7 93.4 165.5 93.4L165.5 93.4Q166.0 93.4 166.5 93.5Q167.0 93.6 167.4 93.9Q167.8 94.1 168.0 94.6Q168.2 95.0 168.2 95.6L168.2 95.6L168.2 100L166.6 100L166.6 99.1L166.5 99.1Q166.4 99.4 166.1 99.6Q165.8 99.9 165.5 100.0Q165.1 100.1 164.6 100.1ZM165.1 98.9L165.1 98.9Q165.5 98.9 165.8 98.7Q166.1 98.6 166.3 98.3Q166.5 98.0 166.5 97.7L166.5 97.7L166.5 96.9Q166.4 97.0 166.3 97.1Q166.1 97.1 165.9 97.1Q165.7 97.2 165.5 97.2Q165.3 97.2 165.2 97.2L165.2 97.2Q164.9 97.3 164.6 97.4Q164.4 97.5 164.3 97.7Q164.1 97.8 164.1 98.1L164.1 98.1Q164.1 98.4 164.2 98.5Q164.4 98.7 164.6 98.8Q164.8 98.9 165.1 98.9ZM172.7 100.1L172.7 100.1Q171.7 100.1 171.0 99.7Q170.3 99.3 169.9 98.5Q169.5 97.8 169.5 96.8L169.5 96.8Q169.5 95.7 169.9 95.0Q170.3 94.2 171.0 93.8Q171.7 93.4 172.7 93.4L172.7 93.4Q173.3 93.4 173.7 93.5Q174.2 93.7 174.6 94.0Q175.0 94.2 175.2 94.6Q175.5 95.0 175.6 95.5L175.6 95.5L174.0 95.9Q173.9 95.6 173.8 95.4Q173.7 95.2 173.5 95.0Q173.4 94.9 173.2 94.8Q172.9 94.8 172.7 94.8L172.7 94.8Q172.2 94.8 171.9 95.0Q171.6 95.3 171.4 95.7Q171.3 96.2 171.3 96.7L171.3 96.7Q171.3 97.3 171.4 97.8Q171.6 98.2 171.9 98.5Q172.2 98.7 172.7 98.7L172.7 98.7Q172.9 98.7 173.2 98.7Q173.4 98.6 173.5 98.4Q173.7 98.3 173.8 98.1Q173.9 97.9 174.0 97.6L174.0 97.6L175.6 97.9Q175.5 98.4 175.3 98.8Q175.0 99.2 174.6 99.5Q174.3 99.8 173.8 100.0Q173.3 100.1 172.7 100.1ZM178.8 93.4L180.1 93.4L180.1 94.8L178.8 94.8L178.8 98.1Q178.8 98.4 179.0 98.5Q179.1 98.7 179.4 98.7L179.4 98.7Q179.5 98.7 179.7 98.7Q179.9 98.6 180.0 98.6L180.0 98.6L180.2 99.9Q179.9 100.0 179.7 100.1Q179.4 100.1 179.1 100.1L179.1 100.1Q178.1 100.1 177.6 99.6Q177.1 99.1 177.1 98.2L177.1 98.2L177.1 94.8L176.2 94.8L176.2 93.4L177.1 93.4L177.1 91.9L178.8 91.9L178.8 93.4Z "/></g><defs><clipPath id="satori_bc-id-2-1-1-1" clip-path="url(#satori_cp-id)"><path x="202" y="83" width="70" height="25" d="M212,83 h50 a10,10 0 0 1 10,10 v5 a10,10 0 0 1 -10,10 h-50 a10,10 0 0 1 -10,-10 v-5 a10,10 0 0 1 10,-10"/></clipPath></defs><mask id="satori_om-id-2-1-1-1"><rect x="203" y="84" width="68" height="23" fill="#fff" mask="url(#satori_om-id)"/><path width="70" height="25" fill="none" stroke="#000" stroke-width="2" d="M204.929,85.929 A10,10 0 0 1 212,83 h50 a10,10 0 0 1 10,10 v5 a10,10 0 0 1 -10,10 h-50 a10,10 0 0 1 -10,-10 v-5 A10,10 0 0 1 204.929,85.929"/></mask><path x="202" y="83" width="70" height="25" fill="rgba(255,255,255,0.04)" d="M212,83 h50 a10,10 0 0 1 10,10 v5 a10,10 0 0 1 -10,10 h-50 a10,10 0 0 1 -10,-10 v-5 a10,10 0 0 1 10,-10" clip-path="url(#satori_cp-id)" mask="url(#satori_om-id)"/><path width="70" height="25" clip-path="url(#satori_bc-id-2-1-1-1)" fill="none" stroke="rgba(255,255,255,0.08)" stroke-width="2" d="M204.929,85.929 A10,10 0 0 1 212,83 h50 a10,10 0 0 1 10,10 v5 a10,10 0 0 1 -10,10 h-50 a10,10 0 0 1 -10,-10 v-5 A10,10 0 0 1 204.929,85.929"/><g mask="url(#satori_om-id)" clip-path="url(#satori_cp-id)"><path fill="rgba(230,235,255,0.85)" d="M218.6 100L216.8 100L216.8 91.3L218.8 91.3L221.5 95.7Q221.8 96.0 222.0 96.4Q222.2 96.8 222.4 97.3L222.4 97.3Q222.5 97.6 222.6 97.8L222.6 97.8Q222.6 97.6 222.6 97.4L222.6 97.4Q222.6 96.8 222.6 96.3Q222.5 95.8 222.5 95.5L222.5 95.5L222.5 91.3L224.4 91.3L224.4 100L222.4 100L219.8 96.0Q219.6 95.5 219.3 95.1Q219.1 94.7 218.9 94.2L218.9 94.2Q218.7 93.9 218.5 93.5L218.5 93.5Q218.5 93.8 218.5 94.2L218.5 94.2Q218.6 94.7 218.6 95.2Q218.6 95.7 218.6 96.0L218.6 96.0L218.6 100ZM228.9 100.1L228.9 100.1Q227.9 100.1 227.1 99.7Q226.4 99.3 226.0 98.6Q225.6 97.8 225.6 96.8L225.6 96.8Q225.6 95.7 226.0 95.0Q226.4 94.2 227.1 93.8Q227.8 93.4 228.8 93.4L228.8 93.4Q229.4 93.4 230.0 93.6Q230.5 93.8 230.9 94.2Q231.4 94.6 231.6 95.2Q231.8 95.8 231.8 96.7L231.8 96.7L231.8 97.2L227.4 97.2Q227.4 97.7 227.6 98.0L227.6 98.0Q227.7 98.4 228.1 98.6Q228.4 98.8 228.9 98.8L228.9 98.8Q229.2 98.8 229.4 98.7Q229.7 98.6 229.9 98.5Q230.1 98.3 230.2 98.0L230.2 98.0L231.7 98.3Q231.6 98.9 231.2 99.3Q230.8 99.7 230.2 99.9Q229.6 100.1 228.9 100.1ZM227.4 96.1L227.4 96.1L230.2 96.1Q230.1 95.8 230.0 95.5L230.0 95.5Q229.9 95.1 229.5 94.9Q229.2 94.7 228.8 94.7L228.8 94.7Q228.3 94.7 228.0 94.9Q227.7 95.1 227.5 95.5L227.5 95.5Q227.4 95.7 227.4 96.1ZM234.4 100L232.5 100L234.7 96.6L232.7 93.4L234.6 93.4L235.2 94.5Q235.4 95.0 235.7 95.5L235.7 95.5Q235.7 95.6 235.8 95.8L235.8 95.8Q235.9 95.6 235.9 95.5L235.9 95.5Q236.1 95.0 236.4 94.5L236.4 94.5L237.1 93.4L238.9 93.4L236.9 96.7L239.0 100L237.1 100L236.4 98.8Q236.1 98.3 235.9 97.8L235.9 97.8Q235.8 97.6 235.8 97.5L235.8 97.5Q235.7 97.6 235.6 97.8L235.6 97.8Q235.4 98.3 235.1 98.8L235.1 98.8L234.4 100ZM242.0 93.4L243.3 93.4L243.3 94.8L242.0 94.8L242.0 98.1Q242.0 98.4 242.2 98.5Q242.3 98.7 242.6 98.7L242.6 98.7Q242.7 98.7 242.9 98.7Q243.1 98.6 243.2 98.6L243.2 98.6L243.4 99.9Q243.1 100.0 242.9 100.1Q242.6 100.1 242.3 100.1L242.3 100.1Q241.3 100.1 240.8 99.6Q240.3 99.1 240.3 98.2L240.3 98.2L240.3 94.8L239.4 94.8L239.4 93.4L240.3 93.4L240.3 91.9L242.0 91.9L242.0 93.4ZM245.7 100.1L245.7 100.1Q245.2 100.1 244.9 99.8Q244.6 99.5 244.6 99.1L244.6 99.1Q244.6 98.7 244.9 98.4Q245.2 98.1 245.7 98.1L245.7 98.1Q246.1 98.1 246.4 98.4Q246.7 98.7 246.7 99.1L246.7 99.1Q246.7 99.5 246.4 99.8Q246.1 100.1 245.7 100.1ZM248.4 100.3L248.4 93.4L250.2 93.4L250.2 100.3Q250.2 101.1 249.9 101.5Q249.6 102.0 249.0 102.2Q248.5 102.4 247.7 102.4L247.7 102.4L247.4 102.4L247.4 101.1L247.6 101.1Q248.0 101.1 248.2 100.9Q248.4 100.7 248.4 100.3L248.4 100.3ZM249.3 92.6L249.3 92.6Q248.9 92.6 248.6 92.3Q248.3 92.1 248.3 91.7L248.3 91.7Q248.3 91.3 248.6 91.1Q248.9 90.8 249.3 90.8L249.3 90.8Q249.7 90.8 250.0 91.0Q250.3 91.3 250.3 91.7L250.3 91.7Q250.3 92.1 250.0 92.3Q249.7 92.6 249.3 92.6ZM254.3 100.1L254.3 100.1Q253.5 100.1 252.9 99.9Q252.3 99.7 251.9 99.2Q251.5 98.8 251.4 98.2L251.4 98.2L253.0 97.9Q253.1 98.4 253.5 98.6Q253.8 98.8 254.3 98.8L254.3 98.8Q254.8 98.8 255.1 98.6Q255.4 98.5 255.4 98.2L255.4 98.2Q255.4 97.9 255.2 97.7Q255.0 97.6 254.6 97.5L254.6 97.5L253.4 97.3Q252.5 97.1 252.0 96.6Q251.5 96.1 251.5 95.4L251.5 95.4Q251.5 94.8 251.9 94.3Q252.2 93.9 252.8 93.6Q253.5 93.4 254.3 93.4L254.3 93.4Q255.1 93.4 255.6 93.6Q256.2 93.8 256.6 94.2Q256.9 94.6 257.0 95.1L257.0 95.1L255.5 95.4Q255.4 95.1 255.1 94.8Q254.8 94.6 254.3 94.6L254.3 94.6Q253.9 94.6 253.6 94.8Q253.3 95.0 253.3 95.3L253.3 95.3Q253.3 95.5 253.5 95.7Q253.7 95.9 254.1 96.0L254.1 96.0L255.3 96.2Q256.3 96.4 256.7 96.8Q257.2 97.3 257.2 98.0L257.2 98.0Q257.2 98.6 256.8 99.1Q256.4 99.6 255.8 99.9Q255.1 100.1 254.3 100.1Z "/></g><defs><clipPath id="satori_bc-id-2-1-1-2" clip-path="url(#satori_cp-id)"><path x="279" y="83" width="106" height="25" d="M289,83 h86 a10,10 0 0 1 10,10 v5 a10,10 0 0 1 -10,10 h-86 a10,10 0 0 1 -10,-10 v-5 a10,10 0 0 1 10,-10"/></clipPath></defs><mask id="satori_om-id-2-1-1-2"><rect x="280" y="84" width="104" height="23" fill="#fff" mask="url(#satori_om-id)"/><path width="106" height="25" fill="none" stroke="#000" stroke-width="2" d="M281.929,85.929 A10,10 0 0 1 289,83 h86 a10,10 0 0 1 10,10 v5 a10,10 0 0 1 -10,10 h-86 a10,10 0 0 1 -10,-10 v-5 A10,10 0 0 1 281.929,85.929"/></mask><path x="279" y="83" width="106" height="25" fill="rgba(255,255,255,0.04)" d="M289,83 h86 a10,10 0 0 1 10,10 v5 a10,10 0 0 1 -10,10 h-86 a10,10 0 0 1 -10,-10 v-5 a10,10 0 0 1 10,-10" clip-path="url(#satori_cp-id)" mask="url(#satori_om-id)"/><path width="106" height="25" clip-path="url(#satori_bc-id-2-1-1-2)" fill="none" stroke="rgba(255,255,255,0.08)" stroke-width="2" d="M281.929,85.929 A10,10 0 0 1 289,83 h86 a10,10 0 0 1 10,10 v5 a10,10 0 0 1 -10,10 h-86 a10,10 0 0 1 -10,-10 v-5 A10,10 0 0 1 281.929,85.929"/><g mask="url(#satori_om-id)" clip-path="url(#satori_cp-id)"><path fill="rgba(230,235,255,0.85)" d="M296.1 92.8L293.4 92.8L293.4 91.3L300.6 91.3L300.6 92.8L297.9 92.8L297.9 100L296.1 100L296.1 92.8ZM303.6 100.1L303.6 100.1Q303.0 100.1 302.5 99.9Q302.0 99.7 301.7 99.3Q301.4 98.8 301.4 98.2L301.4 98.2Q301.4 97.6 301.6 97.3Q301.8 96.9 302.2 96.7Q302.5 96.4 303.0 96.3Q303.4 96.2 303.9 96.2L303.9 96.2Q304.4 96.1 304.8 96.0Q305.1 96.0 305.3 95.9Q305.5 95.8 305.5 95.6L305.5 95.6L305.5 95.5Q305.5 95.3 305.4 95.1Q305.2 94.9 305.0 94.8Q304.8 94.7 304.4 94.7L304.4 94.7Q304.1 94.7 303.9 94.8Q303.6 94.9 303.4 95.0Q303.3 95.2 303.2 95.4L303.2 95.4L301.6 95.2Q301.8 94.6 302.2 94.2Q302.6 93.8 303.1 93.6Q303.7 93.4 304.4 93.4L304.4 93.4Q305.0 93.4 305.5 93.5Q306.0 93.6 306.4 93.9Q306.8 94.1 307.0 94.6Q307.2 95.0 307.2 95.6L307.2 95.6L307.2 100L305.6 100L305.6 99.1L305.5 99.1Q305.3 99.4 305.1 99.6Q304.8 99.9 304.4 100.0Q304.1 100.1 303.6 100.1ZM304.1 98.9L304.1 98.9Q304.5 98.9 304.8 98.7Q305.1 98.6 305.3 98.3Q305.5 98.0 305.5 97.7L305.5 97.7L305.5 96.9Q305.4 97.0 305.2 97.1Q305.1 97.1 304.9 97.1Q304.7 97.2 304.5 97.2Q304.3 97.2 304.2 97.2L304.2 97.2Q303.9 97.3 303.6 97.4Q303.4 97.5 303.2 97.7Q303.1 97.8 303.1 98.1L303.1 98.1Q303.1 98.4 303.2 98.5Q303.4 98.7 303.6 98.8Q303.8 98.9 304.1 98.9ZM310.5 100L308.7 100L308.7 93.4L310.5 93.4L310.5 100ZM309.6 92.6L309.6 92.6Q309.2 92.6 308.9 92.3Q308.6 92.1 308.6 91.7L308.6 91.7Q308.6 91.3 308.9 91.1Q309.2 90.8 309.6 90.8L309.6 90.8Q310.0 90.8 310.3 91.0Q310.6 91.3 310.6 91.7L310.6 91.7Q310.6 92.1 310.3 92.3Q310.0 92.6 309.6 92.6ZM312.0 91.3L313.7 91.3L313.7 100L312.0 100L312.0 91.3ZM318.4 100L316.6 100L314.7 93.4L316.5 93.4L317.1 95.9Q317.2 96.5 317.4 97.3L317.4 97.3Q317.5 97.8 317.6 98.4L317.6 98.4Q317.7 97.8 317.8 97.3L317.8 97.3Q318.0 96.5 318.2 95.9L318.2 95.9L318.8 93.4L320.4 93.4L321.0 95.9Q321.1 96.5 321.3 97.3L321.3 97.3Q321.4 97.8 321.5 98.4L321.5 98.4Q321.6 97.8 321.8 97.3L321.8 97.3Q321.9 96.5 322.1 95.9L322.1 95.9L322.6 93.4L324.5 93.4L322.6 100L320.8 100L320.0 97.5Q319.9 97.1 319.8 96.6Q319.7 96.2 319.6 95.7L319.6 95.7Q319.6 95.6 319.6 95.5L319.6 95.5Q319.6 95.6 319.5 95.7L319.5 95.7Q319.4 96.2 319.3 96.6Q319.2 97.1 319.1 97.5L319.1 97.5L318.4 100ZM327.2 100L325.4 100L325.4 93.4L327.2 93.4L327.2 100ZM326.3 92.6L326.3 92.6Q325.9 92.6 325.6 92.3Q325.3 92.1 325.3 91.7L325.3 91.7Q325.3 91.3 325.6 91.1Q325.9 90.8 326.3 90.8L326.3 90.8Q326.7 90.8 327.0 91.0Q327.3 91.3 327.3 91.7L327.3 91.7Q327.3 92.1 327.0 92.3Q326.7 92.6 326.3 92.6ZM330.4 96.2L330.4 96.2L330.4 100L328.7 100L328.7 93.4L330.3 93.4L330.4 94.8Q330.6 94.2 331.1 93.8L331.1 93.8Q331.6 93.4 332.4 93.4L332.4 93.4Q333.1 93.4 333.6 93.7Q334.1 94.0 334.4 94.5Q334.7 95.1 334.7 95.8L334.7 95.8L334.7 100L332.9 100L332.9 96.1Q332.9 95.5 332.6 95.2Q332.3 94.8 331.7 94.8L331.7 94.8Q331.3 94.8 331.1 95.0Q330.8 95.2 330.6 95.5Q330.4 95.8 330.4 96.2ZM338.5 100.1L338.5 100.1Q337.8 100.1 337.2 99.7Q336.6 99.3 336.2 98.6Q335.9 97.8 335.9 96.7L335.9 96.7Q335.9 95.6 336.2 94.9Q336.6 94.1 337.2 93.7Q337.8 93.4 338.5 93.4L338.5 93.4Q339.1 93.4 339.5 93.6Q339.8 93.7 340.1 94.0Q340.3 94.3 340.4 94.6L340.4 94.6L340.5 94.6L340.5 91.3L342.2 91.3L342.2 100L340.5 100L340.5 99.0L340.4 99.0Q340.3 99.2 340.1 99.5Q339.8 99.7 339.5 99.9Q339.1 100.1 338.5 100.1ZM339.1 98.7L339.1 98.7Q339.5 98.7 339.9 98.5Q340.2 98.2 340.3 97.8Q340.5 97.3 340.5 96.7L340.5 96.7Q340.5 96.1 340.3 95.7Q340.2 95.3 339.9 95.0Q339.5 94.8 339.1 94.8L339.1 94.8Q338.6 94.8 338.3 95.0Q338 95.3 337.8 95.7Q337.7 96.2 337.7 96.7L337.7 96.7Q337.7 97.3 337.8 97.8Q338.0 98.2 338.3 98.4Q338.6 98.7 339.1 98.7Z M350.4 100.1L350.4 100.1Q349.3 100.1 348.3 99.6Q347.4 99.1 346.9 98.1Q346.4 97.1 346.4 95.6L346.4 95.6Q346.4 94.2 346.9 93.2Q347.4 92.2 348.3 91.7Q349.3 91.2 350.4 91.2L350.4 91.2Q351.2 91.2 351.8 91.4Q352.4 91.6 352.9 92.0Q353.4 92.4 353.8 92.9Q354.1 93.5 354.2 94.3L354.2 94.3L352.4 94.3Q352.3 93.9 352.1 93.6Q352.0 93.3 351.7 93.1Q351.5 92.9 351.1 92.8Q350.8 92.7 350.5 92.7L350.5 92.7Q349.8 92.7 349.3 93.1Q348.7 93.4 348.5 94.1Q348.2 94.7 348.2 95.6L348.2 95.6Q348.2 96.6 348.5 97.2Q348.8 97.9 349.3 98.2Q349.8 98.5 350.4 98.5L350.4 98.5Q350.8 98.5 351.1 98.4Q351.5 98.3 351.7 98.1Q352.0 97.9 352.1 97.7Q352.3 97.4 352.4 97.0L352.4 97.0L354.2 97.0Q354.1 97.6 353.8 98.2Q353.5 98.7 353.0 99.2Q352.6 99.6 351.9 99.9Q351.2 100.1 350.4 100.1ZM358.7 100.1L358.7 100.1Q357.6 100.1 356.9 99.8Q356.1 99.5 355.6 98.9Q355.2 98.2 355.2 97.3L355.2 97.3L356.9 97.3Q357.0 97.7 357.2 98.0Q357.4 98.3 357.8 98.5Q358.2 98.6 358.7 98.6L358.7 98.6Q359.1 98.6 359.5 98.5Q359.8 98.3 360.0 98.1Q360.2 97.8 360.2 97.5L360.2 97.5Q360.2 97.2 360.1 97.0Q359.9 96.8 359.6 96.7Q359.2 96.5 358.7 96.4L358.7 96.4L357.8 96.2Q356.7 95.9 356.0 95.3Q355.4 94.7 355.4 93.8L355.4 93.8Q355.4 93.0 355.8 92.4Q356.3 91.8 357.0 91.5Q357.8 91.2 358.7 91.2L358.7 91.2Q359.7 91.2 360.4 91.5Q361.1 91.8 361.5 92.4Q361.9 93.0 361.9 93.8L361.9 93.8L360.2 93.8Q360.2 93.2 359.8 92.9Q359.4 92.7 358.7 92.7L358.7 92.7Q358.2 92.7 357.9 92.8Q357.6 92.9 357.4 93.1Q357.3 93.4 357.3 93.7L357.3 93.7Q357.3 94.0 357.4 94.2Q357.6 94.4 358.0 94.5Q358.3 94.7 358.6 94.8L358.6 94.8L359.4 95.0Q360.0 95.1 360.5 95.3Q360.9 95.5 361.3 95.8Q361.7 96.1 361.9 96.5Q362.0 97.0 362.0 97.5L362.0 97.5Q362.0 98.3 361.6 98.9Q361.3 99.5 360.5 99.8Q359.7 100.1 358.7 100.1ZM366.5 100.1L366.5 100.1Q365.5 100.1 364.7 99.8Q363.9 99.5 363.5 98.9Q363.1 98.2 363.0 97.3L363.0 97.3L364.8 97.3Q364.8 97.7 365.0 98.0Q365.3 98.3 365.7 98.5Q366.0 98.6 366.5 98.6L366.5 98.6Q367.0 98.6 367.4 98.5Q367.7 98.3 367.9 98.1Q368.1 97.8 368.1 97.5L368.1 97.5Q368.1 97.2 367.9 97.0Q367.7 96.8 367.4 96.7Q367.1 96.5 366.6 96.4L366.6 96.4L365.6 96.2Q364.5 95.9 363.9 95.3Q363.3 94.7 363.3 93.8L363.3 93.8Q363.3 93.0 363.7 92.4Q364.1 91.8 364.9 91.5Q365.6 91.2 366.6 91.2L366.6 91.2Q367.5 91.2 368.2 91.5Q369.0 91.8 369.4 92.4Q369.8 93.0 369.8 93.8L369.8 93.8L368.1 93.8Q368.0 93.2 367.6 92.9Q367.2 92.7 366.5 92.7L366.5 92.7Q366.1 92.7 365.8 92.8Q365.4 92.9 365.3 93.1Q365.1 93.4 365.1 93.7L365.1 93.7Q365.1 94.0 365.3 94.2Q365.5 94.4 365.8 94.5Q366.1 94.7 366.5 94.8L366.5 94.8L367.3 95.0Q367.8 95.1 368.3 95.3Q368.8 95.5 369.2 95.8Q369.5 96.1 369.7 96.5Q369.9 97.0 369.9 97.5L369.9 97.5Q369.9 98.3 369.5 98.9Q369.1 99.5 368.4 99.8Q367.6 100.1 366.5 100.1Z "/></g><mask id="satori_om-id-2-2"><rect x="33" y="122" width="794" height="25" fill="#fff" mask="url(#satori_om-id)"/></mask><mask id="satori_om-id-2-2-0"><rect x="33" y="129" width="84" height="12" fill="#fff" mask="url(#satori_om-id)"/></mask><g mask="url(#satori_om-id)" clip-path="url(#satori_cp-id)"><path fill="rgba(255,210,140,0.92)" d="M35.6 133.0L33.4 133.0L33.4 131.7L39.3 131.7L39.3 133.0L37.1 133.0L37.1 139L35.6 139L35.6 133.0ZM44.5 139.1L44.5 139.1Q43.6 139.1 42.8 138.7Q42.0 138.2 41.6 137.4Q41.1 136.5 41.1 135.4L41.1 135.4Q41.1 134.2 41.6 133.3Q42.0 132.5 42.8 132.1Q43.6 131.6 44.5 131.6L44.5 131.6Q45.5 131.6 46.3 132.1Q47.0 132.5 47.5 133.3Q47.9 134.2 47.9 135.4L47.9 135.4Q47.9 136.5 47.5 137.4Q47.0 138.2 46.3 138.7Q45.5 139.1 44.5 139.1ZM44.5 137.8L44.5 137.8Q45.1 137.8 45.5 137.5Q45.9 137.2 46.2 136.7Q46.4 136.1 46.4 135.4L46.4 135.4Q46.4 134.6 46.2 134.0Q45.9 133.5 45.5 133.2Q45.1 133.0 44.5 133.0L44.5 133.0Q44.0 133.0 43.5 133.2Q43.1 133.5 42.9 134.0Q42.6 134.6 42.6 135.4L42.6 135.4Q42.6 136.1 42.9 136.7Q43.1 137.2 43.5 137.5Q44.0 137.8 44.5 137.8ZM53.2 139.1L53.2 139.1Q52.3 139.1 51.5 138.7Q50.7 138.2 50.3 137.4Q49.8 136.5 49.8 135.4L49.8 135.4Q49.8 134.2 50.3 133.3Q50.7 132.5 51.5 132.1Q52.3 131.6 53.2 131.6L53.2 131.6Q54.2 131.6 55.0 132.1Q55.7 132.5 56.2 133.3Q56.6 134.2 56.6 135.4L56.6 135.4Q56.6 136.5 56.2 137.4Q55.7 138.2 55.0 138.7Q54.2 139.1 53.2 139.1ZM53.2 137.8L53.2 137.8Q53.8 137.8 54.2 137.5Q54.6 137.2 54.9 136.7Q55.1 136.1 55.1 135.4L55.1 135.4Q55.1 134.6 54.9 134.0Q54.6 133.5 54.2 133.2Q53.8 133.0 53.2 133.0L53.2 133.0Q52.7 133.0 52.2 133.2Q51.8 133.5 51.6 134.0Q51.4 134.6 51.4 135.4L51.4 135.4Q51.4 136.1 51.6 136.7Q51.8 137.2 52.2 137.5Q52.7 137.8 53.2 137.8ZM63.4 139L58.7 139L58.7 131.7L60.2 131.7L60.2 137.8L63.4 137.8L63.4 139ZM68.1 139.1L68.1 139.1Q67.2 139.1 66.5 138.8Q65.9 138.6 65.5 138.0Q65.2 137.5 65.2 136.7L65.2 136.7L66.6 136.7Q66.6 137.1 66.8 137.4Q67.0 137.6 67.3 137.7Q67.6 137.8 68.0 137.8L68.0 137.8Q68.5 137.8 68.7 137.7Q69.0 137.6 69.2 137.4Q69.4 137.2 69.4 136.9L69.4 136.9Q69.4 136.7 69.2 136.5Q69.1 136.3 68.8 136.2Q68.5 136.1 68.1 136.0L68.1 136.0L67.3 135.8Q66.4 135.6 65.9 135.1Q65.3 134.6 65.3 133.8L65.3 133.8Q65.3 133.2 65.7 132.7Q66.1 132.2 66.7 131.9Q67.3 131.6 68.1 131.6L68.1 131.6Q68.9 131.6 69.5 131.9Q70.1 132.2 70.4 132.7Q70.8 133.2 70.8 133.8L70.8 133.8L69.3 133.8Q69.3 133.4 69.0 133.1Q68.6 132.9 68.1 132.9L68.1 132.9Q67.7 132.9 67.4 133.0Q67.2 133.1 67.0 133.3Q66.9 133.5 66.9 133.7L66.9 133.7Q66.9 134.0 67.0 134.2Q67.2 134.3 67.5 134.5Q67.7 134.6 68.0 134.6L68.0 134.6L68.7 134.8Q69.2 134.9 69.6 135.1Q69.9 135.3 70.2 135.5Q70.5 135.8 70.7 136.1Q70.9 136.5 70.9 136.9L70.9 136.9Q70.9 137.6 70.5 138.1Q70.2 138.6 69.6 138.8Q68.9 139.1 68.1 139.1Z "/></g><mask id="satori_om-id-2-2-1"><rect x="133" y="122" width="190" height="25" fill="#fff" mask="url(#satori_om-id)"/></mask><defs><clipPath id="satori_bc-id-2-2-1-0" clip-path="url(#satori_cp-id)"><path x="133" y="122" width="45" height="25" d="M143,122 h25 a10,10 0 0 1 10,10 v5 a10,10 0 0 1 -10,10 h-25 a10,10 0 0 1 -10,-10 v-5 a10,10 0 0 1 10,-10"/></clipPath></defs><mask id="satori_om-id-2-2-1-0"><rect x="134" y="123" width="43" height="23" fill="#fff" mask="url(#satori_om-id)"/><path width="45" height="25" fill="none" stroke="#000" stroke-width="2" d="M135.929,124.929 A10,10 0 0 1 143,122 h25 a10,10 0 0 1 10,10 v5 a10,10 0 0 1 -10,10 h-25 a10,10 0 0 1 -10,-10 v-5 A10,10 0 0 1 135.929,124.929"/></mask><path x="133" y="122" width="45" height="25" fill="rgba(255,255,255,0.04)" d="M143,122 h25 a10,10 0 0 1 10,10 v5 a10,10 0 0 1 -10,10 h-25 a10,10 0 0 1 -10,-10 v-5 a10,10 0 0 1 10,-10" clip-path="url(#satori_cp-id)" mask="url(#satori_om-id)"/><path width="45" height="25" clip-path="url(#satori_bc-id-2-2-1-0)" fill="none" stroke="rgba(255,255,255,0.08)" stroke-width="2" d="M135.929,124.929 A10,10 0 0 1 143,122 h25 a10,10 0 0 1 10,10 v5 a10,10 0 0 1 -10,10 h-25 a10,10 0 0 1 -10,-10 v-5 A10,10 0 0 1 135.929,124.929"/><g mask="url(#satori_om-id)" clip-path="url(#satori_cp-id)"><path fill="rgba(230,235,255,0.85)" d="M151.7 139.1L151.7 139.1Q150.4 139.1 149.5 138.6Q148.6 138.0 148.1 137.0Q147.6 136.0 147.6 134.6L147.6 134.6Q147.6 133.2 148.1 132.2Q148.6 131.2 149.5 130.7Q150.5 130.2 151.6 130.2L151.6 130.2Q152.4 130.2 153.0 130.4Q153.6 130.6 154.1 131.0Q154.6 131.4 154.9 131.9Q155.2 132.4 155.3 133.1L155.3 133.1L153.5 133.1Q153.4 132.8 153.3 132.5Q153.1 132.3 152.9 132.1Q152.6 131.9 152.3 131.8Q152.0 131.7 151.6 131.7L151.6 131.7Q151.0 131.7 150.5 132.1Q149.9 132.4 149.7 133.1Q149.4 133.7 149.4 134.6Q149.4 135.6 149.7 136.2Q149.9 136.8 150.5 137.2Q151.0 137.5 151.7 137.5L151.7 137.5Q152.3 137.5 152.8 137.3Q153.2 137.1 153.5 136.6L153.5 136.6Q153.7 136.2 153.7 135.7L153.7 135.7L151.8 135.7L151.8 134.3L155.4 134.3L155.4 135.4Q155.4 136.6 154.9 137.4Q154.5 138.2 153.6 138.7Q152.8 139.1 151.7 139.1ZM158.5 139L156.8 139L156.8 132.4L158.5 132.4L158.5 139ZM157.6 131.6L157.6 131.6Q157.2 131.6 157.0 131.3Q156.7 131.1 156.7 130.7L156.7 130.7Q156.7 130.3 157.0 130.1Q157.2 129.8 157.6 129.8L157.6 129.8Q158.0 129.8 158.3 130.0Q158.6 130.3 158.6 130.7L158.6 130.7Q158.6 131.1 158.3 131.3Q158.0 131.6 157.6 131.6ZM162.0 132.4L163.3 132.4L163.3 133.8L162.0 133.8L162.0 137.1Q162.0 137.4 162.2 137.5Q162.3 137.7 162.6 137.7L162.6 137.7Q162.7 137.7 162.9 137.7Q163.1 137.6 163.2 137.6L163.2 137.6L163.4 138.9Q163.1 139.0 162.9 139.1Q162.6 139.1 162.3 139.1L162.3 139.1Q161.3 139.1 160.8 138.6Q160.3 138.1 160.3 137.2L160.3 137.2L160.3 133.8L159.4 133.8L159.4 132.4L160.3 132.4L160.3 130.9L162.0 130.9L162.0 132.4Z "/></g><defs><clipPath id="satori_bc-id-2-2-1-1" clip-path="url(#satori_cp-id)"><path x="185" y="122" width="71" height="25" d="M195,122 h51 a10,10 0 0 1 10,10 v5 a10,10 0 0 1 -10,10 h-51 a10,10 0 0 1 -10,-10 v-5 a10,10 0 0 1 10,-10"/></clipPath></defs><mask id="satori_om-id-2-2-1-1"><rect x="186" y="123" width="69" height="23" fill="#fff" mask="url(#satori_om-id)"/><path width="71" height="25" fill="none" stroke="#000" stroke-width="2" d="M187.929,124.929 A10,10 0 0 1 195,122 h51 a10,10 0 0 1 10,10 v5 a10,10 0 0 1 -10,10 h-51 a10,10 0 0 1 -10,-10 v-5 A10,10 0 0 1 187.929,124.929"/></mask><path x="185" y="122" width="71" height="25" fill="rgba(255,255,255,0.04)" d="M195,122 h51 a10,10 0 0 1 10,10 v5 a10,10 0 0 1 -10,10 h-51 a10,10 0 0 1 -10,-10 v-5 a10,10 0 0 1 10,-10" clip-path="url(#satori_cp-id)" mask="url(#satori_om-id)"/><path width="71" height="25" clip-path="url(#satori_bc-id-2-2-1-1)" fill="none" stroke="rgba(255,255,255,0.08)" stroke-width="2" d="M187.929,124.929 A10,10 0 0 1 195,122 h51 a10,10 0 0 1 10,10 v5 a10,10 0 0 1 -10,10 h-51 a10,10 0 0 1 -10,-10 v-5 A10,10 0 0 1 187.929,124.929"/><g mask="url(#satori_om-id)" clip-path="url(#satori_cp-id)"><path fill="rgba(230,235,255,0.85)" d="M202.9 139L202.9 139L199.8 139L199.8 130.3L202.9 130.3Q204.2 130.3 205.1 130.8Q206.1 131.3 206.6 132.3Q207.1 133.3 207.1 134.6L207.1 134.6Q207.1 136.0 206.6 137.0Q206.1 138.0 205.1 138.5Q204.2 139 202.9 139ZM201.6 131.8L201.6 137.5L202.8 137.5Q203.6 137.5 204.2 137.2Q204.8 136.9 205.0 136.2Q205.3 135.6 205.3 134.6L205.3 134.6Q205.3 133.7 205.0 133.0Q204.8 132.4 204.2 132.1Q203.6 131.8 202.8 131.8L202.8 131.8L201.6 131.8ZM211.3 139.1L211.3 139.1Q210.4 139.1 209.6 138.7Q208.9 138.3 208.5 137.5Q208.1 136.8 208.1 135.8L208.1 135.8Q208.1 134.7 208.5 134.0Q208.9 133.2 209.6 132.8Q210.4 132.4 211.3 132.4L211.3 132.4Q212.3 132.4 213.1 132.8Q213.8 133.2 214.2 134.0Q214.6 134.7 214.6 135.8L214.6 135.8Q214.6 136.8 214.2 137.5Q213.8 138.3 213.1 138.7Q212.3 139.1 211.3 139.1ZM211.3 137.7L211.3 137.7Q211.8 137.7 212.1 137.5Q212.4 137.2 212.6 136.8Q212.8 136.3 212.8 135.7L212.8 135.7Q212.8 135.2 212.6 134.7Q212.4 134.3 212.1 134.0Q211.8 133.8 211.3 133.8L211.3 133.8Q210.9 133.8 210.6 134.0Q210.3 134.3 210.1 134.7Q209.9 135.2 209.9 135.7L209.9 135.7Q209.9 136.3 210.1 136.8Q210.3 137.2 210.6 137.5Q210.9 137.7 211.3 137.7ZM218.7 139.1L218.7 139.1Q217.7 139.1 217.0 138.7Q216.3 138.3 215.9 137.5Q215.5 136.8 215.5 135.8L215.5 135.8Q215.5 134.7 215.9 134.0Q216.3 133.2 217.0 132.8Q217.7 132.4 218.7 132.4L218.7 132.4Q219.3 132.4 219.8 132.5Q220.3 132.7 220.7 133.0Q221.0 133.2 221.3 133.6Q221.5 134.0 221.6 134.5L221.6 134.5L220.0 134.9Q219.9 134.6 219.8 134.4Q219.7 134.2 219.5 134.0Q219.4 133.9 219.2 133.8Q219.0 133.8 218.7 133.8L218.7 133.8Q218.3 133.8 217.9 134.0Q217.6 134.3 217.5 134.7Q217.3 135.2 217.3 135.7L217.3 135.7Q217.3 136.3 217.5 136.8Q217.6 137.2 217.9 137.5Q218.3 137.7 218.7 137.7L218.7 137.7Q219.0 137.7 219.2 137.7Q219.4 137.6 219.6 137.4Q219.7 137.3 219.8 137.1Q219.9 136.9 220.0 136.6L220.0 136.6L221.6 136.9Q221.5 137.4 221.3 137.8Q221.0 138.2 220.7 138.5Q220.3 138.8 219.8 139.0Q219.3 139.1 218.7 139.1ZM224.6 139L222.8 139L222.8 130.3L224.6 130.3L224.6 135.0L224.7 135.0L226.8 132.4L228.9 132.4L226.4 135.3L229.0 139L226.9 139L225.1 136.3L224.6 136.9L224.6 139ZM232.8 139.1L232.8 139.1Q231.8 139.1 231.0 138.7Q230.3 138.3 229.9 137.6Q229.5 136.8 229.5 135.8L229.5 135.8Q229.5 134.7 229.9 134.0Q230.3 133.2 231.0 132.8Q231.7 132.4 232.7 132.4L232.7 132.4Q233.3 132.4 233.9 132.6Q234.4 132.8 234.8 133.2Q235.3 133.6 235.5 134.2Q235.7 134.8 235.7 135.7L235.7 135.7L235.7 136.2L231.3 136.2Q231.3 136.7 231.5 137.0L231.5 137.0Q231.6 137.4 232.0 137.6Q232.3 137.8 232.8 137.8L232.8 137.8Q233.1 137.8 233.3 137.7Q233.6 137.6 233.8 137.5Q234.0 137.3 234.1 137.0L234.1 137.0L235.6 137.3Q235.5 137.9 235.1 138.3Q234.7 138.7 234.1 138.9Q233.5 139.1 232.8 139.1ZM231.3 135.1L231.3 135.1L234.1 135.1Q234.0 134.8 233.9 134.5L233.9 134.5Q233.8 134.1 233.4 133.9Q233.1 133.7 232.7 133.7L232.7 133.7Q232.2 133.7 231.9 133.9Q231.6 134.1 231.4 134.5L231.4 134.5Q231.3 134.7 231.3 135.1ZM238.7 139L236.9 139L236.9 132.4L238.6 132.4L238.6 133.6L238.7 133.6Q238.9 133.0 239.3 132.7Q239.7 132.4 240.3 132.4L240.3 132.4Q240.4 132.4 240.6 132.4Q240.7 132.4 240.9 132.4L240.9 132.4L240.9 134.0Q240.7 133.9 240.5 133.9Q240.3 133.9 240.1 133.9L240.1 133.9Q239.7 133.9 239.4 134.1Q239.1 134.2 238.9 134.6Q238.7 134.9 238.7 135.3L238.7 135.3L238.7 139Z "/></g><defs><clipPath id="satori_bc-id-2-2-1-2" clip-path="url(#satori_cp-id)"><path x="263" y="122" width="60" height="25" d="M273,122 h40 a10,10 0 0 1 10,10 v5 a10,10 0 0 1 -10,10 h-40 a10,10 0 0 1 -10,-10 v-5 a10,10 0 0 1 10,-10"/></clipPath></defs><mask id="satori_om-id-2-2-1-2"><rect x="264" y="123" width="58" height="23" fill="#fff" mask="url(#satori_om-id)"/><path width="60" height="25" fill="none" stroke="#000" stroke-width="2" d="M265.929,124.929 A10,10 0 0 1 273,122 h40 a10,10 0 0 1 10,10 v5 a10,10 0 0 1 -10,10 h-40 a10,10 0 0 1 -10,-10 v-5 A10,10 0 0 1 265.929,124.929"/></mask><path x="263" y="122" width="60" height="25" fill="rgba(255,255,255,0.04)" d="M273,122 h40 a10,10 0 0 1 10,10 v5 a10,10 0 0 1 -10,10 h-40 a10,10 0 0 1 -10,-10 v-5 a10,10 0 0 1 10,-10" clip-path="url(#satori_cp-id)" mask="url(#satori_om-id)"/><path width="60" height="25" clip-path="url(#satori_bc-id-2-2-1-2)" fill="none" stroke="rgba(255,255,255,0.08)" stroke-width="2" d="M265.929,124.929 A10,10 0 0 1 273,122 h40 a10,10 0 0 1 10,10 v5 a10,10 0 0 1 -10,10 h-40 a10,10 0 0 1 -10,-10 v-5 A10,10 0 0 1 265.929,124.929"/><g mask="url(#satori_om-id)" clip-path="url(#satori_cp-id)"><path fill="rgba(230,235,255,0.85)" d="M283.3 139L277.8 139L277.8 130.3L279.6 130.3L279.6 137.5L283.3 137.5L283.3 139ZM286.3 139L284.5 139L284.5 132.4L286.3 132.4L286.3 139ZM285.4 131.6L285.4 131.6Q285.0 131.6 284.7 131.3Q284.5 131.1 284.5 130.7L284.5 130.7Q284.5 130.3 284.7 130.1Q285.0 129.8 285.4 129.8L285.4 129.8Q285.8 129.8 286.1 130.0Q286.4 130.3 286.4 130.7L286.4 130.7Q286.4 131.1 286.1 131.3Q285.8 131.6 285.4 131.6ZM289.5 135.2L289.5 135.2L289.5 139L287.8 139L287.8 132.4L289.4 132.4L289.5 133.8Q289.7 133.2 290.2 132.8L290.2 132.8Q290.7 132.4 291.5 132.4L291.5 132.4Q292.2 132.4 292.7 132.7Q293.2 133.0 293.5 133.5Q293.8 134.1 293.8 134.8L293.8 134.8L293.8 139L292 139L292 135.1Q292 134.5 291.7 134.2Q291.4 133.8 290.8 133.8L290.8 133.8Q290.4 133.8 290.2 134.0Q289.9 134.2 289.7 134.5Q289.5 134.8 289.5 135.2ZM297.5 139.1L297.5 139.1Q296.8 139.1 296.3 138.8Q295.8 138.5 295.5 137.9Q295.3 137.4 295.3 136.6L295.3 136.6L295.3 132.4L297.0 132.4L297.0 136.3Q297.0 136.9 297.3 137.3Q297.6 137.6 298.2 137.6L298.2 137.6Q298.6 137.6 298.9 137.5Q299.1 137.3 299.3 137.0Q299.5 136.7 299.5 136.2L299.5 136.2L299.5 132.4L301.2 132.4L301.2 139L299.6 139L299.6 137.6Q299.3 138.3 298.9 138.6L298.9 138.6Q298.3 139.1 297.5 139.1ZM304.1 139L302.2 139L304.3 135.6L302.4 132.4L304.3 132.4L304.8 133.5Q305.1 134.0 305.4 134.5L305.4 134.5Q305.4 134.6 305.5 134.8L305.5 134.8Q305.5 134.6 305.6 134.5L305.6 134.5Q305.8 134.0 306.1 133.5L306.1 133.5L306.7 132.4L308.6 132.4L306.6 135.7L308.7 139L306.8 139L306.1 137.8Q305.8 137.3 305.6 136.8L305.6 136.8Q305.5 136.6 305.4 136.5L305.4 136.5Q305.4 136.6 305.3 136.8L305.3 136.8Q305.1 137.3 304.8 137.8L304.8 137.8L304.1 139Z "/></g></svg>