<!-- Generated by readme-aura https://github.com/collectioneur/readme-aura -->
<svg width="160" height="44" viewBox="0 0 160 44" xmlns="http://www.w3.org/2000/svg"><defs><clipPath id="satori_bc-id"><path x="0" y="0" width="160" height="44" d="M22,0 h116 a22,22 0 0 1 22,22 v0 a22,22 0 0 1 -22,22 h-116 a22,22 0 0 1 -22,-22 v0 a22,22 0 0 1 22,-22"/></clipPath></defs><mask id="satori_om-id"><rect x="1" y="1" width="158" height="42" fill="#fff"/><path width="160" height="44" fill="none" stroke="#000" stroke-width="2" d="M6.444000000000001,6.444000000000001 A22,22 0 0 1 22,0 h116 a22,22 0 0 1 22,22 v0 a22,22 0 0 1 -22,22 h-116 a22,22 0 0 1 -22,-22 v0 A22,22 0 0 1 6.444000000000001,6.444000000000001"/></mask><path x="0" y="0" width="160" height="44" fill="#0d0d0d" d="M22,0 h116 a22,22 0 0 1 22,22 v0 a22,22 0 0 1 -22,22 h-116 a22,22 0 0 1 -22,-22 v0 a22,22 0 0 1 22,-22"/><path width="160" height="44" clip-path="url(#satori_bc-id)" fill="none" stroke="rgba(29,161,242,0.45)" stroke-width="2" d="M6.444000000000001,6.444000000000001 A22,22 0 0 1 22,0 h116 a22,22 0 0 1 22,22 v0 a22,22 0 0 1 -22,22 h-116 a22,22 0 0 1 -22,-22 v0 A22,22 0 0 1 6.444000000000001,6.444000000000001"/><clipPath id="satori_cp-id-0"><rect x="37" y="16" width="13" height="13"/></clipPath><mask id="satori_om-id-0"><rect x="37" y="16" width="13" height="13" fill="#fff"/></mask><svg x="37" y="16" width="13" height="13" preserveAspectRatio="none" clip-path="url(#satori_cp-id-0)" mask="url(#satori_om-id-0)"><path d="M18.244 2.25h3.308l-7.227 8.26 8.502 11.24H16.17l-4.714-6.231-5.401 6.231H2.744l7.73-8.835L1.254 2.25H8.08l4.261 5.635 5.903-5.635zm-1.161 17.52h1.833L7.084 4.126H5.117z"></path></svg><mask id="satori_om-id-0-0"><rect x="37" y="16" width="0" height="13" fill="#fff"/></mask><mask id="satori_om-id-1"><rect x="57" y="14" width="67" height="16" fill="#fff"/></mask><g  ><path fill="rgba(29,161,242,0.90)" d="M60.4 19.1L57.5 19.1L57.5 17.5L65.2 17.5L65.2 19.1L62.3 19.1L62.3 27L60.4 27L60.4 19.1ZM69.9 27L68.0 27L65.9 19.9L67.9 19.9L68.5 22.5Q68.6 23.2 68.8 24.1L68.8 24.1Q69.0 24.6 69.1 25.3L69.1 25.3Q69.2 24.6 69.3 24.1L69.3 24.1Q69.5 23.2 69.7 22.5L69.7 22.5L70.3 19.9L72.1 19.9L72.7 22.5Q72.9 23.2 73.1 24.1L73.1 24.1Q73.2 24.6 73.3 25.3L73.3 25.3Q73.4 24.6 73.6 24.1L73.6 24.1Q73.7 23.2 73.9 22.5L73.9 22.5L74.5 19.9L76.5 19.9L74.4 27L72.5 27L71.7 24.3Q71.6 23.9 71.5 23.4Q71.4 22.9 71.3 22.3L71.3 22.3Q71.2 22.2 71.2 22.1L71.2 22.1Q71.2 22.2 71.1 22.3L71.1 22.3Q71.0 22.9 70.9 23.4Q70.8 23.9 70.7 24.3L70.7 24.3L69.9 27ZM79.4 27L77.5 27L77.5 19.9L79.4 19.9L79.4 27ZM78.5 19.0L78.5 19.0Q78.1 19.0 77.8 18.7Q77.5 18.4 77.5 18.0L77.5 18.0Q77.5 17.6 77.8 17.3Q78.1 17.0 78.5 17.0L78.5 17.0Q78.9 17.0 79.2 17.3Q79.5 17.6 79.5 18.0L79.5 18.0Q79.5 18.4 79.2 18.7Q78.9 19.0 78.5 19.0ZM83.3 19.9L84.6 19.9L84.6 21.4L83.3 21.4L83.3 24.9Q83.3 25.3 83.4 25.4Q83.6 25.6 83.9 25.6L83.9 25.6Q84.0 25.6 84.2 25.6Q84.4 25.5 84.5 25.5L84.5 25.5L84.8 26.9Q84.5 27.0 84.2 27.1Q83.8 27.1 83.6 27.1L83.6 27.1Q82.5 27.1 81.9 26.6Q81.4 26.1 81.4 25.1L81.4 25.1L81.4 21.4L80.4 21.4L80.4 19.9L81.4 19.9L81.4 18.2L83.3 18.2L83.3 19.9ZM88.0 19.9L89.3 19.9L89.3 21.4L88.0 21.4L88.0 24.9Q88.0 25.3 88.2 25.4Q88.3 25.6 88.7 25.6L88.7 25.6Q88.8 25.6 89.0 25.6Q89.2 25.5 89.3 25.5L89.3 25.5L89.5 26.9Q89.2 27.0 88.9 27.1Q88.6 27.1 88.3 27.1L88.3 27.1Q87.2 27.1 86.7 26.6Q86.1 26.1 86.1 25.1L86.1 25.1L86.1 21.4L85.1 21.4L85.1 19.9L86.1 19.9L86.1 18.2L88.0 18.2L88.0 19.9ZM93.8 27.1L93.8 27.1Q92.7 27.1 91.9 26.7Q91.1 26.3 90.7 25.4Q90.3 24.6 90.3 23.5L90.3 23.5Q90.3 22.4 90.7 21.6Q91.1 20.7 91.9 20.3Q92.7 19.8 93.7 19.8L93.7 19.8Q94.4 19.8 95.0 20.0Q95.6 20.3 96.1 20.7Q96.5 21.2 96.8 21.8Q97.0 22.5 97.0 23.4L97.0 23.4L97.0 23.9L92.2 23.9Q92.2 24.5 92.4 24.9L92.4 24.9Q92.6 25.3 93.0 25.5Q93.3 25.7 93.8 25.7L93.8 25.7Q94.2 25.7 94.4 25.6Q94.7 25.5 94.9 25.3Q95.1 25.1 95.2 24.9L95.2 24.9L96.9 25.2Q96.7 25.8 96.3 26.2Q95.9 26.7 95.3 26.9Q94.6 27.1 93.8 27.1ZM92.2 22.8L92.2 22.8L95.2 22.8Q95.2 22.4 95.0 22.1L95.0 22.1Q94.9 21.7 94.5 21.5Q94.2 21.2 93.7 21.2L93.7 21.2Q93.2 21.2 92.9 21.5Q92.5 21.7 92.4 22.1L92.4 22.1Q92.2 22.4 92.2 22.8ZM100.2 27L98.3 27L98.3 19.9L100.2 19.9L100.2 21.1L100.2 21.1Q100.4 20.5 100.9 20.1Q101.4 19.8 102.0 19.8L102.0 19.8Q102.1 19.8 102.3 19.8Q102.4 19.8 102.6 19.9L102.6 19.9L102.6 21.6Q102.4 21.5 102.2 21.5Q102.0 21.5 101.8 21.5L101.8 21.5Q101.3 21.5 101.0 21.7Q100.6 21.9 100.4 22.2Q100.2 22.5 100.2 23.0L100.2 23.0L100.2 27Z M109.1 17.1L110.8 17.1L107.7 28.4L106.1 28.4L109.1 17.1Z M116.6 27L114.3 27L117.7 22.2L114.6 17.5L116.9 17.5L117.9 19.1Q118.2 19.6 118.4 19.9Q118.6 20.3 118.8 20.6L118.8 20.6Q118.8 20.7 118.8 20.8L118.8 20.8Q118.9 20.7 118.9 20.6L118.9 20.6Q119.1 20.3 119.3 19.9Q119.5 19.6 119.8 19.1L119.8 19.1L120.8 17.5L123.0 17.5L119.9 22.1L123.3 27L121.0 27L119.7 25.0Q119.4 24.6 119.3 24.3Q119.1 24.1 119.0 23.8L119.0 23.8Q118.9 23.7 118.8 23.5L118.8 23.5Q118.7 23.7 118.7 23.8L118.7 23.8Q118.5 24.1 118.4 24.3Q118.2 24.6 117.9 25.0L117.9 25.0L116.6 27Z "/></g></svg>