<!-- Generated by readme-aura https://github.com/collectioneur/readme-aura -->
<svg width="110" height="44" viewBox="0 0 110 44" xmlns="http://www.w3.org/2000/svg"><defs><clipPath id="satori_bc-id"><path x="0" y="0" width="110" height="44" d="M22,0 h66 a22,22 0 0 1 22,22 v0 a22,22 0 0 1 -22,22 h-66 a22,22 0 0 1 -22,-22 v0 a22,22 0 0 1 22,-22"/></clipPath></defs><mask id="satori_om-id"><rect x="1" y="1" width="108" height="42" fill="#fff"/><path width="110" height="44" fill="none" stroke="#000" stroke-width="2" d="M6.444000000000001,6.444000000000001 A22,22 0 0 1 22,0 h66 a22,22 0 0 1 22,22 v0 a22,22 0 0 1 -22,22 h-66 a22,22 0 0 1 -22,-22 v0 A22,22 0 0 1 6.444000000000001,6.444000000000001"/></mask><path x="0" y="0" width="110" height="44" fill="#0f0f0f" d="M22,0 h66 a22,22 0 0 1 22,22 v0 a22,22 0 0 1 -22,22 h-66 a22,22 0 0 1 -22,-22 v0 a22,22 0 0 1 22,-22"/><path width="110" height="44" clip-path="url(#satori_bc-id)" fill="none" stroke="rgba(234,67,53,0.5)" stroke-width="2" d="M6.444000000000001,6.444000000000001 A22,22 0 0 1 22,0 h66 a22,22 0 0 1 22,22 v0 a22,22 0 0 1 -22,22 h-66 a22,22 0 0 1 -22,-22 v0 A22,22 0 0 1 6.444000000000001,6.444000000000001"/><mask id="satori_om-id-0"><rect x="37" y="14" width="37" height="16" fill="#fff"/></mask><g  ><path fill="#e0e0e0" d="M42.0 27.1L42.0 27.1Q40.7 27.1 39.7 26.5Q38.7 26.0 38.2 24.9Q37.6 23.8 37.6 22.3L37.6 22.3Q37.6 20.7 38.2 19.7Q38.8 18.6 39.8 18.0Q40.8 17.4 42.0 17.4L42.0 17.4Q42.8 17.4 43.5 17.6Q44.2 17.9 44.7 18.3Q45.3 18.7 45.6 19.3Q45.9 19.9 46.0 20.6L46.0 20.6L44.1 20.6Q44.0 20.3 43.8 20.0Q43.6 19.7 43.3 19.5Q43.1 19.3 42.8 19.2Q42.4 19.1 42.0 19.1L42.0 19.1Q41.3 19.1 40.7 19.5Q40.2 19.9 39.9 20.6Q39.6 21.3 39.6 22.3Q39.6 23.3 39.9 24.0Q40.2 24.7 40.7 25.0Q41.3 25.4 42.1 25.4L42.1 25.4Q42.7 25.4 43.2 25.2Q43.7 24.9 44.0 24.4L44.0 24.4Q44.2 24.0 44.2 23.4L44.2 23.4L42.2 23.4L42.2 22.0L46.1 22.0L46.1 23.1Q46.1 24.4 45.6 25.3Q45.1 26.2 44.2 26.6Q43.2 27.1 42.0 27.1ZM49.5 27L47.6 27L47.6 19.9L49.3 19.9L49.4 21.3Q49.6 20.9 49.8 20.6L49.8 20.6Q50.1 20.2 50.5 20.0Q51.0 19.8 51.4 19.8L51.4 19.8Q52.2 19.8 52.7 20.3L52.7 20.3Q53.0 20.7 53.3 21.4L53.3 21.4Q53.4 21.0 53.7 20.7L53.7 20.7Q54.0 20.2 54.5 20.0Q55.0 19.8 55.5 19.8L55.5 19.8Q56.2 19.8 56.7 20.1Q57.2 20.4 57.5 20.9Q57.8 21.4 57.8 22.2L57.8 22.2L57.8 27L55.9 27L55.9 22.6Q55.9 22.0 55.6 21.7Q55.2 21.4 54.8 21.4L54.8 21.4Q54.4 21.4 54.2 21.5Q53.9 21.7 53.7 22.0Q53.6 22.3 53.6 22.6L53.6 22.6L53.6 27L51.8 27L51.8 22.5Q51.8 22.0 51.5 21.7Q51.1 21.4 50.7 21.4L50.7 21.4Q50.3 21.4 50.1 21.5Q49.8 21.7 49.6 22.0Q49.5 22.3 49.5 22.7L49.5 22.7L49.5 27ZM61.4 27.1L61.4 27.1Q60.7 27.1 60.2 26.9Q59.7 26.7 59.4 26.2Q59.1 25.7 59.1 25.0L59.1 25.0Q59.1 24.4 59.3 24.0Q59.5 23.6 59.9 23.4Q60.2 23.1 60.7 23.0Q61.2 22.9 61.7 22.8L61.7 22.8Q62.3 22.8 62.7 22.7Q63.1 22.7 63.3 22.5Q63.5 22.4 63.5 22.2L63.5 22.2L63.5 22.2Q63.5 21.9 63.3 21.7Q63.2 21.4 62.9 21.3Q62.7 21.2 62.3 21.2L62.3 21.2Q62.0 21.2 61.7 21.3Q61.4 21.4 61.3 21.6Q61.1 21.8 61.0 22.0L61.0 22.0L59.3 21.8Q59.4 21.1 59.9 20.7Q60.3 20.3 60.9 20.0Q61.6 19.8 62.3 19.8L62.3 19.8Q62.9 19.8 63.5 20.0Q64.0 20.1 64.4 20.4Q64.9 20.7 65.1 21.1Q65.4 21.6 65.4 22.2L65.4 22.2L65.4 27L63.6 27L63.6 26.0L63.5 26.0Q63.3 26.3 63.0 26.6Q62.7 26.8 62.3 27.0Q61.9 27.1 61.4 27.1ZM62.0 25.8L62.0 25.8Q62.4 25.8 62.7 25.6Q63.1 25.4 63.3 25.1Q63.5 24.8 63.5 24.5L63.5 24.5L63.5 23.7Q63.4 23.8 63.2 23.8Q63.0 23.9 62.8 23.9Q62.6 23.9 62.4 24.0Q62.2 24.0 62.1 24.0L62.1 24.0Q61.7 24.1 61.4 24.2Q61.2 24.3 61.0 24.5Q60.9 24.7 60.9 25.0L60.9 25.0Q60.9 25.2 61.0 25.4Q61.2 25.6 61.4 25.7Q61.6 25.8 62.0 25.8ZM68.9 27L67.0 27L67.0 19.9L68.9 19.9L68.9 27ZM67.9 19.0L67.9 19.0Q67.5 19.0 67.2 18.7Q66.9 18.4 66.9 18.0L66.9 18.0Q66.9 17.6 67.2 17.3Q67.5 17.0 67.9 17.0L67.9 17.0Q68.4 17.0 68.7 17.3Q69.0 17.6 69.0 18.0L69.0 18.0Q69.0 18.4 68.7 18.7Q68.4 19.0 67.9 19.0ZM70.5 17.5L72.4 17.5L72.4 27L70.5 27L70.5 17.5Z "/></g></svg>