<!-- Generated by readme-aura https://github.com/collectioneur/readme-aura -->
<svg width="138" height="44" viewBox="0 0 138 44" xmlns="http://www.w3.org/2000/svg"><defs><clipPath id="satori_bc-id"><path x="0" y="0" width="138" height="44" d="M22,0 h94 a22,22 0 0 1 22,22 v0 a22,22 0 0 1 -22,22 h-94 a22,22 0 0 1 -22,-22 v0 a22,22 0 0 1 22,-22"/></clipPath></defs><mask id="satori_om-id"><rect x="1" y="1" width="136" height="42" fill="#fff"/><path width="138" height="44" fill="none" stroke="#000" stroke-width="2" d="M6.444000000000001,6.444000000000001 A22,22 0 0 1 22,0 h94 a22,22 0 0 1 22,22 v0 a22,22 0 0 1 -22,22 h-94 a22,22 0 0 1 -22,-22 v0 A22,22 0 0 1 6.444000000000001,6.444000000000001"/></mask><path x="0" y="0" width="138" height="44" fill="#0d0d0d" d="M22,0 h94 a22,22 0 0 1 22,22 v0 a22,22 0 0 1 -22,22 h-94 a22,22 0 0 1 -22,-22 v0 a22,22 0 0 1 22,-22"/><path width="138" height="44" clip-path="url(#satori_bc-id)" fill="none" stroke="rgba(80,130,255,0.45)" stroke-width="2" d="M6.444000000000001,6.444000000000001 A22,22 0 0 1 22,0 h94 a22,22 0 0 1 22,22 v0 a22,22 0 0 1 -22,22 h-94 a22,22 0 0 1 -22,-22 v0 A22,22 0 0 1 6.444000000000001,6.444000000000001"/><clipPath id="satori_cp-id-0"><rect x="32" y="16" width="13" height="13"/></clipPath><mask id="satori_om-id-0"><rect x="32" y="16" width="13" height="13" fill="#fff"/></mask><svg x="32" y="16" width="13" height="13" preserveAspectRatio="none" clip-path="url(#satori_cp-id-0)" mask="url(#satori_om-id-0)"><path d="M20.447 20.452h-3.554v-5.569c0-1.328-.027-3.037-1.852-3.037-1.853 0-2.136 1.445-2.136 2.939v5.667H9.351V9h3.414v1.561h.046c.477-.9 1.637-1.85 3.37-1.85 3.601 0 4.267 2.37 4.267 5.455v6.286zM5.337 7.433c-1.144 0-2.063-.926-2.063-2.065 0-1.138.92-2.063 2.063-2.063 1.14 0 2.064.925 2.064 2.063 0 1.139-.925 2.065-2.064 2.065zm1.782 13.019H3.555V9h3.564v11.452zM22.225 0H1.771C.792 0 0 .774 0 1.729v20.542C0 23.227.792 24 1.771 24h20.451C23.2 24 24 23.227 24 22.271V1.729C24 .774 23.2 0 22.222 0h.003z"></path></svg><mask id="satori_om-id-0-0"><rect x="32" y="16" width="0" height="13" fill="#fff"/></mask><mask id="satori_om-id-1"><rect x="52" y="14" width="55" height="16" fill="#fff"/></mask><g  ><path fill="rgba(100,155,255,0.90)" d="M58.9 27L52.9 27L52.9 17.5L54.8 17.5L54.8 25.4L58.9 25.4L58.9 27ZM62.1 27L60.2 27L60.2 19.9L62.1 19.9L62.1 27ZM61.1 19.0L61.1 19.0Q60.7 19.0 60.4 18.7Q60.1 18.4 60.1 18.0L60.1 18.0Q60.1 17.6 60.4 17.3Q60.7 17.0 61.1 17.0L61.1 17.0Q61.5 17.0 61.9 17.3Q62.2 17.6 62.2 18.0L62.2 18.0Q62.2 18.4 61.9 18.7Q61.5 19.0 61.1 19.0ZM65.6 22.9L65.6 22.9L65.6 27L63.7 27L63.7 19.9L65.5 19.9L65.5 21.4Q65.8 20.7 66.3 20.3L66.3 20.3Q66.8 19.8 67.7 19.8L67.7 19.8Q68.5 19.8 69.0 20.1Q69.6 20.5 69.9 21.1Q70.2 21.7 70.2 22.5L70.2 22.5L70.2 27L68.3 27L68.3 22.8Q68.3 22.2 67.9 21.8Q67.6 21.4 67.0 21.4L67.0 21.4Q66.6 21.4 66.3 21.6Q65.9 21.8 65.8 22.1Q65.6 22.4 65.6 22.9ZM73.7 27L71.8 27L71.8 17.5L73.7 17.5L73.7 22.6L73.8 22.6L76.1 19.9L78.3 19.9L75.7 23.0L78.5 27L76.2 27L74.2 24.1L73.7 24.7L73.7 27ZM82.5 27.1L82.5 27.1Q81.4 27.1 80.7 26.7Q79.9 26.3 79.4 25.4Q79.0 24.6 79.0 23.5L79.0 23.5Q79.0 22.4 79.4 21.6Q79.9 20.7 80.6 20.3Q81.4 19.8 82.4 19.8L82.4 19.8Q83.1 19.8 83.7 20.0Q84.3 20.3 84.8 20.7Q85.2 21.2 85.5 21.8Q85.8 22.5 85.8 23.4L85.8 23.4L85.8 23.9L80.9 23.9Q80.9 24.5 81.1 24.9L81.1 24.9Q81.3 25.3 81.7 25.5Q82.1 25.7 82.6 25.7L82.6 25.7Q82.9 25.7 83.2 25.6Q83.4 25.5 83.6 25.3Q83.8 25.1 83.9 24.9L83.9 24.9L85.7 25.2Q85.5 25.8 85.1 26.2Q84.6 26.7 84.0 26.9Q83.4 27.1 82.5 27.1ZM80.9 22.8L80.9 22.8L83.9 22.8Q83.9 22.4 83.8 22.1L83.8 22.1Q83.6 21.7 83.3 21.5Q82.9 21.2 82.4 21.2L82.4 21.2Q82.0 21.2 81.6 21.5Q81.3 21.7 81.1 22.1L81.1 22.1Q81.0 22.4 80.9 22.8ZM89.7 27.1L89.7 27.1Q88.8 27.1 88.2 26.7Q87.5 26.3 87.1 25.5Q86.8 24.6 86.8 23.5L86.8 23.5Q86.8 22.3 87.2 21.4Q87.6 20.6 88.2 20.2Q88.9 19.8 89.6 19.8L89.6 19.8Q90.3 19.8 90.7 20.0Q91.1 20.2 91.3 20.5Q91.5 20.8 91.7 21.1L91.7 21.1L91.7 21.1L91.7 17.5L93.6 17.5L93.6 27L91.8 27L91.8 25.9L91.7 25.9Q91.5 26.1 91.3 26.4Q91.0 26.7 90.6 26.9Q90.2 27.1 89.7 27.1ZM90.2 25.6L90.2 25.6Q90.7 25.6 91.1 25.3Q91.4 25.1 91.6 24.6Q91.8 24.1 91.8 23.5L91.8 23.5Q91.8 22.8 91.6 22.3Q91.4 21.9 91.1 21.6Q90.7 21.3 90.2 21.3L90.2 21.3Q89.7 21.3 89.4 21.6Q89.1 21.9 88.9 22.4Q88.7 22.8 88.7 23.5L88.7 23.5Q88.7 24.1 88.9 24.6Q89.1 25.0 89.4 25.3Q89.7 25.6 90.2 25.6ZM95.3 17.5L97.2 17.5L97.2 27L95.3 27L95.3 17.5ZM100.8 22.9L100.8 22.9L100.8 27L98.9 27L98.9 19.9L100.7 19.9L100.7 21.4Q101.0 20.7 101.5 20.3L101.5 20.3Q102.0 19.8 102.9 19.8L102.9 19.8Q103.7 19.8 104.2 20.1Q104.8 20.5 105.1 21.1Q105.4 21.7 105.4 22.5L105.4 22.5L105.4 27L103.5 27L103.5 22.8Q103.5 22.2 103.1 21.8Q102.8 21.4 102.2 21.4L102.2 21.4Q101.8 21.4 101.5 21.6Q101.2 21.8 101.0 22.1Q100.8 22.4 100.8 22.9Z "/></g></svg>