<!-- Generated by readme-aura https://github.com/collectioneur/readme-aura -->
<svg width="800" height="130" viewBox="0 0 800 130" xmlns="http://www.w3.org/2000/svg"><defs><clipPath id="satori_bc-id"><path x="0" y="0" width="800" height="130" d="M16,0 h768 a16,16 0 0 1 16,16 v98 a16,16 0 0 1 -16,16 h-768 a16,16 0 0 1 -16,-16 v-98 a16,16 0 0 1 16,-16"/></clipPath></defs><clipPath id="satori_cp-id"><path x="0" y="0" width="800" height="130" d="M16,0 h768 a16,16 0 0 1 16,16 v98 a16,16 0 0 1 -16,16 h-768 a16,16 0 0 1 -16,-16 v-98 a16,16 0 0 1 16,-16"/></clipPath><mask id="satori_om-id"><rect x="1" y="1" width="798" height="128" fill="#fff"/><path width="800" height="130" fill="none" stroke="#000" stroke-width="2" d="M4.686,4.686 A16,16 0 0 1 16,0 h768 a16,16 0 0 1 16,16 v98 a16,16 0 0 1 -16,16 h-768 a16,16 0 0 1 -16,-16 v-98 A16,16 0 0 1 4.686,4.686"/></mask><path x="0" y="0" width="800" height="130" fill="#08080c" d="M16,0 h768 a16,16 0 0 1 16,16 v98 a16,16 0 0 1 -16,16 h-768 a16,16 0 0 1 -16,-16 v-98 a16,16 0 0 1 16,-16"/><path width="800" height="130" clip-path="url(#satori_bc-id)" fill="none" stroke="rgba(110,80,220,0.18)" stroke-width="2" d="M4.686,4.686 A16,16 0 0 1 16,0 h768 a16,16 0 0 1 16,16 v98 a16,16 0 0 1 -16,16 h-768 a16,16 0 0 1 -16,-16 v-98 A16,16 0 0 1 4.686,4.686"/><clipPath id="satori_cp-id-0" clip-path="url(#satori_cp-id)"><rect x="1" y="1" width="800" height="130"/></clipPath><mask id="satori_om-id-0"><rect x="1" y="1" width="800" height="130" fill="#fff" mask="url(#satori_om-id)"/></mask><svg x="1" y="1" width="800" height="130" preserveAspectRatio="none" clip-path="url(#satori_cp-id-0)" mask="url(#satori_om-id-0)"><defs><radialGradient id="sg1" cx="50%" cy="50%" r="50%"><stop offset="0%" stop-color="rgba(110,20,210,0.55)"></stop><stop offset="70%" stop-color="rgba(110,20,210,0)"></stop></radialGradient><radialGradient id="sg2" cx="50%" cy="50%" r="50%"><stop offset="0%" stop-color="rgba(212,255,0,0.35)"></stop><stop offset="70%" stop-color="rgba(212,255,0,0)"></stop></radialGradient><radialGradient id="sg3" cx="50%" cy="50%" r="50%"><stop offset="0%" stop-color="rgba(40,80,255,0.45)"></stop><stop offset="70%" stop-color="rgba(40,80,255,0)"></stop></radialGradient></defs><ellipse id="sg-l" cx="130" cy="100" rx="200" ry="120" fill="url(#sg1)"></ellipse><ellipse id="sg-c" cx="400" cy="110" rx="180" ry="110" fill="url(#sg2)"></ellipse><ellipse id="sg-r" cx="670" cy="100" rx="200" ry="120" fill="url(#sg3)"></ellipse><style>

    @keyframes stat-glow-l { 0%,100%{transform:translateX(0);opacity:0.6} 50%{transform:translateX(120px);opacity:1.0} }
    @keyframes stat-glow-r { 0%,100%{transform:translateX(0);opacity:0.7} 50%{transform:translateX(-100px);opacity:0.9} }
    @keyframes stat-glow-c { 0%,100%{transform:scale(1);opacity:0.5} 50%{transform:scale(1.3);opacity:0.85} }
    #sg-l { animation: stat-glow-l 10s ease-in-out infinite; }
    #sg-r { animation: stat-glow-r 12s ease-in-out infinite; }
    #sg-c { animation: stat-glow-c 9s  ease-in-out infinite; }
  
</style>
</svg><mask id="satori_om-id-0-0"><rect x="1" y="1" width="0" height="130" fill="#fff" mask="url(#satori_om-id)"/></mask><mask id="satori_om-id-0-0-0"><rect x="1" y="1" width="0" height="130" fill="#fff" mask="url(#satori_om-id)"/></mask><mask id="satori_om-id-0-0-0-0"><rect x="1" y="1" width="0" height="130" fill="#fff" mask="url(#satori_om-id)"/></mask><mask id="satori_om-id-0-0-0-1"><rect x="1" y="1" width="0" height="130" fill="#fff" mask="url(#satori_om-id)"/></mask><mask id="satori_om-id-0-0-1"><rect x="1" y="1" width="0" height="130" fill="#fff" mask="url(#satori_om-id)"/></mask><mask id="satori_om-id-0-0-1-0"><rect x="1" y="1" width="0" height="130" fill="#fff" mask="url(#satori_om-id)"/></mask><mask id="satori_om-id-0-0-1-1"><rect x="1" y="1" width="0" height="130" fill="#fff" mask="url(#satori_om-id)"/></mask><mask id="satori_om-id-0-0-2"><rect x="1" y="1" width="0" height="130" fill="#fff" mask="url(#satori_om-id)"/></mask><mask id="satori_om-id-0-0-2-0"><rect x="1" y="1" width="0" height="130" fill="#fff" mask="url(#satori_om-id)"/></mask><mask id="satori_om-id-0-0-2-1"><rect x="1" y="1" width="0" height="130" fill="#fff" mask="url(#satori_om-id)"/></mask><mask id="satori_om-id-0-1"><rect x="1" y="1" width="0" height="130" fill="#fff" mask="url(#satori_om-id)"/></mask><mask id="satori_om-id-0-2"><rect x="1" y="1" width="0" height="130" fill="#fff" mask="url(#satori_om-id)"/></mask><mask id="satori_om-id-0-3"><rect x="1" y="1" width="0" height="130" fill="#fff" mask="url(#satori_om-id)"/></mask><defs><clipPath id="satori_bc-id-1" clip-path="url(#satori_cp-id)"><rect x="1" y="36" width="266" height="59"/></clipPath></defs><mask id="satori_om-id-1"><rect x="1" y="36" width="265" height="59" fill="#fff" mask="url(#satori_om-id)"/><path width="266" height="59" fill="none" stroke="#000" stroke-width="2" d="M267,36 A0,0 0 0 1 267,36 v59 A0,0 0 0 1 267,95"/></mask><path width="266" height="59" clip-path="url(#satori_bc-id-1)" fill="none" stroke="rgba(255,255,255,0.07)" stroke-width="2" d="M267,36 A0,0 0 0 1 267,36 v59 A0,0 0 0 1 267,95"/><mask id="satori_om-id-1-0"><rect x="124" y="36" width="19" height="40" fill="#fff" mask="url(#satori_om-id)"/></mask><g mask="url(#satori_om-id)" clip-path="url(#satori_cp-id)"><path fill="#a78bfa" d="M124 56.7L144 56.7L144 61.4L124 61.4L124 56.7Z "/></g><mask id="satori_om-id-1-1"><rect x="110" y="82" width="47" height="13" fill="#fff" mask="url(#satori_om-id)"/></mask><g mask="url(#satori_om-id)" clip-path="url(#satori_cp-id)"><path fill="rgba(160,155,200,0.7)" d="M112.4 93L110.7 93L110.7 85.0L113.8 85.0Q114.8 85.0 115.4 85.3Q116.0 85.6 116.4 86.2Q116.7 86.8 116.7 87.6Q116.7 88.4 116.4 89.0Q116.0 89.5 115.4 89.8L115.4 89.8Q115.3 89.9 115.3 89.9L115.3 89.9L117.0 93L115.2 93L113.6 90.1L112.4 90.1L112.4 93ZM112.4 86.4L112.4 88.8L113.5 88.8Q114.0 88.8 114.4 88.7Q114.7 88.5 114.9 88.3Q115.0 88.0 115.0 87.6L115.0 87.6Q115.0 87.2 114.9 86.9Q114.7 86.6 114.4 86.5Q114.0 86.4 113.5 86.4L113.5 86.4L112.4 86.4ZM125.3 93L119.9 93L119.9 85.0L125.3 85.0L125.3 86.4L121.6 86.4L121.6 88.3L125.0 88.3L125.0 89.6L121.6 89.6L121.6 91.6L125.3 91.6L125.3 93ZM130.3 93L128.6 93L128.6 85.0L131.8 85.0Q132.7 85.0 133.3 85.3Q133.9 85.7 134.3 86.3Q134.6 86.9 134.6 87.7L134.6 87.7Q134.6 88.5 134.3 89.1Q133.9 89.7 133.3 90.0Q132.6 90.4 131.7 90.4L131.7 90.4L130.3 90.4L130.3 93ZM130.3 86.4L130.3 89.1L131.5 89.1Q132.0 89.1 132.3 88.9Q132.6 88.7 132.8 88.4Q132.9 88.1 132.9 87.7Q132.9 87.3 132.8 87.0Q132.6 86.7 132.3 86.5Q132.0 86.4 131.4 86.4L131.4 86.4L130.3 86.4ZM141.3 93.1L141.3 93.1Q140.2 93.1 139.4 92.6Q138.5 92.1 138.0 91.2Q137.5 90.3 137.5 89.0L137.5 89.0Q137.5 87.7 138.0 86.8Q138.5 85.9 139.4 85.4Q140.2 84.9 141.3 84.9L141.3 84.9Q142.3 84.9 143.2 85.4Q144.0 85.9 144.5 86.8Q145.0 87.7 145.0 89.0L145.0 89.0Q145.0 90.3 144.5 91.2Q144.0 92.1 143.2 92.6Q142.3 93.1 141.3 93.1ZM141.3 91.7L141.3 91.7Q141.9 91.7 142.4 91.3Q142.8 91.0 143.1 90.5Q143.3 89.9 143.3 89.0L143.3 89.0Q143.3 88.1 143.1 87.5Q142.8 87.0 142.4 86.6Q141.9 86.3 141.3 86.3L141.3 86.3Q140.7 86.3 140.2 86.7Q139.7 87.0 139.5 87.6Q139.2 88.1 139.2 89.0L139.2 89.0Q139.2 89.9 139.5 90.4Q139.7 91.0 140.2 91.3Q140.7 91.7 141.3 91.7ZM151.2 93.1L151.2 93.1Q150.2 93.1 149.5 92.8Q148.8 92.5 148.4 91.9Q148.0 91.4 148.0 90.5L148.0 90.5L149.6 90.5Q149.6 90.9 149.8 91.2Q150.0 91.5 150.4 91.6Q150.7 91.7 151.2 91.7L151.2 91.7Q151.6 91.7 151.9 91.6Q152.2 91.5 152.4 91.2Q152.6 91.0 152.6 90.7L152.6 90.7Q152.6 90.4 152.4 90.3Q152.3 90.1 152.0 89.9Q151.7 89.8 151.2 89.7L151.2 89.7L150.3 89.5Q149.3 89.2 148.8 88.7Q148.2 88.2 148.2 87.3L148.2 87.3Q148.2 86.6 148.6 86.0Q149.0 85.5 149.6 85.2Q150.3 84.9 151.2 84.9L151.2 84.9Q152.1 84.9 152.7 85.2Q153.4 85.5 153.8 86.0Q154.1 86.6 154.1 87.3L154.1 87.3L152.6 87.3Q152.5 86.8 152.2 86.5Q151.8 86.3 151.2 86.3L151.2 86.3Q150.8 86.3 150.5 86.4Q150.2 86.5 150.0 86.7Q149.9 86.9 149.9 87.2L149.9 87.2Q149.9 87.5 150.0 87.7Q150.2 87.9 150.5 88.0Q150.8 88.1 151.1 88.2L151.1 88.2L151.9 88.4Q152.4 88.5 152.8 88.7Q153.2 88.9 153.6 89.2Q153.9 89.4 154.1 89.8Q154.3 90.2 154.3 90.7L154.3 90.7Q154.3 91.4 153.9 92.0Q153.5 92.5 152.8 92.8Q152.1 93.1 151.2 93.1Z "/></g><defs><clipPath id="satori_bc-id-2" clip-path="url(#satori_cp-id)"><rect x="267" y="36" width="267" height="59"/></clipPath></defs><mask id="satori_om-id-2"><rect x="267" y="36" width="266" height="59" fill="#fff" mask="url(#satori_om-id)"/><path width="267" height="59" fill="none" stroke="#000" stroke-width="2" d="M534,36 A0,0 0 0 1 534,36 v59 A0,0 0 0 1 534,95"/></mask><path width="267" height="59" clip-path="url(#satori_bc-id-2)" fill="none" stroke="rgba(255,255,255,0.07)" stroke-width="2" d="M534,36 A0,0 0 0 1 534,36 v59 A0,0 0 0 1 534,95"/><mask id="satori_om-id-2-0"><rect x="390" y="36" width="19" height="40" fill="#fff" mask="url(#satori_om-id)"/></mask><g mask="url(#satori_om-id)" clip-path="url(#satori_cp-id)"><path fill="#D4FF00" d="M390 56.7L410 56.7L410 61.4L390 61.4L390 56.7Z "/></g><mask id="satori_om-id-2-1"><rect x="356" y="82" width="87" height="13" fill="#fff" mask="url(#satori_om-id)"/></mask><g mask="url(#satori_om-id)" clip-path="url(#satori_cp-id)"><path fill="rgba(160,155,200,0.7)" d="M358.4 93L356.7 93L356.7 85.0L362.0 85.0L362.0 86.4L358.4 86.4L358.4 88.6L361.6 88.6L361.6 89.9L358.4 89.9L358.4 93ZM368.7 93.1L368.7 93.1Q367.6 93.1 366.8 92.6Q365.9 92.1 365.5 91.2Q365.0 90.3 365.0 89.0L365.0 89.0Q365.0 87.7 365.5 86.8Q365.9 85.9 366.8 85.4Q367.6 84.9 368.7 84.9L368.7 84.9Q369.8 84.9 370.6 85.4Q371.4 85.9 371.9 86.8Q372.4 87.7 372.4 89.0L372.4 89.0Q372.4 90.3 371.9 91.2Q371.4 92.1 370.6 92.6Q369.8 93.1 368.7 93.1ZM368.7 91.7L368.7 91.7Q369.3 91.7 369.8 91.3Q370.2 91.0 370.5 90.5Q370.8 89.9 370.8 89.0L370.8 89.0Q370.8 88.1 370.5 87.5Q370.2 87.0 369.8 86.6Q369.3 86.3 368.7 86.3L368.7 86.3Q368.1 86.3 367.6 86.7Q367.1 87.0 366.9 87.6Q366.6 88.1 366.6 89.0L366.6 89.0Q366.6 89.9 366.9 90.4Q367.1 91.0 367.6 91.3Q368.1 91.7 368.7 91.7ZM380.7 93L375.7 93L375.7 85.0L377.3 85.0L377.3 91.6L380.7 91.6L380.7 93ZM389.0 93L383.9 93L383.9 85.0L385.5 85.0L385.5 91.6L389.0 91.6L389.0 93ZM395.6 93.1L395.6 93.1Q394.6 93.1 393.7 92.6Q392.9 92.1 392.4 91.2Q391.9 90.3 391.9 89.0L391.9 89.0Q391.9 87.7 392.4 86.8Q392.9 85.9 393.7 85.4Q394.6 84.9 395.6 84.9L395.6 84.9Q396.7 84.9 397.5 85.4Q398.4 85.9 398.9 86.8Q399.3 87.7 399.3 89.0L399.3 89.0Q399.3 90.3 398.9 91.2Q398.4 92.1 397.5 92.6Q396.7 93.1 395.6 93.1ZM395.6 91.7L395.6 91.7Q396.2 91.7 396.7 91.3Q397.2 91.0 397.4 90.5Q397.7 89.9 397.7 89.0L397.7 89.0Q397.7 88.1 397.4 87.5Q397.2 87.0 396.7 86.6Q396.2 86.3 395.6 86.3L395.6 86.3Q395.0 86.3 394.5 86.7Q394.1 87.0 393.8 87.6Q393.5 88.1 393.5 89.0L393.5 89.0Q393.5 89.9 393.8 90.4Q394.1 91.0 394.5 91.3Q395.0 91.7 395.6 91.7ZM406.1 93L404.3 93L402.1 85.0L403.9 85.0L404.8 88.9Q404.9 89.4 405.0 90.0Q405.1 90.6 405.2 91.1L405.2 91.1Q405.2 91.2 405.3 91.4L405.3 91.4Q405.3 91.2 405.3 91.1L405.3 91.1Q405.4 90.6 405.5 90.0Q405.6 89.4 405.7 88.9L405.7 88.9L406.7 85.0L408.4 85.0L409.4 88.9Q409.5 89.4 409.6 90.0Q409.7 90.6 409.8 91.1L409.8 91.1Q409.8 91.2 409.8 91.3L409.8 91.3Q409.9 91.2 409.9 91.1L409.9 91.1Q410.0 90.6 410.1 90.0Q410.2 89.4 410.3 88.9L410.3 88.9L411.2 85.0L413.0 85.0L410.8 93L409.0 93L407.9 88.9Q407.7 88.2 407.6 87.4L407.6 87.4Q407.6 87.2 407.5 87.0L407.5 87.0Q407.5 87.2 407.5 87.4L407.5 87.4Q407.4 88.2 407.2 88.9L407.2 88.9L406.1 93ZM421.4 93L416.0 93L416.0 85.0L421.3 85.0L421.3 86.4L417.6 86.4L417.6 88.3L421.1 88.3L421.1 89.6L417.6 89.6L417.6 91.6L421.4 91.6L421.4 93ZM426.3 93L424.7 93L424.7 85.0L427.8 85.0Q428.7 85.0 429.3 85.3Q430.0 85.6 430.3 86.2Q430.7 86.8 430.7 87.6Q430.7 88.4 430.3 89.0Q430.0 89.5 429.3 89.8L429.3 89.8Q429.3 89.9 429.2 89.9L429.2 89.9L430.9 93L429.1 93L427.6 90.1L426.3 90.1L426.3 93ZM426.3 86.4L426.3 88.8L427.5 88.8Q428.0 88.8 428.3 88.7Q428.6 88.5 428.8 88.3Q429.0 88.0 429.0 87.6L429.0 87.6Q429.0 87.2 428.8 86.9Q428.6 86.6 428.3 86.5Q428.0 86.4 427.5 86.4L427.5 86.4L426.3 86.4ZM436.8 93.1L436.8 93.1Q435.9 93.1 435.2 92.8Q434.4 92.5 434.0 91.9Q433.6 91.4 433.6 90.5L433.6 90.5L435.2 90.5Q435.3 90.9 435.5 91.2Q435.7 91.5 436.0 91.6Q436.4 91.7 436.8 91.7L436.8 91.7Q437.2 91.7 437.6 91.6Q437.9 91.5 438.1 91.2Q438.3 91.0 438.3 90.7L438.3 90.7Q438.3 90.4 438.1 90.3Q437.9 90.1 437.6 89.9Q437.3 89.8 436.9 89.7L436.9 89.7L436.0 89.5Q435.0 89.2 434.4 88.7Q433.8 88.2 433.8 87.3L433.8 87.3Q433.8 86.6 434.2 86.0Q434.6 85.5 435.3 85.2Q436.0 84.9 436.8 84.9L436.8 84.9Q437.7 84.9 438.4 85.2Q439.1 85.5 439.4 86.0Q439.8 86.6 439.8 87.3L439.8 87.3L438.2 87.3Q438.2 86.8 437.8 86.5Q437.4 86.3 436.8 86.3L436.8 86.3Q436.4 86.3 436.1 86.4Q435.8 86.5 435.7 86.7Q435.5 86.9 435.5 87.2L435.5 87.2Q435.5 87.5 435.7 87.7Q435.9 87.9 436.2 88.0Q436.5 88.1 436.8 88.2L436.8 88.2L437.5 88.4Q438.0 88.5 438.5 88.7Q438.9 88.9 439.2 89.2Q439.6 89.4 439.7 89.8Q439.9 90.2 439.9 90.7L439.9 90.7Q439.9 91.4 439.5 92.0Q439.2 92.5 438.5 92.8Q437.8 93.1 436.8 93.1Z "/></g><mask id="satori_om-id-3"><rect x="534" y="36" width="265" height="59" fill="#fff" mask="url(#satori_om-id)"/></mask><mask id="satori_om-id-3-0"><rect x="657" y="36" width="19" height="40" fill="#fff" mask="url(#satori_om-id)"/></mask><g mask="url(#satori_om-id)" clip-path="url(#satori_cp-id)"><path fill="#60a5fa" d="M657 56.7L677 56.7L677 61.4L657 61.4L657 56.7Z "/></g><mask id="satori_om-id-3-1"><rect x="645" y="82" width="44" height="13" fill="#fff" mask="url(#satori_om-id)"/></mask><g mask="url(#satori_om-id)" clip-path="url(#satori_cp-id)"><path fill="rgba(160,155,200,0.7)" d="M649.3 93.1L649.3 93.1Q648.1 93.1 647.3 92.6Q646.5 92.1 646.0 91.2Q645.5 90.3 645.5 89.0L645.5 89.0Q645.5 87.7 646.0 86.8Q646.5 85.9 647.3 85.4Q648.2 84.9 649.2 84.9L649.2 84.9Q649.9 84.9 650.5 85.1Q651.1 85.3 651.5 85.6Q652.0 86.0 652.3 86.5Q652.6 87.0 652.6 87.6L652.6 87.6L651.0 87.6Q650.9 87.3 650.7 87.1Q650.6 86.8 650.4 86.7Q650.2 86.5 649.9 86.4Q649.6 86.3 649.3 86.3L649.3 86.3Q648.6 86.3 648.2 86.7Q647.7 87.0 647.4 87.6Q647.2 88.1 647.2 89.0Q647.2 89.8 647.4 90.4Q647.7 91.0 648.2 91.3Q648.6 91.7 649.3 91.7L649.3 91.7Q649.9 91.7 650.3 91.4Q650.7 91.2 650.9 90.8L650.9 90.8Q651.1 90.5 651.1 90.0L651.1 90.0L649.4 90.0L649.4 88.7L652.7 88.7L652.7 89.7Q652.7 90.8 652.3 91.5Q651.8 92.3 651.1 92.7Q650.3 93.1 649.3 93.1ZM656.0 85.0L657.6 85.0L657.6 93L656.0 93L656.0 85.0ZM664.0 93.1L664.0 93.1Q663.0 93.1 662.3 92.8Q661.6 92.5 661.2 91.9Q660.8 91.4 660.8 90.5L660.8 90.5L662.4 90.5Q662.4 90.9 662.6 91.2Q662.8 91.5 663.2 91.6Q663.5 91.7 664.0 91.7L664.0 91.7Q664.4 91.7 664.8 91.6Q665.1 91.5 665.3 91.2Q665.4 91.0 665.4 90.7L665.4 90.7Q665.4 90.4 665.3 90.3Q665.1 90.1 664.8 89.9Q664.5 89.8 664.1 89.7L664.1 89.7L663.2 89.5Q662.2 89.2 661.6 88.7Q661.0 88.2 661.0 87.3L661.0 87.3Q661.0 86.6 661.4 86.0Q661.8 85.5 662.5 85.2Q663.2 84.9 664.0 84.9L664.0 84.9Q664.9 84.9 665.6 85.2Q666.2 85.5 666.6 86.0Q667.0 86.6 667.0 87.3L667.0 87.3L665.4 87.3Q665.4 86.8 665.0 86.5Q664.6 86.3 664.0 86.3L664.0 86.3Q663.6 86.3 663.3 86.4Q663.0 86.5 662.8 86.7Q662.7 86.9 662.7 87.2L662.7 87.2Q662.7 87.5 662.9 87.7Q663.1 87.9 663.3 88.0Q663.6 88.1 664.0 88.2L664.0 88.2L664.7 88.4Q665.2 88.5 665.6 88.7Q666.1 88.9 666.4 89.2Q666.7 89.4 666.9 89.8Q667.1 90.2 667.1 90.7L667.1 90.7Q667.1 91.4 666.7 92.0Q666.4 92.5 665.7 92.8Q665.0 93.1 664.0 93.1ZM672.4 86.4L669.9 86.4L669.9 85.0L676.5 85.0L676.5 86.4L674.0 86.4L674.0 93L672.4 93L672.4 86.4ZM682.5 93.1L682.5 93.1Q681.6 93.1 680.9 92.8Q680.2 92.5 679.8 91.9Q679.4 91.4 679.3 90.5L679.3 90.5L680.9 90.5Q681.0 90.9 681.2 91.2Q681.4 91.5 681.7 91.6Q682.1 91.7 682.5 91.7L682.5 91.7Q683.0 91.7 683.3 91.6Q683.6 91.5 683.8 91.2Q684.0 91.0 684.0 90.7L684.0 90.7Q684.0 90.4 683.8 90.3Q683.7 90.1 683.4 89.9Q683.0 89.8 682.6 89.7L682.6 89.7L681.7 89.5Q680.7 89.2 680.1 88.7Q679.6 88.2 679.6 87.3L679.6 87.3Q679.6 86.6 679.9 86.0Q680.3 85.5 681.0 85.2Q681.7 84.9 682.6 84.9L682.6 84.9Q683.5 84.9 684.1 85.2Q684.8 85.5 685.1 86.0Q685.5 86.6 685.5 87.3L685.5 87.3L683.9 87.3Q683.9 86.8 683.5 86.5Q683.2 86.3 682.6 86.3L682.6 86.3Q682.1 86.3 681.8 86.4Q681.5 86.5 681.4 86.7Q681.2 86.9 681.2 87.2L681.2 87.2Q681.2 87.5 681.4 87.7Q681.6 87.9 681.9 88.0Q682.2 88.1 682.5 88.2L682.5 88.2L683.2 88.4Q683.7 88.5 684.2 88.7Q684.6 88.9 684.9 89.2Q685.3 89.4 685.5 89.8Q685.6 90.2 685.6 90.7L685.6 90.7Q685.6 91.4 685.3 92.0Q684.9 92.5 684.2 92.8Q683.5 93.1 682.5 93.1Z "/></g></svg>