<!-- Generated by readme-aura https://github.com/collectioneur/readme-aura -->
<svg width="860" height="110" viewBox="0 0 860 110" xmlns="http://www.w3.org/2000/svg"><defs><clipPath id="satori_bc-id"><path x="0" y="0" width="860" height="110" d="M16,0 h828 a16,16 0 0 1 16,16 v78 a16,16 0 0 1 -16,16 h-828 a16,16 0 0 1 -16,-16 v-78 a16,16 0 0 1 16,-16"/></clipPath></defs><clipPath id="satori_cp-id"><path x="0" y="0" width="860" height="110" d="M16,0 h828 a16,16 0 0 1 16,16 v78 a16,16 0 0 1 -16,16 h-828 a16,16 0 0 1 -16,-16 v-78 a16,16 0 0 1 16,-16"/></clipPath><mask id="satori_om-id"><rect x="1" y="1" width="858" height="108" fill="#fff"/><path width="860" height="110" fill="none" stroke="#000" stroke-width="2" d="M4.686,4.686 A16,16 0 0 1 16,0 h828 a16,16 0 0 1 16,16 v78 a16,16 0 0 1 -16,16 h-828 a16,16 0 0 1 -16,-16 v-78 A16,16 0 0 1 4.686,4.686"/></mask><path x="0" y="0" width="860" height="110" fill="#08080c" d="M16,0 h828 a16,16 0 0 1 16,16 v78 a16,16 0 0 1 -16,16 h-828 a16,16 0 0 1 -16,-16 v-78 a16,16 0 0 1 16,-16"/><path width="860" height="110" clip-path="url(#satori_bc-id)" fill="none" stroke="rgba(80,60,200,0.18)" stroke-width="2" d="M4.686,4.686 A16,16 0 0 1 16,0 h828 a16,16 0 0 1 16,16 v78 a16,16 0 0 1 -16,16 h-828 a16,16 0 0 1 -16,-16 v-78 A16,16 0 0 1 4.686,4.686"/><clipPath id="satori_cp-id-0" clip-path="url(#satori_cp-id)"><rect x="1" y="1" width="860" height="110"/></clipPath><mask id="satori_om-id-0"><rect x="1" y="1" width="860" height="110" fill="#fff" mask="url(#satori_om-id)"/></mask><svg x="1" y="1" width="860" height="110" preserveAspectRatio="none" clip-path="url(#satori_cp-id-0)" mask="url(#satori_om-id-0)"><defs><radialGradient id="sg1g" cx="50%" cy="50%" r="50%"><stop offset="0%" stop-color="rgba(40,80,255,0.48)"></stop><stop offset="70%" stop-color="rgba(40,80,255,0)"></stop></radialGradient><radialGradient id="sg2g" cx="50%" cy="50%" r="50%"><stop offset="0%" stop-color="rgba(130,30,255,0.42)"></stop><stop offset="70%" stop-color="rgba(130,30,255,0)"></stop></radialGradient></defs><ellipse id="sg1" cx="200" cy="110" rx="280" ry="150" fill="url(#sg1g)"></ellipse><ellipse id="sg2" cx="660" cy="110" rx="240" ry="140" fill="url(#sg2g)"></ellipse><style>

    @keyframes sg1-drift { 0%,100%{transform:translateX(0);opacity:0.55} 50%{transform:translateX(200px);opacity:0.85} }
    @keyframes sg2-drift { 0%,100%{transform:translateX(0);opacity:0.45} 50%{transform:translateX(-160px);opacity:0.80} }
    #sg1 { animation: sg1-drift 14s ease-in-out infinite; }
    #sg2 { animation: sg2-drift 11s ease-in-out infinite reverse; }
  
</style>
</svg><mask id="satori_om-id-0-0"><rect x="1" y="1" width="0" height="110" fill="#fff" mask="url(#satori_om-id)"/></mask><mask id="satori_om-id-0-0-0"><rect x="1" y="1" width="0" height="110" fill="#fff" mask="url(#satori_om-id)"/></mask><mask id="satori_om-id-0-0-0-0"><rect x="1" y="1" width="0" height="110" fill="#fff" mask="url(#satori_om-id)"/></mask><mask id="satori_om-id-0-0-0-1"><rect x="1" y="1" width="0" height="110" fill="#fff" mask="url(#satori_om-id)"/></mask><mask id="satori_om-id-0-0-1"><rect x="1" y="1" width="0" height="110" fill="#fff" mask="url(#satori_om-id)"/></mask><mask id="satori_om-id-0-0-1-0"><rect x="1" y="1" width="0" height="110" fill="#fff" mask="url(#satori_om-id)"/></mask><mask id="satori_om-id-0-0-1-1"><rect x="1" y="1" width="0" height="110" fill="#fff" mask="url(#satori_om-id)"/></mask><mask id="satori_om-id-0-1"><rect x="1" y="1" width="0" height="110" fill="#fff" mask="url(#satori_om-id)"/></mask><mask id="satori_om-id-0-2"><rect x="1" y="1" width="0" height="110" fill="#fff" mask="url(#satori_om-id)"/></mask><defs><clipPath id="satori_bc-id-1" clip-path="url(#satori_cp-id)"><rect x="1" y="25" width="286" height="61"/></clipPath></defs><mask id="satori_om-id-1"><rect x="1" y="25" width="285" height="61" fill="#fff" mask="url(#satori_om-id)"/><path width="286" height="61" fill="none" stroke="#000" stroke-width="2" d="M287,25 A0,0 0 0 1 287,25 v61 A0,0 0 0 1 287,86"/></mask><path width="286" height="61" clip-path="url(#satori_bc-id-1)" fill="none" stroke="rgba(80,60,180,0.20)" stroke-width="2" d="M287,25 A0,0 0 0 1 287,25 v61 A0,0 0 0 1 287,86"/><mask id="satori_om-id-1-0"><rect x="117" y="25" width="54" height="44" fill="#fff" mask="url(#satori_om-id)"/></mask><g mask="url(#satori_om-id)" clip-path="url(#satori_cp-id)"><path fill="rgba(100,170,255,1)" d="M142.3 63L119.7 63L119.7 58.3L131.0 47.6Q132.5 46.2 133.5 45.1Q134.5 43.9 135.0 42.8Q135.5 41.7 135.5 40.4L135.5 40.4Q135.5 39.0 134.9 37.9Q134.2 36.9 133.1 36.4Q132.0 35.8 130.6 35.8L130.6 35.8Q129.1 35.8 128.0 36.4Q126.8 37.0 126.2 38.1Q125.6 39.2 125.6 40.8L125.6 40.8L119.4 40.8Q119.4 37.7 120.8 35.4Q122.2 33.1 124.8 31.8Q127.3 30.6 130.6 30.6L130.6 30.6Q134.0 30.6 136.5 31.8Q139.1 33.0 140.5 35.1Q141.9 37.2 141.9 40.0L141.9 40.0Q141.9 41.8 141.2 43.5Q140.5 45.3 138.7 47.4Q136.9 49.6 133.6 52.6L133.6 52.6L128.8 57.4L128.8 57.6L142.3 57.6L142.3 63ZM157.2 63.4L157.2 63.4Q153.9 63.4 151.4 62.2Q148.8 61.0 147.3 58.9Q145.8 56.7 145.7 54.0L145.7 54.0L152.1 54.0Q152.2 55.3 152.9 56.2Q153.6 57.2 154.7 57.7Q155.9 58.2 157.2 58.2L157.2 58.2Q158.8 58.2 160.1 57.5Q161.3 56.8 162.0 55.5Q162.7 54.2 162.7 52.5L162.7 52.5Q162.7 50.8 162.0 49.5Q161.3 48.2 160.0 47.4Q158.8 46.7 157.1 46.7L157.1 46.7Q155.7 46.7 154.3 47.3Q153.0 47.9 152.3 48.8L152.3 48.8L146.4 47.8L147.9 31.0L167.3 31.0L167.3 36.4L153.4 36.4L152.5 44.5L152.7 44.5Q153.6 43.3 155.3 42.6Q156.9 41.8 159.0 41.8L159.0 41.8Q161.2 41.8 163.0 42.6Q164.9 43.4 166.2 44.8Q167.6 46.2 168.3 48.1Q169.1 50.1 169.1 52.4L169.1 52.4Q169.1 55.6 167.6 58.1Q166.1 60.6 163.4 62.0Q160.7 63.4 157.2 63.4Z "/></g><mask id="satori_om-id-1-1"><rect x="121" y="74" width="46" height="12" fill="#fff" mask="url(#satori_om-id)"/></mask><g mask="url(#satori_om-id)" clip-path="url(#satori_cp-id)"><path fill="rgba(120,110,170,0.55)" d="M123.1 84L121.7 84L121.7 76.7L124.5 76.7Q125.3 76.7 125.9 77.0Q126.5 77.3 126.8 77.8Q127.1 78.4 127.1 79.1Q127.1 79.8 126.8 80.3Q126.5 80.9 125.9 81.1L125.9 81.1Q125.8 81.1 125.8 81.2L125.8 81.2L127.4 84L125.7 84L124.3 81.4L123.1 81.4L123.1 84ZM123.1 78.0L123.1 80.2L124.2 80.2Q124.7 80.2 125.0 80.1Q125.3 79.9 125.4 79.7Q125.6 79.5 125.6 79.1L125.6 79.1Q125.6 78.7 125.4 78.5Q125.3 78.2 125.0 78.1Q124.7 78.0 124.2 78.0L124.2 78.0L123.1 78.0ZM135.6 84L130.7 84L130.7 76.7L135.6 76.7L135.6 78.0L132.2 78.0L132.2 79.7L135.3 79.7L135.3 80.9L132.2 80.9L132.2 82.8L135.6 82.8L135.6 84ZM140.8 84L139.3 84L139.3 76.7L142.1 76.7Q143.0 76.7 143.5 77.0Q144.1 77.4 144.4 77.9Q144.7 78.5 144.7 79.2L144.7 79.2Q144.7 79.9 144.4 80.5Q144.1 81.0 143.5 81.3Q142.9 81.6 142.1 81.6L142.1 81.6L140.8 81.6L140.8 84ZM140.8 78.0L140.8 80.4L141.9 80.4Q142.3 80.4 142.6 80.3Q142.9 80.1 143.1 79.8Q143.2 79.5 143.2 79.2Q143.2 78.8 143.1 78.5Q142.9 78.3 142.6 78.1Q142.3 78.0 141.9 78.0L141.9 78.0L140.8 78.0ZM151.5 84.1L151.5 84.1Q150.5 84.1 149.7 83.7Q149.0 83.2 148.5 82.4Q148.1 81.5 148.1 80.4L148.1 80.4Q148.1 79.2 148.5 78.3Q149.0 77.5 149.7 77.1Q150.5 76.6 151.5 76.6L151.5 76.6Q152.4 76.6 153.2 77.1Q154.0 77.5 154.4 78.3Q154.9 79.2 154.9 80.4L154.9 80.4Q154.9 81.5 154.4 82.4Q154.0 83.2 153.2 83.7Q152.4 84.1 151.5 84.1ZM151.5 82.8L151.5 82.8Q152.0 82.8 152.5 82.5Q152.9 82.2 153.1 81.7Q153.4 81.1 153.4 80.4L153.4 80.4Q153.4 79.6 153.1 79.0Q152.9 78.5 152.5 78.2Q152.0 78.0 151.5 78.0L151.5 78.0Q150.9 78.0 150.5 78.2Q150.1 78.5 149.8 79.0Q149.6 79.6 149.6 80.4L149.6 80.4Q149.6 81.1 149.8 81.7Q150.1 82.2 150.5 82.5Q150.9 82.8 151.5 82.8ZM161.2 84.1L161.2 84.1Q160.3 84.1 159.6 83.8Q159.0 83.6 158.6 83.0Q158.3 82.5 158.2 81.7L158.2 81.7L159.7 81.7Q159.7 82.1 159.9 82.4Q160.1 82.6 160.4 82.7Q160.7 82.8 161.1 82.8L161.1 82.8Q161.5 82.8 161.8 82.7Q162.1 82.6 162.3 82.4Q162.5 82.2 162.5 81.9L162.5 81.9Q162.5 81.7 162.3 81.5Q162.2 81.3 161.9 81.2Q161.6 81.1 161.2 81.0L161.2 81.0L160.4 80.8Q159.5 80.6 159.0 80.1Q158.4 79.6 158.4 78.8L158.4 78.8Q158.4 78.2 158.8 77.7Q159.1 77.2 159.8 76.9Q160.4 76.6 161.2 76.6L161.2 76.6Q162.0 76.6 162.6 76.9Q163.2 77.2 163.5 77.7Q163.9 78.2 163.9 78.8L163.9 78.8L162.4 78.8Q162.4 78.4 162.0 78.1Q161.7 77.9 161.2 77.9L161.2 77.9Q160.8 77.9 160.5 78.0Q160.2 78.1 160.1 78.3Q160.0 78.5 160.0 78.7L160.0 78.7Q160.0 79.0 160.1 79.2Q160.3 79.3 160.6 79.5Q160.8 79.6 161.1 79.6L161.1 79.6L161.8 79.8Q162.2 79.9 162.6 80.1Q163.0 80.3 163.3 80.5Q163.6 80.8 163.8 81.1Q164.0 81.5 164.0 81.9L164.0 81.9Q164.0 82.6 163.6 83.1Q163.3 83.6 162.7 83.8Q162.0 84.1 161.2 84.1Z "/></g><defs><clipPath id="satori_bc-id-2" clip-path="url(#satori_cp-id)"><rect x="287" y="25" width="287" height="61"/></clipPath></defs><mask id="satori_om-id-2"><rect x="287" y="25" width="286" height="61" fill="#fff" mask="url(#satori_om-id)"/><path width="287" height="61" fill="none" stroke="#000" stroke-width="2" d="M574,25 A0,0 0 0 1 574,25 v61 A0,0 0 0 1 574,86"/></mask><path width="287" height="61" clip-path="url(#satori_bc-id-2)" fill="none" stroke="rgba(80,60,180,0.20)" stroke-width="2" d="M574,25 A0,0 0 0 1 574,25 v61 A0,0 0 0 1 574,86"/><mask id="satori_om-id-2-0"><rect x="393" y="25" width="73" height="44" fill="#fff" mask="url(#satori_om-id)"/></mask><g mask="url(#satori_om-id)" clip-path="url(#satori_cp-id)"><path fill="rgba(255,200,80,1)" d="M402.1 31.0L409.1 31.0L409.1 63L402.5 63L402.5 36.8L402.3 36.8L395.0 42.0L395.0 36.0L402.1 31.0ZM436.3 63L413.6 63L413.6 58.3L425.0 47.6Q426.4 46.2 427.4 45.1Q428.4 43.9 429.0 42.8Q429.5 41.7 429.5 40.4L429.5 40.4Q429.5 39.0 428.8 37.9Q428.2 36.9 427.1 36.4Q426.0 35.8 424.5 35.8L424.5 35.8Q423.0 35.8 421.9 36.4Q420.8 37.0 420.2 38.1Q419.6 39.2 419.6 40.8L419.6 40.8L413.3 40.8Q413.3 37.7 414.8 35.4Q416.2 33.1 418.7 31.8Q421.3 30.6 424.6 30.6L424.6 30.6Q428.0 30.6 430.5 31.8Q433.0 33.0 434.4 35.1Q435.8 37.2 435.8 40.0L435.8 40.0Q435.8 41.8 435.2 43.5Q434.5 45.3 432.7 47.4Q430.9 49.6 427.6 52.6L427.6 52.6L422.7 57.4L422.7 57.6L436.3 57.6L436.3 63ZM452.0 63.4L452.0 63.4Q448.4 63.4 445.6 62.2Q442.9 61.1 441.3 59.0Q439.7 57.0 439.7 54.4L439.7 54.4Q439.7 52.4 440.6 50.7Q441.5 49.0 443.1 47.9Q444.6 46.8 446.6 46.5L446.6 46.5L446.6 46.3Q444.0 45.7 442.5 43.8Q440.9 41.8 440.9 39.2L440.9 39.2Q440.9 36.7 442.3 34.7Q443.7 32.8 446.3 31.7Q448.8 30.6 452.0 30.6L452.0 30.6Q455.2 30.6 457.7 31.7Q460.2 32.8 461.7 34.7Q463.1 36.7 463.1 39.2L463.1 39.2Q463.1 41.8 461.5 43.8Q459.9 45.7 457.4 46.3L457.4 46.3L457.4 46.5Q459.3 46.8 460.9 47.9Q462.5 49.0 463.4 50.7Q464.3 52.4 464.3 54.4L464.3 54.4Q464.3 57.0 462.7 59.0Q461.1 61.1 458.4 62.2Q455.6 63.4 452.0 63.4ZM452.0 58.6L452.0 58.6Q453.6 58.6 454.9 58.0Q456.1 57.4 456.8 56.3Q457.5 55.3 457.5 53.9L457.5 53.9Q457.5 52.5 456.8 51.4Q456.1 50.3 454.8 49.7Q453.6 49.0 452.0 49.0L452.0 49.0Q450.4 49.0 449.2 49.7Q447.9 50.3 447.2 51.4Q446.5 52.5 446.5 53.9L446.5 53.9Q446.5 55.3 447.2 56.3Q447.9 57.4 449.1 58.0Q450.4 58.6 452.0 58.6ZM452.0 44.2L452.0 44.2Q453.4 44.2 454.4 43.7Q455.5 43.1 456.1 42.1Q456.7 41.1 456.7 39.9L456.7 39.9Q456.7 38.6 456.1 37.6Q455.5 36.6 454.5 36.1Q453.4 35.6 452.0 35.6L452.0 35.6Q450.6 35.6 449.5 36.1Q448.5 36.6 447.9 37.6Q447.3 38.6 447.3 39.9L447.3 39.9Q447.3 41.1 447.9 42.1Q448.5 43.1 449.5 43.7Q450.6 44.2 452.0 44.2Z "/></g><mask id="satori_om-id-2-1"><rect x="406" y="74" width="47" height="12" fill="#fff" mask="url(#satori_om-id)"/></mask><g mask="url(#satori_om-id)" clip-path="url(#satori_cp-id)"><path fill="rgba(120,110,170,0.55)" d="M409.3 84.1L409.3 84.1Q408.5 84.1 407.8 83.8Q407.2 83.6 406.8 83.0Q406.4 82.5 406.4 81.7L406.4 81.7L407.9 81.7Q407.9 82.1 408.1 82.4Q408.3 82.6 408.6 82.7Q408.9 82.8 409.3 82.8L409.3 82.8Q409.7 82.8 410.0 82.7Q410.3 82.6 410.5 82.4Q410.6 82.2 410.6 81.9L410.6 81.9Q410.6 81.7 410.5 81.5Q410.3 81.3 410.1 81.2Q409.8 81.1 409.4 81.0L409.4 81.0L408.6 80.8Q407.7 80.6 407.1 80.1Q406.6 79.6 406.6 78.8L406.6 78.8Q406.6 78.2 407.0 77.7Q407.3 77.2 407.9 76.9Q408.6 76.6 409.3 76.6L409.3 76.6Q410.2 76.6 410.8 76.9Q411.4 77.2 411.7 77.7Q412.0 78.2 412.0 78.8L412.0 78.8L410.6 78.8Q410.6 78.4 410.2 78.1Q409.9 77.9 409.3 77.9L409.3 77.9Q409.0 77.9 408.7 78.0Q408.4 78.1 408.3 78.3Q408.1 78.5 408.1 78.7L408.1 78.7Q408.1 79.0 408.3 79.2Q408.5 79.3 408.7 79.5Q409.0 79.6 409.3 79.6L409.3 79.6L410.0 79.8Q410.4 79.9 410.8 80.1Q411.2 80.3 411.5 80.5Q411.8 80.8 412.0 81.1Q412.1 81.5 412.1 81.9L412.1 81.9Q412.1 82.6 411.8 83.1Q411.5 83.6 410.8 83.8Q410.2 84.1 409.3 84.1ZM417.6 78.0L415.4 78.0L415.4 76.7L421.4 76.7L421.4 78.0L419.1 78.0L419.1 84L417.6 84L417.6 78.0ZM426.1 84L424.5 84L426.9 76.7L428.9 76.7L431.4 84L429.8 84L429.2 82.3L426.6 82.3L426.1 84ZM427.0 81.1L428.8 81.1L428.6 80.5Q428.4 79.8 428.2 79L428.2 79Q428.1 78.5 427.9 77.9L427.9 77.9Q427.8 78.5 427.6 79.0L427.6 79.0Q427.4 79.8 427.2 80.5L427.2 80.5L427.0 81.1ZM436.3 84L434.8 84L434.8 76.7L437.7 76.7Q438.5 76.7 439.1 77.0Q439.7 77.3 440.0 77.8Q440.3 78.4 440.3 79.1Q440.3 79.8 440.0 80.3Q439.7 80.9 439.1 81.1L439.1 81.1Q439.0 81.1 439.0 81.2L439.0 81.2L440.5 84L438.9 84L437.5 81.4L436.3 81.4L436.3 84ZM436.3 78.0L436.3 80.2L437.4 80.2Q437.9 80.2 438.2 80.1Q438.5 79.9 438.6 79.7Q438.7 79.5 438.7 79.1L438.7 79.1Q438.7 78.7 438.6 78.5Q438.5 78.2 438.2 78.1Q437.9 78.0 437.4 78.0L437.4 78.0L436.3 78.0ZM446.6 84.1L446.6 84.1Q445.7 84.1 445.1 83.8Q444.4 83.6 444.1 83.0Q443.7 82.5 443.7 81.7L443.7 81.7L445.1 81.7Q445.2 82.1 445.3 82.4Q445.5 82.6 445.8 82.7Q446.2 82.8 446.6 82.8L446.6 82.8Q447.0 82.8 447.3 82.7Q447.6 82.6 447.7 82.4Q447.9 82.2 447.9 81.9L447.9 81.9Q447.9 81.7 447.7 81.5Q447.6 81.3 447.3 81.2Q447.0 81.1 446.6 81.0L446.6 81.0L445.8 80.8Q444.9 80.6 444.4 80.1Q443.9 79.6 443.9 78.8L443.9 78.8Q443.9 78.2 444.2 77.7Q444.6 77.2 445.2 76.9Q445.8 76.6 446.6 76.6L446.6 76.6Q447.4 76.6 448.0 76.9Q448.6 77.2 448.9 77.7Q449.3 78.2 449.3 78.8L449.3 78.8L447.9 78.8Q447.8 78.4 447.5 78.1Q447.1 77.9 446.6 77.9L446.6 77.9Q446.2 77.9 445.9 78.0Q445.7 78.1 445.5 78.3Q445.4 78.5 445.4 78.7L445.4 78.7Q445.4 79.0 445.6 79.2Q445.7 79.3 446.0 79.5Q446.3 79.6 446.6 79.6L446.6 79.6L447.2 79.8Q447.7 79.9 448.1 80.1Q448.5 80.3 448.8 80.5Q449.1 80.8 449.2 81.1Q449.4 81.5 449.4 81.9L449.4 81.9Q449.4 82.6 449.1 83.1Q448.7 83.6 448.1 83.8Q447.5 84.1 446.6 84.1Z "/></g><mask id="satori_om-id-3"><rect x="574" y="25" width="285" height="61" fill="#fff" mask="url(#satori_om-id)"/></mask><mask id="satori_om-id-3-0"><rect x="668" y="25" width="98" height="44" fill="#fff" mask="url(#satori_om-id)"/></mask><g mask="url(#satori_om-id)" clip-path="url(#satori_cp-id)"><path fill="rgba(180,130,255,1)" d="M677.1 31.0L684.1 31.0L684.1 63L677.5 63L677.5 36.8L677.3 36.8L670.0 42.0L670.0 36.0L677.1 31.0ZM699.5 63.4L699.5 63.4Q696.2 63.4 693.6 62.2Q691.0 61.0 689.5 58.9Q688.1 56.7 688.0 54.0L688.0 54.0L694.4 54.0Q694.4 55.3 695.1 56.2Q695.8 57.2 697.0 57.7Q698.1 58.2 699.5 58.2L699.5 58.2Q701.1 58.2 702.3 57.5Q703.5 56.8 704.3 55.5Q705.0 54.2 705.0 52.5L705.0 52.5Q705.0 50.8 704.2 49.5Q703.5 48.2 702.3 47.4Q701.0 46.7 699.4 46.7L699.4 46.7Q697.9 46.7 696.6 47.3Q695.3 47.9 694.5 48.8L694.5 48.8L688.7 47.8L690.2 31.0L709.6 31.0L709.6 36.4L695.6 36.4L694.8 44.5L695.0 44.5Q695.8 43.3 697.5 42.6Q699.2 41.8 701.3 41.8L701.3 41.8Q703.4 41.8 705.3 42.6Q707.1 43.4 708.5 44.8Q709.8 46.2 710.6 48.1Q711.3 50.1 711.3 52.4L711.3 52.4Q711.3 55.6 709.8 58.1Q708.3 60.6 705.7 62.0Q703.0 63.4 699.5 63.4ZM729.8 57.3L714.5 57.3L714.5 52.1L727.9 31.0L736.1 31.0L736.1 52.0L740.1 52.0L740.1 57.3L736.1 57.3L736.1 63L729.8 63L729.8 57.3ZM721.1 52.0L730.0 52.0L730.0 38.2L729.7 38.2L721.1 51.8L721.1 52.0ZM751.7 63L744.9 63L758.2 36.6L758.2 36.4L742.7 36.4L742.7 31.0L765.1 31.0L765.1 36.5L751.7 63Z "/></g><mask id="satori_om-id-3-1"><rect x="683" y="74" width="68" height="12" fill="#fff" mask="url(#satori_om-id)"/></mask><g mask="url(#satori_om-id)" clip-path="url(#satori_cp-id)"><path fill="rgba(120,110,170,0.55)" d="M686.8 84.1L686.8 84.1Q685.9 84.1 685.1 83.7Q684.3 83.2 683.9 82.4Q683.5 81.5 683.5 80.4L683.5 80.4Q683.5 79.2 683.9 78.3Q684.3 77.5 685.1 77.1Q685.9 76.6 686.8 76.6L686.8 76.6Q687.5 76.6 688.0 76.8Q688.5 77.0 688.9 77.3Q689.4 77.6 689.6 78.1Q689.9 78.6 690.0 79.2L690.0 79.2L688.5 79.2Q688.4 78.9 688.3 78.7Q688.1 78.4 687.9 78.3Q687.7 78.1 687.4 78.0Q687.2 78.0 686.9 78.0L686.9 78.0Q686.3 78.0 685.9 78.2Q685.4 78.5 685.2 79.1Q685.0 79.6 685.0 80.4L685.0 80.4Q685.0 81.2 685.2 81.7Q685.5 82.2 685.9 82.5Q686.3 82.8 686.9 82.8L686.9 82.8Q687.2 82.8 687.4 82.7Q687.7 82.6 687.9 82.4Q688.1 82.3 688.3 82.0Q688.4 81.8 688.5 81.5L688.5 81.5L690.0 81.5Q689.9 82.0 689.7 82.5Q689.4 82.9 689.0 83.3Q688.6 83.7 688.1 83.9Q687.5 84.1 686.8 84.1ZM696.8 84.1L696.8 84.1Q695.8 84.1 695.0 83.7Q694.3 83.2 693.8 82.4Q693.4 81.5 693.4 80.4L693.4 80.4Q693.4 79.2 693.8 78.3Q694.3 77.5 695.0 77.1Q695.8 76.6 696.8 76.6L696.8 76.6Q697.7 76.6 698.5 77.1Q699.3 77.5 699.7 78.3Q700.1 79.2 700.1 80.4L700.1 80.4Q700.1 81.5 699.7 82.4Q699.3 83.2 698.5 83.7Q697.7 84.1 696.8 84.1ZM696.8 82.8L696.8 82.8Q697.3 82.8 697.7 82.5Q698.2 82.2 698.4 81.7Q698.6 81.1 698.6 80.4L698.6 80.4Q698.6 79.6 698.4 79.0Q698.2 78.5 697.7 78.2Q697.3 78.0 696.8 78.0L696.8 78.0Q696.2 78.0 695.8 78.2Q695.3 78.5 695.1 79.0Q694.9 79.6 694.9 80.4L694.9 80.4Q694.9 81.1 695.1 81.7Q695.3 82.2 695.8 82.5Q696.2 82.8 696.8 82.8ZM705.2 84L703.8 84L703.8 76.7L706.0 76.7L707.2 80.1Q707.3 80.3 707.4 80.7Q707.5 81.0 707.6 81.5L707.6 81.5Q707.7 81.9 707.8 82.3L707.8 82.3Q707.9 81.9 707.9 81.5L707.9 81.5Q708.0 81.1 708.1 80.7Q708.2 80.3 708.3 80.1L708.3 80.1L709.5 76.7L711.8 76.7L711.8 84L710.3 84L710.3 80.6Q710.3 80.3 710.3 80.0Q710.3 79.6 710.3 79.2Q710.3 78.8 710.3 78.4L710.3 78.4Q710.3 78.2 710.3 78.0L710.3 78.0Q710.3 78.2 710.2 78.4L710.2 78.4Q710.1 78.9 710.0 79.3Q709.9 79.7 709.8 80.0Q709.7 80.3 709.6 80.6L709.6 80.6L708.4 84L707.1 84L705.9 80.6Q705.8 80.3 705.7 80.0Q705.6 79.7 705.5 79.3Q705.4 78.9 705.3 78.4L705.3 78.4Q705.2 78.2 705.2 78.1L705.2 78.1Q705.2 78.2 705.2 78.4L705.2 78.4Q705.2 78.8 705.2 79.2Q705.2 79.6 705.2 80.0Q705.2 80.3 705.2 80.6L705.2 80.6L705.2 84ZM717.1 84L715.6 84L715.6 76.7L717.9 76.7L719.0 80.1Q719.1 80.3 719.2 80.7Q719.3 81.0 719.4 81.5L719.4 81.5Q719.5 81.9 719.6 82.3L719.6 82.3Q719.7 81.9 719.8 81.5L719.8 81.5Q719.9 81.1 720.0 80.7Q720.1 80.3 720.1 80.1L720.1 80.1L721.3 76.7L723.6 76.7L723.6 84L722.1 84L722.1 80.6Q722.1 80.3 722.1 80.0Q722.1 79.6 722.1 79.2Q722.1 78.8 722.1 78.4L722.1 78.4Q722.1 78.2 722.1 78.0L722.1 78.0Q722.1 78.2 722.0 78.4L722.0 78.4Q721.9 78.9 721.8 79.3Q721.7 79.7 721.6 80.0Q721.5 80.3 721.4 80.6L721.4 80.6L720.2 84L719.0 84L717.7 80.6Q717.7 80.3 717.6 80.0Q717.4 79.7 717.3 79.3Q717.2 78.9 717.1 78.4L717.1 78.4Q717.1 78.2 717.0 78.1L717.0 78.1Q717.0 78.2 717.0 78.4L717.0 78.4Q717.0 78.8 717.0 79.2Q717.0 79.6 717.1 80.0Q717.1 80.3 717.1 80.6L717.1 80.6L717.1 84ZM727.4 76.7L728.9 76.7L728.9 84L727.4 84L727.4 76.7ZM734.6 78.0L732.4 78.0L732.4 76.7L738.4 76.7L738.4 78.0L736.1 78.0L736.1 84L734.6 84L734.6 78.0ZM744.5 84.1L744.5 84.1Q743.7 84.1 743.0 83.8Q742.4 83.6 742.0 83.0Q741.7 82.5 741.6 81.7L741.6 81.7L743.1 81.7Q743.1 82.1 743.3 82.4Q743.5 82.6 743.8 82.7Q744.1 82.8 744.5 82.8L744.5 82.8Q744.9 82.8 745.2 82.7Q745.5 82.6 745.7 82.4Q745.9 82.2 745.9 81.9L745.9 81.9Q745.9 81.7 745.7 81.5Q745.6 81.3 745.3 81.2Q745.0 81.1 744.6 81.0L744.6 81.0L743.8 80.8Q742.9 80.6 742.4 80.1Q741.8 79.6 741.8 78.8L741.8 78.8Q741.8 78.2 742.2 77.7Q742.5 77.2 743.2 76.9Q743.8 76.6 744.6 76.6L744.6 76.6Q745.4 76.6 746.0 76.9Q746.6 77.2 746.9 77.7Q747.2 78.2 747.3 78.8L747.3 78.8L745.8 78.8Q745.8 78.4 745.4 78.1Q745.1 77.9 744.5 77.9L744.5 77.9Q744.2 77.9 743.9 78.0Q743.6 78.1 743.5 78.3Q743.4 78.5 743.4 78.7L743.4 78.7Q743.4 79.0 743.5 79.2Q743.7 79.3 743.9 79.5Q744.2 79.6 744.5 79.6L744.5 79.6L745.2 79.8Q745.6 79.9 746.0 80.1Q746.4 80.3 746.7 80.5Q747.0 80.8 747.2 81.1Q747.4 81.5 747.4 81.9L747.4 81.9Q747.4 82.6 747.0 83.1Q746.7 83.6 746.1 83.8Q745.4 84.1 744.5 84.1Z "/></g></svg>