<!-- Generated by readme-aura https://github.com/collectioneur/readme-aura -->
<svg width="150" height="44" viewBox="0 0 150 44" xmlns="http://www.w3.org/2000/svg"><defs><clipPath id="satori_bc-id"><path x="0" y="0" width="150" height="44" d="M22,0 h106 a22,22 0 0 1 22,22 v0 a22,22 0 0 1 -22,22 h-106 a22,22 0 0 1 -22,-22 v0 a22,22 0 0 1 22,-22"/></clipPath></defs><mask id="satori_om-id"><rect x="1" y="1" width="148" height="42" fill="#fff"/><path width="150" height="44" fill="none" stroke="#000" stroke-width="2" d="M6.444000000000001,6.444000000000001 A22,22 0 0 1 22,0 h106 a22,22 0 0 1 22,22 v0 a22,22 0 0 1 -22,22 h-106 a22,22 0 0 1 -22,-22 v0 A22,22 0 0 1 6.444000000000001,6.444000000000001"/></mask><path x="0" y="0" width="150" height="44" fill="#0f0f0f" d="M22,0 h106 a22,22 0 0 1 22,22 v0 a22,22 0 0 1 -22,22 h-106 a22,22 0 0 1 -22,-22 v0 a22,22 0 0 1 22,-22"/><path width="150" height="44" clip-path="url(#satori_bc-id)" fill="none" stroke="rgba(29,161,242,0.5)" stroke-width="2" d="M6.444000000000001,6.444000000000001 A22,22 0 0 1 22,0 h106 a22,22 0 0 1 22,22 v0 a22,22 0 0 1 -22,22 h-106 a22,22 0 0 1 -22,-22 v0 A22,22 0 0 1 6.444000000000001,6.444000000000001"/><mask id="satori_om-id-0"><rect x="42" y="14" width="67" height="16" fill="#fff"/></mask><g  ><path fill="#e0e0e0" d="M45.4 19.1L42.5 19.1L42.5 17.5L50.2 17.5L50.2 19.1L47.3 19.1L47.3 27L45.4 27L45.4 19.1ZM54.9 27L53.0 27L50.9 19.9L52.9 19.9L53.5 22.5Q53.6 23.2 53.8 24.1L53.8 24.1Q54.0 24.6 54.1 25.3L54.1 25.3Q54.2 24.6 54.3 24.1L54.3 24.1Q54.5 23.2 54.7 22.5L54.7 22.5L55.3 19.9L57.1 19.9L57.7 22.5Q57.9 23.2 58.1 24.1L58.1 24.1Q58.2 24.6 58.3 25.3L58.3 25.3Q58.4 24.6 58.6 24.1L58.6 24.1Q58.7 23.2 58.9 22.5L58.9 22.5L59.5 19.9L61.5 19.9L59.4 27L57.5 27L56.7 24.3Q56.6 23.9 56.5 23.4Q56.4 22.9 56.3 22.3L56.3 22.3Q56.2 22.2 56.2 22.1L56.2 22.1Q56.2 22.2 56.1 22.3L56.1 22.3Q56.0 22.9 55.9 23.4Q55.8 23.9 55.7 24.3L55.7 24.3L54.9 27ZM64.4 27L62.5 27L62.5 19.9L64.4 19.9L64.4 27ZM63.5 19.0L63.5 19.0Q63.1 19.0 62.8 18.7Q62.5 18.4 62.5 18.0L62.5 18.0Q62.5 17.6 62.8 17.3Q63.1 17.0 63.5 17.0L63.5 17.0Q63.9 17.0 64.2 17.3Q64.5 17.6 64.5 18.0L64.5 18.0Q64.5 18.4 64.2 18.7Q63.9 19.0 63.5 19.0ZM68.3 19.9L69.6 19.9L69.6 21.4L68.3 21.4L68.3 24.9Q68.3 25.3 68.4 25.4Q68.6 25.6 68.9 25.6L68.9 25.6Q69.0 25.6 69.2 25.6Q69.4 25.5 69.5 25.5L69.5 25.5L69.8 26.9Q69.5 27.0 69.2 27.1Q68.8 27.1 68.6 27.1L68.6 27.1Q67.5 27.1 66.9 26.6Q66.4 26.1 66.4 25.1L66.4 25.1L66.4 21.4L65.4 21.4L65.4 19.9L66.4 19.9L66.4 18.2L68.3 18.2L68.3 19.9ZM73.0 19.9L74.3 19.9L74.3 21.4L73.0 21.4L73.0 24.9Q73.0 25.3 73.2 25.4Q73.3 25.6 73.7 25.6L73.7 25.6Q73.8 25.6 74.0 25.6Q74.2 25.5 74.3 25.5L74.3 25.5L74.5 26.9Q74.2 27.0 73.9 27.1Q73.6 27.1 73.3 27.1L73.3 27.1Q72.2 27.1 71.7 26.6Q71.1 26.1 71.1 25.1L71.1 25.1L71.1 21.4L70.1 21.4L70.1 19.9L71.1 19.9L71.1 18.2L73.0 18.2L73.0 19.9ZM78.8 27.1L78.8 27.1Q77.7 27.1 76.9 26.7Q76.1 26.3 75.7 25.4Q75.3 24.6 75.3 23.5L75.3 23.5Q75.3 22.4 75.7 21.6Q76.1 20.7 76.9 20.3Q77.7 19.8 78.7 19.8L78.7 19.8Q79.4 19.8 80.0 20.0Q80.6 20.3 81.1 20.7Q81.5 21.2 81.8 21.8Q82.0 22.5 82.0 23.4L82.0 23.4L82.0 23.9L77.2 23.9Q77.2 24.5 77.4 24.9L77.4 24.9Q77.6 25.3 78.0 25.5Q78.3 25.7 78.8 25.7L78.8 25.7Q79.2 25.7 79.4 25.6Q79.7 25.5 79.9 25.3Q80.1 25.1 80.2 24.9L80.2 24.9L81.9 25.2Q81.7 25.8 81.3 26.2Q80.9 26.7 80.3 26.9Q79.6 27.1 78.8 27.1ZM77.2 22.8L77.2 22.8L80.2 22.8Q80.2 22.4 80.0 22.1L80.0 22.1Q79.9 21.7 79.5 21.5Q79.2 21.2 78.7 21.2L78.7 21.2Q78.2 21.2 77.9 21.5Q77.5 21.7 77.4 22.1L77.4 22.1Q77.2 22.4 77.2 22.8ZM85.2 27L83.3 27L83.3 19.9L85.2 19.9L85.2 21.1L85.2 21.1Q85.4 20.5 85.9 20.1Q86.4 19.8 87.0 19.8L87.0 19.8Q87.1 19.8 87.3 19.8Q87.4 19.8 87.6 19.9L87.6 19.9L87.6 21.6Q87.4 21.5 87.2 21.5Q87.0 21.5 86.8 21.5L86.8 21.5Q86.3 21.5 86.0 21.7Q85.6 21.9 85.4 22.2Q85.2 22.5 85.2 23.0L85.2 23.0L85.2 27Z M94.1 17.1L95.8 17.1L92.7 28.4L91.1 28.4L94.1 17.1Z M101.6 27L99.3 27L102.7 22.2L99.6 17.5L101.9 17.5L102.9 19.1Q103.2 19.6 103.4 19.9Q103.6 20.3 103.8 20.6L103.8 20.6Q103.8 20.7 103.8 20.8L103.8 20.8Q103.9 20.7 103.9 20.6L103.9 20.6Q104.1 20.3 104.3 19.9Q104.5 19.6 104.8 19.1L104.8 19.1L105.8 17.5L108.0 17.5L104.9 22.1L108.3 27L106.0 27L104.7 25.0Q104.4 24.6 104.3 24.3Q104.1 24.1 104.0 23.8L104.0 23.8Q103.9 23.7 103.8 23.5L103.8 23.5Q103.7 23.7 103.7 23.8L103.7 23.8Q103.5 24.1 103.4 24.3Q103.2 24.6 102.9 25.0L102.9 25.0L101.6 27Z "/></g></svg>