<!-- Generated by readme-aura https://github.com/collectioneur/readme-aura -->
<svg width="860" height="140" viewBox="0 0 860 140" xmlns="http://www.w3.org/2000/svg"><defs><clipPath id="satori_bc-id"><path x="0" y="0" width="860" height="140" d="M16,0 h828 a16,16 0 0 1 16,16 v108 a16,16 0 0 1 -16,16 h-828 a16,16 0 0 1 -16,-16 v-108 a16,16 0 0 1 16,-16"/></clipPath></defs><clipPath id="satori_cp-id"><path x="0" y="0" width="860" height="140" d="M16,0 h828 a16,16 0 0 1 16,16 v108 a16,16 0 0 1 -16,16 h-828 a16,16 0 0 1 -16,-16 v-108 a16,16 0 0 1 16,-16"/></clipPath><mask id="satori_om-id"><rect x="1" y="1" width="858" height="138" fill="#fff"/><path width="860" height="140" fill="none" stroke="#000" stroke-width="2" d="M4.686,4.686 A16,16 0 0 1 16,0 h828 a16,16 0 0 1 16,16 v108 a16,16 0 0 1 -16,16 h-828 a16,16 0 0 1 -16,-16 v-108 A16,16 0 0 1 4.686,4.686"/></mask><path x="0" y="0" width="860" height="140" fill="#08080c" d="M16,0 h828 a16,16 0 0 1 16,16 v108 a16,16 0 0 1 -16,16 h-828 a16,16 0 0 1 -16,-16 v-108 a16,16 0 0 1 16,-16"/><path width="860" height="140" clip-path="url(#satori_bc-id)" fill="none" stroke="rgba(120,130,255,0.10)" stroke-width="2" d="M4.686,4.686 A16,16 0 0 1 16,0 h828 a16,16 0 0 1 16,16 v108 a16,16 0 0 1 -16,16 h-828 a16,16 0 0 1 -16,-16 v-108 A16,16 0 0 1 4.686,4.686"/><clipPath id="satori_cp-id-0" clip-path="url(#satori_cp-id)"><rect x="1" y="1" width="860" height="140"/></clipPath><mask id="satori_om-id-0"><rect x="1" y="1" width="860" height="140" fill="#fff" mask="url(#satori_om-id)"/></mask><svg x="1" y="1" width="860" height="140" preserveAspectRatio="none" clip-path="url(#satori_cp-id-0)" mask="url(#satori_om-id-0)"><defs><radialGradient id="sg1"><stop offset="0%" stop-color="rgba(120,140,255,0.22)"></stop><stop offset="70%" stop-color="rgba(120,140,255,0)"></stop></radialGradient><radialGradient id="sg2"><stop offset="0%" stop-color="rgba(80,180,255,0.18)"></stop><stop offset="70%" stop-color="rgba(80,180,255,0)"></stop></radialGradient></defs><ellipse id="bg-a" cx="640" cy="150" rx="240" ry="160" fill="url(#sg1)"></ellipse><ellipse id="bg-b" cx="220" cy="130" rx="220" ry="140" fill="url(#sg2)"></ellipse><style>

       @keyframes drift-a {
         0%,100% { transform:translateX(0px); opacity:0.45; }
         50% { transform:translateX(220px); opacity:0.75; }
       }

       @keyframes drift-b {
         0%,100% { transform:translateX(0px); opacity:0.35; }
         50% { transform:translateX(-160px); opacity:0.65; }
       }

       #bg-a { animation: drift-a 12s ease-in-out infinite; }
       #bg-b { animation: drift-b 15s ease-in-out infinite; }
     
</style>
</svg><mask id="satori_om-id-0-0"><rect x="1" y="1" width="0" height="140" fill="#fff" mask="url(#satori_om-id)"/></mask><mask id="satori_om-id-0-0-0"><rect x="1" y="1" width="0" height="140" fill="#fff" mask="url(#satori_om-id)"/></mask><mask id="satori_om-id-0-0-0-0"><rect x="1" y="1" width="0" height="140" fill="#fff" mask="url(#satori_om-id)"/></mask><mask id="satori_om-id-0-0-0-1"><rect x="1" y="1" width="0" height="140" fill="#fff" mask="url(#satori_om-id)"/></mask><mask id="satori_om-id-0-0-1"><rect x="1" y="1" width="0" height="140" fill="#fff" mask="url(#satori_om-id)"/></mask><mask id="satori_om-id-0-0-1-0"><rect x="1" y="1" width="0" height="140" fill="#fff" mask="url(#satori_om-id)"/></mask><mask id="satori_om-id-0-0-1-1"><rect x="1" y="1" width="0" height="140" fill="#fff" mask="url(#satori_om-id)"/></mask><mask id="satori_om-id-0-1"><rect x="1" y="1" width="0" height="140" fill="#fff" mask="url(#satori_om-id)"/></mask><mask id="satori_om-id-0-2"><rect x="1" y="1" width="0" height="140" fill="#fff" mask="url(#satori_om-id)"/></mask><defs><clipPath id="satori_bc-id-1" clip-path="url(#satori_cp-id)"><rect x="1" y="30" width="273" height="80"/></clipPath></defs><mask id="satori_om-id-1"><rect x="1" y="30" width="272" height="80" fill="#fff" mask="url(#satori_om-id)"/><path width="273" height="80" fill="none" stroke="#000" stroke-width="2" d="M274,30 A0,0 0 0 1 274,30 v80 A0,0 0 0 1 274,110"/></mask><path width="273" height="80" clip-path="url(#satori_bc-id-1)" fill="none" stroke="rgba(255,255,255,0.05)" stroke-width="2" d="M274,30 A0,0 0 0 1 274,30 v80 A0,0 0 0 1 274,110"/><mask id="satori_om-id-1-0"><rect x="117" y="46" width="41" height="30" fill="#fff" mask="url(#satori_om-id)"/></mask><g mask="url(#satori_om-id)" clip-path="url(#satori_cp-id)"><path fill="rgba(180,190,255,0.92)" d="M128.9 68.1L118.5 68.1L118.5 64.6L127.6 50.2L133.2 50.2L133.2 64.5L135.9 64.5L135.9 68.1L133.2 68.1L133.2 72L128.9 72L128.9 68.1ZM123.0 64.5L129.0 64.5L129.0 55.1L128.8 55.1L123.0 64.3L123.0 64.5ZM149.2 68.1L138.8 68.1L138.8 64.6L147.9 50.2L153.5 50.2L153.5 64.5L156.2 64.5L156.2 68.1L153.5 68.1L153.5 72L149.2 72L149.2 68.1ZM143.3 64.5L149.3 64.5L149.3 55.1L149.1 55.1L143.3 64.3L143.3 64.5Z "/></g><mask id="satori_om-id-1-1"><rect x="115" y="81" width="45" height="13" fill="#fff" mask="url(#satori_om-id)"/></mask><g mask="url(#satori_om-id)" clip-path="url(#satori_cp-id)"><path fill="rgba(210,215,255,0.42)" d="M117.4 92L115.7 92L115.7 84.0L118.8 84.0Q119.8 84.0 120.4 84.3Q121.0 84.6 121.4 85.2Q121.7 85.8 121.7 86.6Q121.7 87.4 121.4 88.0Q121.0 88.5 120.4 88.8L120.4 88.8Q120.3 88.9 120.3 88.9L120.3 88.9L122.0 92L120.2 92L118.6 89.1L117.4 89.1L117.4 92ZM117.4 85.4L117.4 87.8L118.5 87.8Q119.0 87.8 119.4 87.7Q119.7 87.5 119.9 87.3Q120.0 87.0 120.0 86.6L120.0 86.6Q120.0 86.2 119.9 85.9Q119.7 85.6 119.4 85.5Q119.0 85.4 118.5 85.4L118.5 85.4L117.4 85.4ZM129.8 92L124.4 92L124.4 84.0L129.8 84.0L129.8 85.4L126.1 85.4L126.1 87.3L129.5 87.3L129.5 88.6L126.1 88.6L126.1 90.6L129.8 90.6L129.8 92ZM134.3 92L132.6 92L132.6 84.0L135.8 84.0Q136.7 84.0 137.3 84.3Q137.9 84.7 138.3 85.3Q138.6 85.9 138.6 86.7L138.6 86.7Q138.6 87.5 138.3 88.1Q137.9 88.7 137.3 89.0Q136.6 89.4 135.7 89.4L135.7 89.4L134.3 89.4L134.3 92ZM134.3 85.4L134.3 88.1L135.5 88.1Q136.0 88.1 136.3 87.9Q136.6 87.7 136.8 87.4Q136.9 87.1 136.9 86.7Q136.9 86.3 136.8 86.0Q136.6 85.7 136.3 85.5Q136.0 85.4 135.4 85.4L135.4 85.4L134.3 85.4ZM144.8 92.1L144.8 92.1Q143.7 92.1 142.9 91.6Q142.0 91.1 141.5 90.2Q141.0 89.3 141.0 88.0L141.0 88.0Q141.0 86.7 141.5 85.8Q142.0 84.9 142.9 84.4Q143.7 83.9 144.8 83.9L144.8 83.9Q145.8 83.9 146.7 84.4Q147.5 84.9 148.0 85.8Q148.5 86.7 148.5 88.0L148.5 88.0Q148.5 89.3 148.0 90.2Q147.5 91.1 146.7 91.6Q145.8 92.1 144.8 92.1ZM144.8 90.7L144.8 90.7Q145.4 90.7 145.9 90.3Q146.3 90.0 146.6 89.5Q146.8 88.9 146.8 88.0L146.8 88.0Q146.8 87.1 146.6 86.5Q146.3 86.0 145.9 85.6Q145.4 85.3 144.8 85.3L144.8 85.3Q144.2 85.3 143.7 85.7Q143.2 86.0 143.0 86.6Q142.7 87.1 142.7 88.0L142.7 88.0Q142.7 88.9 143.0 89.4Q143.2 90.0 143.7 90.3Q144.2 90.7 144.8 90.7ZM154.2 92.1L154.2 92.1Q153.2 92.1 152.5 91.8Q151.8 91.5 151.4 90.9Q151.0 90.4 151.0 89.5L151.0 89.5L152.6 89.5Q152.6 89.9 152.8 90.2Q153.0 90.5 153.4 90.6Q153.7 90.7 154.2 90.7L154.2 90.7Q154.6 90.7 154.9 90.6Q155.2 90.5 155.4 90.2Q155.6 90.0 155.6 89.7L155.6 89.7Q155.6 89.4 155.4 89.3Q155.3 89.1 155.0 88.9Q154.7 88.8 154.2 88.7L154.2 88.7L153.3 88.5Q152.3 88.2 151.8 87.7Q151.2 87.2 151.2 86.3L151.2 86.3Q151.2 85.6 151.6 85.0Q152.0 84.5 152.6 84.2Q153.3 83.9 154.2 83.9L154.2 83.9Q155.1 83.9 155.7 84.2Q156.4 84.5 156.8 85.0Q157.1 85.6 157.1 86.3L157.1 86.3L155.6 86.3Q155.5 85.8 155.2 85.5Q154.8 85.3 154.2 85.3L154.2 85.3Q153.8 85.3 153.5 85.4Q153.2 85.5 153.0 85.7Q152.9 85.9 152.9 86.2L152.9 86.2Q152.9 86.5 153.0 86.7Q153.2 86.9 153.5 87.0Q153.8 87.1 154.1 87.2L154.1 87.2L154.9 87.4Q155.4 87.5 155.8 87.7Q156.2 87.9 156.6 88.2Q156.9 88.4 157.1 88.8Q157.3 89.2 157.3 89.7L157.3 89.7Q157.3 90.4 156.9 91.0Q156.5 91.5 155.8 91.8Q155.1 92.1 154.2 92.1Z "/></g><defs><clipPath id="satori_bc-id-2" clip-path="url(#satori_cp-id)"><rect x="274" y="30" width="273" height="80"/></clipPath></defs><mask id="satori_om-id-2"><rect x="274" y="30" width="272" height="80" fill="#fff" mask="url(#satori_om-id)"/><path width="273" height="80" fill="none" stroke="#000" stroke-width="2" d="M547,30 A0,0 0 0 1 547,30 v80 A0,0 0 0 1 547,110"/></mask><path width="273" height="80" clip-path="url(#satori_bc-id-2)" fill="none" stroke="rgba(255,255,255,0.05)" stroke-width="2" d="M547,30 A0,0 0 0 1 547,30 v80 A0,0 0 0 1 547,110"/><mask id="satori_om-id-2-0"><rect x="404" y="46" width="13" height="30" fill="#fff" mask="url(#satori_om-id)"/></mask><g mask="url(#satori_om-id)" clip-path="url(#satori_cp-id)"><path fill="rgba(120,190,255,0.92)" d="M410.2 50.2L415.0 50.2L415.0 72L410.5 72L410.5 54.1L410.4 54.1L405.4 57.7L405.4 53.6L410.2 50.2Z "/></g><mask id="satori_om-id-2-1"><rect x="388" y="81" width="45" height="13" fill="#fff" mask="url(#satori_om-id)"/></mask><g mask="url(#satori_om-id)" clip-path="url(#satori_cp-id)"><path fill="rgba(210,215,255,0.42)" d="M391.7 92.1L391.7 92.1Q390.7 92.1 390.0 91.8Q389.3 91.5 388.9 90.9Q388.5 90.4 388.5 89.5L388.5 89.5L390.1 89.5Q390.1 89.9 390.3 90.2Q390.5 90.5 390.9 90.6Q391.2 90.7 391.6 90.7L391.6 90.7Q392.1 90.7 392.4 90.6Q392.7 90.5 392.9 90.2Q393.1 90.0 393.1 89.7L393.1 89.7Q393.1 89.4 392.9 89.3Q392.8 89.1 392.5 88.9Q392.2 88.8 391.7 88.7L391.7 88.7L390.8 88.5Q389.8 88.2 389.2 87.7Q388.7 87.2 388.7 86.3L388.7 86.3Q388.7 85.6 389.1 85.0Q389.5 84.5 390.1 84.2Q390.8 83.9 391.7 83.9L391.7 83.9Q392.6 83.9 393.2 84.2Q393.9 84.5 394.3 85.0Q394.6 85.6 394.6 86.3L394.6 86.3L393.1 86.3Q393.0 85.8 392.6 85.5Q392.3 85.3 391.7 85.3L391.7 85.3Q391.2 85.3 391.0 85.4Q390.7 85.5 390.5 85.7Q390.4 85.9 390.4 86.2L390.4 86.2Q390.4 86.5 390.5 86.7Q390.7 86.9 391.0 87.0Q391.3 87.1 391.6 87.2L391.6 87.2L392.4 87.4Q392.9 87.5 393.3 87.7Q393.7 87.9 394.1 88.2Q394.4 88.4 394.6 88.8Q394.7 89.2 394.7 89.7L394.7 89.7Q394.7 90.4 394.4 91.0Q394.0 91.5 393.3 91.8Q392.6 92.1 391.7 92.1ZM399.6 85.4L397.1 85.4L397.1 84.0L403.6 84.0L403.6 85.4L401.2 85.4L401.2 92L399.6 92L399.6 85.4ZM407.6 92L405.8 92L408.5 84.0L410.7 84.0L413.5 92L411.7 92L411.1 90.1L408.2 90.1L407.6 92ZM408.6 88.9L410.6 88.9L410.4 88.1Q410.2 87.4 409.9 86.5L409.9 86.5Q409.8 85.9 409.6 85.3L409.6 85.3Q409.4 85.9 409.3 86.5L409.3 86.5Q409.1 87.4 408.9 88.1L408.9 88.1L408.6 88.9ZM417.6 92L416.0 92L416.0 84.0L419.1 84.0Q420.0 84.0 420.7 84.3Q421.3 84.6 421.6 85.2Q422.0 85.8 422.0 86.6Q422.0 87.4 421.6 88.0Q421.3 88.5 420.6 88.8L420.6 88.8Q420.6 88.9 420.5 88.9L420.5 88.9L422.3 92L420.4 92L418.9 89.1L417.6 89.1L417.6 92ZM417.6 85.4L417.6 87.8L418.8 87.8Q419.3 87.8 419.6 87.7Q420.0 87.5 420.1 87.3Q420.3 87.0 420.3 86.6L420.3 86.6Q420.3 86.2 420.1 85.9Q420.0 85.6 419.6 85.5Q419.3 85.4 418.8 85.4L418.8 85.4L417.6 85.4ZM427.6 92.1L427.6 92.1Q426.7 92.1 426.0 91.8Q425.3 91.5 424.9 90.9Q424.5 90.4 424.4 89.5L424.4 89.5L426.0 89.5Q426.1 89.9 426.3 90.2Q426.5 90.5 426.8 90.6Q427.2 90.7 427.6 90.7L427.6 90.7Q428.1 90.7 428.4 90.6Q428.7 90.5 428.9 90.2Q429.1 90.0 429.1 89.7L429.1 89.7Q429.1 89.4 428.9 89.3Q428.8 89.1 428.4 88.9Q428.1 88.8 427.7 88.7L427.7 88.7L426.8 88.5Q425.8 88.2 425.2 87.7Q424.7 87.2 424.7 86.3L424.7 86.3Q424.7 85.6 425.0 85.0Q425.4 84.5 426.1 84.2Q426.8 83.9 427.7 83.9L427.7 83.9Q428.5 83.9 429.2 84.2Q429.9 84.5 430.2 85.0Q430.6 85.6 430.6 86.3L430.6 86.3L429.0 86.3Q429.0 85.8 428.6 85.5Q428.3 85.3 427.6 85.3L427.6 85.3Q427.2 85.3 426.9 85.4Q426.6 85.5 426.5 85.7Q426.3 85.9 426.3 86.2L426.3 86.2Q426.3 86.5 426.5 86.7Q426.7 86.9 427.0 87.0Q427.3 87.1 427.6 87.2L427.6 87.2L428.3 87.4Q428.8 87.5 429.3 87.7Q429.7 87.9 430.0 88.2Q430.4 88.4 430.5 88.8Q430.7 89.2 430.7 89.7L430.7 89.7Q430.7 90.4 430.4 91.0Q430.0 91.5 429.3 91.8Q428.6 92.1 427.6 92.1Z "/></g><mask id="satori_om-id-3"><rect x="547" y="30" width="312" height="80" fill="#fff" mask="url(#satori_om-id)"/></mask><mask id="satori_om-id-3-0"><rect x="661" y="46" width="85" height="30" fill="#fff" mask="url(#satori_om-id)"/></mask><g mask="url(#satori_om-id)" clip-path="url(#satori_cp-id)"><path fill="rgba(255,210,140,0.92)" d="M667.2 50.2L672.0 50.2L672.0 72L667.5 72L667.5 54.1L667.4 54.1L662.4 57.7L662.4 53.6L667.2 50.2ZM685.9 68.1L675.4 68.1L675.4 64.6L684.5 50.2L690.2 50.2L690.2 64.5L692.9 64.5L692.9 68.1L690.2 68.1L690.2 72L685.9 72L685.9 68.1ZM679.9 64.5L685.9 64.5L685.9 55.1L685.8 55.1L679.9 64.3L679.9 64.5ZM704.2 72.3L704.2 72.3Q702.6 72.3 701.0 71.7Q699.5 71.2 698.3 69.9Q697.0 68.7 696.3 66.7Q695.6 64.6 695.6 61.6L695.6 61.6Q695.6 58.8 696.2 56.7Q696.8 54.5 698.0 53.0Q699.1 51.5 700.8 50.7Q702.4 49.9 704.4 49.9L704.4 49.9Q706.6 49.9 708.2 50.7Q709.9 51.6 710.9 53.0Q711.9 54.4 712.1 56.2L712.1 56.2L707.7 56.2Q707.4 55.1 706.6 54.4Q705.7 53.7 704.4 53.7L704.4 53.7Q703.0 53.7 702.0 54.6Q701.0 55.4 700.5 57.0Q700.0 58.6 700.0 60.7L700.0 60.7L700.1 60.7Q700.6 59.8 701.5 59.1Q702.3 58.4 703.4 58.0Q704.4 57.7 705.6 57.7L705.6 57.7Q707.6 57.7 709.1 58.6Q710.6 59.5 711.5 61.1Q712.3 62.7 712.3 64.7L712.3 64.7Q712.3 66.9 711.3 68.6Q710.3 70.3 708.5 71.3Q706.7 72.3 704.2 72.3ZM704.2 68.7L704.2 68.7Q705.3 68.7 706.1 68.2Q707.0 67.7 707.5 66.8Q708.0 65.9 708.0 64.8L708.0 64.8Q708.0 63.7 707.5 62.8Q707.0 62.0 706.2 61.4Q705.3 60.9 704.2 60.9L704.2 60.9Q703.4 60.9 702.7 61.2Q702.1 61.5 701.5 62.1Q701.0 62.6 700.7 63.3Q700.4 64.0 700.4 64.8L700.4 64.8Q700.4 65.9 700.9 66.8Q701.4 67.7 702.3 68.2Q703.1 68.7 704.2 68.7ZM719.9 50.2L724.7 50.2L724.7 72L720.2 72L720.2 54.1L720.1 54.1L715.1 57.7L715.1 53.6L719.9 50.2ZM735.8 72.3L735.8 72.3Q733.6 72.3 731.8 71.5Q730.1 70.6 729.1 69.2Q728.1 67.7 728.0 65.9L728.0 65.9L732.4 65.9Q732.4 66.7 732.9 67.4Q733.4 68.0 734.1 68.4Q734.9 68.7 735.8 68.7L735.8 68.7Q736.9 68.7 737.8 68.3Q738.6 67.8 739.1 66.9Q739.6 66.0 739.6 64.9L739.6 64.9Q739.6 63.7 739.1 62.8Q738.6 61.9 737.8 61.4Q736.9 60.9 735.8 60.9L735.8 60.9Q734.8 60.9 733.9 61.3Q733.0 61.7 732.5 62.3L732.5 62.3L728.5 61.6L729.5 50.2L742.7 50.2L742.7 53.9L733.2 53.9L732.7 59.4L732.8 59.4Q733.4 58.6 734.5 58.1Q735.7 57.6 737.1 57.6L737.1 57.6Q738.5 57.6 739.8 58.1Q741.1 58.6 742.0 59.6Q742.9 60.5 743.4 61.9Q743.9 63.2 743.9 64.7L743.9 64.7Q743.9 66.9 742.9 68.6Q741.9 70.3 740.1 71.3Q738.2 72.3 735.8 72.3Z "/></g><mask id="satori_om-id-3-1"><rect x="670" y="81" width="66" height="13" fill="#fff" mask="url(#satori_om-id)"/></mask><g mask="url(#satori_om-id)" clip-path="url(#satori_cp-id)"><path fill="rgba(210,215,255,0.42)" d="M674.2 92.1L674.2 92.1Q673.2 92.1 672.3 91.6Q671.5 91.1 671.0 90.2Q670.5 89.3 670.5 88.0L670.5 88.0Q670.5 86.7 671.0 85.8Q671.5 84.9 672.3 84.4Q673.2 83.9 674.2 83.9L674.2 83.9Q674.9 83.9 675.5 84.1Q676.1 84.3 676.5 84.6Q677.0 85.0 677.3 85.5Q677.6 86.1 677.7 86.7L677.7 86.7L676.0 86.7Q676.0 86.4 675.8 86.1Q675.6 85.9 675.4 85.7Q675.2 85.5 674.9 85.4Q674.6 85.3 674.3 85.3L674.3 85.3Q673.6 85.3 673.2 85.7Q672.7 86.0 672.4 86.6Q672.2 87.2 672.2 88.0L672.2 88.0Q672.2 88.9 672.4 89.5Q672.7 90.1 673.2 90.4Q673.6 90.7 674.2 90.7L674.2 90.7Q674.6 90.7 674.9 90.6Q675.2 90.5 675.4 90.3Q675.6 90.1 675.8 89.8Q676.0 89.6 676.0 89.3L676.0 89.3L677.7 89.3Q677.6 89.8 677.3 90.3Q677.1 90.8 676.6 91.2Q676.2 91.6 675.6 91.9Q675.0 92.1 674.2 92.1ZM683.9 92.1L683.9 92.1Q682.8 92.1 682.0 91.6Q681.1 91.1 680.6 90.2Q680.1 89.3 680.1 88.0L680.1 88.0Q680.1 86.7 680.6 85.8Q681.1 84.9 682.0 84.4Q682.8 83.9 683.9 83.9L683.9 83.9Q684.9 83.9 685.8 84.4Q686.6 84.9 687.1 85.8Q687.6 86.7 687.6 88.0L687.6 88.0Q687.6 89.3 687.1 90.2Q686.6 91.1 685.8 91.6Q684.9 92.1 683.9 92.1ZM683.9 90.7L683.9 90.7Q684.5 90.7 685.0 90.3Q685.4 90.0 685.7 89.5Q685.9 88.9 685.9 88.0L685.9 88.0Q685.9 87.1 685.7 86.5Q685.4 86.0 685.0 85.6Q684.5 85.3 683.9 85.3L683.9 85.3Q683.3 85.3 682.8 85.7Q682.3 86.0 682.1 86.6Q681.8 87.1 681.8 88.0L681.8 88.0Q681.8 88.9 682.1 89.4Q682.3 90.0 682.8 90.3Q683.3 90.7 683.9 90.7ZM692.0 92L690.3 92L690.3 84.0L692.9 84.0L694.2 87.7Q694.2 87.9 694.3 88.3Q694.4 88.7 694.5 89.2L694.5 89.2Q694.7 89.7 694.7 90.1L694.7 90.1Q694.8 89.7 694.9 89.2L694.9 89.2Q695.0 88.8 695.2 88.3Q695.3 87.9 695.3 87.7L695.3 87.7L696.6 84.0L699.1 84.0L699.1 92L697.5 92L697.5 88.2Q697.5 88.0 697.5 87.6Q697.5 87.2 697.5 86.7Q697.5 86.3 697.5 85.8L697.5 85.8Q697.6 85.6 697.6 85.4L697.6 85.4Q697.5 85.6 697.4 85.9L697.4 85.9Q697.3 86.3 697.2 86.8Q697.1 87.2 696.9 87.6Q696.8 88.0 696.8 88.2L696.8 88.2L695.4 92L694.0 92L692.7 88.2Q692.6 88.0 692.5 87.6Q692.4 87.2 692.3 86.8Q692.1 86.4 692.0 85.9L692.0 85.9Q692.0 85.7 691.9 85.5L691.9 85.5Q691.9 85.6 691.9 85.8L691.9 85.8Q691.9 86.2 691.9 86.7Q691.9 87.2 692.0 87.6Q692.0 88.0 692.0 88.2L692.0 88.2L692.0 92ZM703.7 92L702.1 92L702.1 84.0L704.6 84.0L705.9 87.7Q706.0 87.9 706.1 88.3Q706.2 88.7 706.3 89.2L706.3 89.2Q706.4 89.7 706.5 90.1L706.5 90.1Q706.6 89.7 706.7 89.2L706.7 89.2Q706.8 88.8 706.9 88.3Q707.0 87.9 707.1 87.7L707.1 87.7L708.4 84.0L710.9 84.0L710.9 92L709.2 92L709.2 88.2Q709.2 88.0 709.2 87.6Q709.3 87.2 709.3 86.7Q709.3 86.3 709.3 85.8L709.3 85.8Q709.3 85.6 709.3 85.4L709.3 85.4Q709.2 85.6 709.2 85.9L709.2 85.9Q709.1 86.3 708.9 86.8Q708.8 87.2 708.7 87.6Q708.6 88.0 708.5 88.2L708.5 88.2L707.2 92L705.8 92L704.4 88.2Q704.4 88.0 704.3 87.6Q704.1 87.2 704.0 86.8Q703.9 86.4 703.8 85.9L703.8 85.9Q703.7 85.7 703.7 85.5L703.7 85.5Q703.7 85.6 703.7 85.8L703.7 85.8Q703.7 86.2 703.7 86.7Q703.7 87.2 703.7 87.6Q703.7 88.0 703.7 88.2L703.7 88.2L703.7 92ZM713.8 84.0L715.5 84.0L715.5 92L713.8 92L713.8 84.0ZM720.5 85.4L718.1 85.4L718.1 84.0L724.6 84.0L724.6 85.4L722.2 85.4L722.2 92L720.5 92L720.5 85.4ZM730.2 92.1L730.2 92.1Q729.2 92.1 728.5 91.8Q727.8 91.5 727.4 90.9Q727.0 90.4 727.0 89.5L727.0 89.5L728.6 89.5Q728.6 89.9 728.8 90.2Q729.0 90.5 729.4 90.6Q729.7 90.7 730.2 90.7L730.2 90.7Q730.6 90.7 730.9 90.6Q731.3 90.5 731.5 90.2Q731.6 90.0 731.6 89.7L731.6 89.7Q731.6 89.4 731.5 89.3Q731.3 89.1 731.0 88.9Q730.7 88.8 730.3 88.7L730.3 88.7L729.4 88.5Q728.4 88.2 727.8 87.7Q727.2 87.2 727.2 86.3L727.2 86.3Q727.2 85.6 727.6 85.0Q728.0 84.5 728.7 84.2Q729.3 83.9 730.2 83.9L730.2 83.9Q731.1 83.9 731.8 84.2Q732.4 84.5 732.8 85.0Q733.2 85.6 733.2 86.3L733.2 86.3L731.6 86.3Q731.6 85.8 731.2 85.5Q730.8 85.3 730.2 85.3L730.2 85.3Q729.8 85.3 729.5 85.4Q729.2 85.5 729.0 85.7Q728.9 85.9 728.9 86.2L728.9 86.2Q728.9 86.5 729.1 86.7Q729.2 86.9 729.5 87.0Q729.8 87.1 730.2 87.2L730.2 87.2L730.9 87.4Q731.4 87.5 731.8 87.7Q732.3 87.9 732.6 88.2Q732.9 88.4 733.1 88.8Q733.3 89.2 733.3 89.7L733.3 89.7Q733.3 90.4 732.9 91.0Q732.6 91.5 731.9 91.8Q731.2 92.1 730.2 92.1Z "/></g></svg>