<!-- Generated by readme-aura https://github.com/collectioneur/readme-aura -->
<svg width="138" height="44" viewBox="0 0 138 44" xmlns="http://www.w3.org/2000/svg"><defs><clipPath id="satori_bc-id"><path x="0" y="0" width="138" height="44" d="M22,0 h94 a22,22 0 0 1 22,22 v0 a22,22 0 0 1 -22,22 h-94 a22,22 0 0 1 -22,-22 v0 a22,22 0 0 1 22,-22"/></clipPath></defs><mask id="satori_om-id"><rect x="1" y="1" width="136" height="42" fill="#fff"/><path width="138" height="44" fill="none" stroke="#000" stroke-width="2" d="M6.444000000000001,6.444000000000001 A22,22 0 0 1 22,0 h94 a22,22 0 0 1 22,22 v0 a22,22 0 0 1 -22,22 h-94 a22,22 0 0 1 -22,-22 v0 A22,22 0 0 1 6.444000000000001,6.444000000000001"/></mask><path x="0" y="0" width="138" height="44" fill="#0d0d0d" d="M22,0 h94 a22,22 0 0 1 22,22 v0 a22,22 0 0 1 -22,22 h-94 a22,22 0 0 1 -22,-22 v0 a22,22 0 0 1 22,-22"/><path width="138" height="44" clip-path="url(#satori_bc-id)" fill="none" stroke="rgba(130,100,255,0.45)" stroke-width="2" d="M6.444000000000001,6.444000000000001 A22,22 0 0 1 22,0 h94 a22,22 0 0 1 22,22 v0 a22,22 0 0 1 -22,22 h-94 a22,22 0 0 1 -22,-22 v0 A22,22 0 0 1 6.444000000000001,6.444000000000001"/><clipPath id="satori_cp-id-0"><rect x="32" y="16" width="13" height="13"/></clipPath><mask id="satori_om-id-0"><rect x="32" y="16" width="13" height="13" fill="#fff"/></mask><svg x="32" y="16" width="13" height="13" preserveAspectRatio="none" clip-path="url(#satori_cp-id-0)" mask="url(#satori_om-id-0)"><path d="M12 2C6.48 2 2 6.48 2 12s4.48 10 10 10 10-4.48 10-10S17.52 2 12 2zm-1 17.93c-3.95-.49-7-3.85-7-7.93 0-.62.08-1.21.21-1.79L9 15v1c0 1.1.9 2 2 2v1.93zm6.9-2.54c-.26-.81-1-1.39-1.9-1.39h-1v-3c0-.55-.45-1-1-1H8v-2h2c.55 0 1-.45 1-1V7h2c1.1 0 2-.9 2-2v-.41c2.93 1.19 5 4.06 5 7.41 0 2.08-.8 3.97-2.1 5.39z"></path></svg><mask id="satori_om-id-0-0"><rect x="32" y="16" width="0" height="13" fill="#fff"/></mask><mask id="satori_om-id-1"><rect x="52" y="14" width="55" height="16" fill="#fff"/></mask><g  ><path fill="rgba(160,140,255,0.90)" d="M54.8 27L52.9 27L52.9 17.5L56.5 17.5Q57.6 17.5 58.4 18.0Q59.1 18.4 59.5 19.1Q59.9 19.8 59.9 20.7L59.9 20.7Q59.9 21.7 59.5 22.4Q59.1 23.1 58.4 23.5Q57.6 23.9 56.5 23.9L56.5 23.9L54.8 23.9L54.8 27ZM54.8 19.1L54.8 22.3L56.2 22.3Q56.8 22.3 57.2 22.1Q57.6 21.9 57.7 21.6Q57.9 21.2 57.9 20.7Q57.9 20.3 57.7 19.9Q57.6 19.5 57.2 19.3Q56.8 19.1 56.2 19.1L56.2 19.1L54.8 19.1ZM64.4 27.1L64.4 27.1Q63.3 27.1 62.6 26.7Q61.8 26.2 61.4 25.4Q60.9 24.6 60.9 23.5L60.9 23.5Q60.9 22.4 61.4 21.6Q61.8 20.7 62.6 20.3Q63.3 19.8 64.4 19.8L64.4 19.8Q65.5 19.8 66.3 20.3Q67.0 20.7 67.5 21.6Q67.9 22.4 67.9 23.5L67.9 23.5Q67.9 24.6 67.5 25.4Q67.0 26.2 66.3 26.7Q65.5 27.1 64.4 27.1ZM64.4 25.6L64.4 25.6Q64.9 25.6 65.3 25.4Q65.6 25.1 65.8 24.6Q65.9 24.1 65.9 23.5L65.9 23.5Q65.9 22.8 65.8 22.4Q65.6 21.9 65.3 21.6Q64.9 21.3 64.4 21.3L64.4 21.3Q63.9 21.3 63.6 21.6Q63.2 21.9 63.1 22.4Q62.9 22.8 62.9 23.5L62.9 23.5Q62.9 24.1 63.1 24.6Q63.2 25.1 63.6 25.4Q63.9 25.6 64.4 25.6ZM71.1 27L69.2 27L69.2 19.9L71.0 19.9L71.0 21.1L71.1 21.1Q71.3 20.5 71.8 20.1Q72.2 19.8 72.8 19.8L72.8 19.8Q73.0 19.8 73.2 19.8Q73.3 19.8 73.5 19.9L73.5 19.9L73.5 21.6Q73.3 21.5 73.1 21.5Q72.8 21.5 72.6 21.5L72.6 21.5Q72.2 21.5 71.8 21.7Q71.5 21.9 71.3 22.2Q71.1 22.5 71.1 23.0L71.1 23.0L71.1 27ZM76.7 19.9L78.0 19.9L78.0 21.4L76.7 21.4L76.7 24.9Q76.7 25.3 76.8 25.4Q77.0 25.6 77.3 25.6L77.3 25.6Q77.5 25.6 77.7 25.6Q77.8 25.5 77.9 25.5L77.9 25.5L78.2 26.9Q77.9 27.0 77.6 27.1Q77.3 27.1 77.0 27.1L77.0 27.1Q75.9 27.1 75.4 26.6Q74.8 26.1 74.8 25.1L74.8 25.1L74.8 21.4L73.8 21.4L73.8 19.9L74.8 19.9L74.8 18.2L76.7 18.2L76.7 19.9ZM81.7 19.9L83.2 19.9L83.2 21.4L81.7 21.4L81.7 27L79.8 27L79.8 21.4L78.6 21.4L78.6 19.9L79.8 19.9L79.8 19.4Q79.8 18.6 80.1 18.1Q80.4 17.6 81.0 17.3Q81.5 17.1 82.1 17.1L82.1 17.1Q82.6 17.1 83.0 17.2Q83.3 17.2 83.5 17.3L83.5 17.3L83.2 18.7Q83.0 18.7 82.9 18.7Q82.7 18.6 82.5 18.6L82.5 18.6Q82.1 18.6 81.9 18.8Q81.7 19.0 81.7 19.4L81.7 19.4L81.7 19.9ZM87.6 27.1L87.6 27.1Q86.5 27.1 85.8 26.7Q85.0 26.2 84.6 25.4Q84.1 24.6 84.1 23.5L84.1 23.5Q84.1 22.4 84.6 21.6Q85.0 20.7 85.8 20.3Q86.5 19.8 87.6 19.8L87.6 19.8Q88.7 19.8 89.5 20.3Q90.2 20.7 90.7 21.6Q91.1 22.4 91.1 23.5L91.1 23.5Q91.1 24.6 90.7 25.4Q90.2 26.2 89.5 26.7Q88.7 27.1 87.6 27.1ZM87.6 25.6L87.6 25.6Q88.1 25.6 88.5 25.4Q88.8 25.1 89.0 24.6Q89.1 24.1 89.1 23.5L89.1 23.5Q89.1 22.8 89.0 22.4Q88.8 21.9 88.5 21.6Q88.1 21.3 87.6 21.3L87.6 21.3Q87.1 21.3 86.8 21.6Q86.4 21.9 86.3 22.4Q86.1 22.8 86.1 23.5L86.1 23.5Q86.1 24.1 86.3 24.6Q86.4 25.1 86.8 25.4Q87.1 25.6 87.6 25.6ZM92.4 17.5L94.3 17.5L94.3 27L92.4 27L92.4 17.5ZM97.8 27L95.9 27L95.9 19.9L97.8 19.9L97.8 27ZM96.9 19.0L96.9 19.0Q96.5 19.0 96.1 18.7Q95.8 18.4 95.8 18.0L95.8 18.0Q95.8 17.6 96.1 17.3Q96.5 17.0 96.9 17.0L96.9 17.0Q97.3 17.0 97.6 17.3Q97.9 17.6 97.9 18.0L97.9 18.0Q97.9 18.4 97.6 18.7Q97.3 19.0 96.9 19.0ZM102.6 27.1L102.6 27.1Q101.6 27.1 100.8 26.7Q100.0 26.2 99.6 25.4Q99.2 24.6 99.2 23.5L99.2 23.5Q99.2 22.4 99.6 21.6Q100.0 20.7 100.8 20.3Q101.6 19.8 102.6 19.8L102.6 19.8Q103.7 19.8 104.5 20.3Q105.3 20.7 105.7 21.6Q106.1 22.4 106.1 23.5L106.1 23.5Q106.1 24.6 105.7 25.4Q105.3 26.2 104.5 26.7Q103.7 27.1 102.6 27.1ZM102.6 25.6L102.6 25.6Q103.1 25.6 103.5 25.4Q103.8 25.1 104.0 24.6Q104.2 24.1 104.2 23.5L104.2 23.5Q104.2 22.8 104.0 22.4Q103.8 21.9 103.5 21.6Q103.1 21.3 102.6 21.3L102.6 21.3Q102.1 21.3 101.8 21.6Q101.4 21.9 101.3 22.4Q101.1 22.8 101.1 23.5L101.1 23.5Q101.1 24.1 101.3 24.6Q101.4 25.1 101.8 25.4Q102.1 25.6 102.6 25.6Z "/></g></svg>