<!-- Generated by readme-aura https://github.com/collectioneur/readme-aura -->
<svg width="860" height="110" viewBox="0 0 860 110" xmlns="http://www.w3.org/2000/svg"><defs><clipPath id="satori_bc-id"><path x="0" y="0" width="860" height="110" d="M16,0 h828 a16,16 0 0 1 16,16 v78 a16,16 0 0 1 -16,16 h-828 a16,16 0 0 1 -16,-16 v-78 a16,16 0 0 1 16,-16"/></clipPath></defs><clipPath id="satori_cp-id"><path x="0" y="0" width="860" height="110" d="M16,0 h828 a16,16 0 0 1 16,16 v78 a16,16 0 0 1 -16,16 h-828 a16,16 0 0 1 -16,-16 v-78 a16,16 0 0 1 16,-16"/></clipPath><mask id="satori_om-id"><rect x="1" y="1" width="858" height="108" fill="#fff"/><path width="860" height="110" fill="none" stroke="#000" stroke-width="2" d="M4.686,4.686 A16,16 0 0 1 16,0 h828 a16,16 0 0 1 16,16 v78 a16,16 0 0 1 -16,16 h-828 a16,16 0 0 1 -16,-16 v-78 A16,16 0 0 1 4.686,4.686"/></mask><path x="0" y="0" width="860" height="110" fill="#08080c" d="M16,0 h828 a16,16 0 0 1 16,16 v78 a16,16 0 0 1 -16,16 h-828 a16,16 0 0 1 -16,-16 v-78 a16,16 0 0 1 16,-16"/><path width="860" height="110" clip-path="url(#satori_bc-id)" fill="none" stroke="rgba(80,60,200,0.18)" stroke-width="2" d="M4.686,4.686 A16,16 0 0 1 16,0 h828 a16,16 0 0 1 16,16 v78 a16,16 0 0 1 -16,16 h-828 a16,16 0 0 1 -16,-16 v-78 A16,16 0 0 1 4.686,4.686"/><clipPath id="satori_cp-id-0" clip-path="url(#satori_cp-id)"><rect x="1" y="1" width="860" height="110"/></clipPath><mask id="satori_om-id-0"><rect x="1" y="1" width="860" height="110" fill="#fff" mask="url(#satori_om-id)"/></mask><svg x="1" y="1" width="860" height="110" preserveAspectRatio="none" clip-path="url(#satori_cp-id-0)" mask="url(#satori_om-id-0)"><defs><radialGradient id="sg1g" cx="50%" cy="50%" r="50%"><stop offset="0%" stop-color="rgba(40,80,255,0.48)"></stop><stop offset="70%" stop-color="rgba(40,80,255,0)"></stop></radialGradient><radialGradient id="sg2g" cx="50%" cy="50%" r="50%"><stop offset="0%" stop-color="rgba(130,30,255,0.42)"></stop><stop offset="70%" stop-color="rgba(130,30,255,0)"></stop></radialGradient></defs><ellipse id="sg1" cx="200" cy="110" rx="280" ry="150" fill="url(#sg1g)"></ellipse><ellipse id="sg2" cx="660" cy="110" rx="240" ry="140" fill="url(#sg2g)"></ellipse><style>

    @keyframes sg1-drift { 0%,100%{transform:translateX(0);opacity:0.55} 50%{transform:translateX(200px);opacity:0.85} }
    @keyframes sg2-drift { 0%,100%{transform:translateX(0);opacity:0.45} 50%{transform:translateX(-160px);opacity:0.80} }
    #sg1 { animation: sg1-drift 14s ease-in-out infinite; }
    #sg2 { animation: sg2-drift 11s ease-in-out infinite reverse; }
  
</style>
</svg><mask id="satori_om-id-0-0"><rect x="1" y="1" width="0" height="110" fill="#fff" mask="url(#satori_om-id)"/></mask><mask id="satori_om-id-0-0-0"><rect x="1" y="1" width="0" height="110" fill="#fff" mask="url(#satori_om-id)"/></mask><mask id="satori_om-id-0-0-0-0"><rect x="1" y="1" width="0" height="110" fill="#fff" mask="url(#satori_om-id)"/></mask><mask id="satori_om-id-0-0-0-1"><rect x="1" y="1" width="0" height="110" fill="#fff" mask="url(#satori_om-id)"/></mask><mask id="satori_om-id-0-0-1"><rect x="1" y="1" width="0" height="110" fill="#fff" mask="url(#satori_om-id)"/></mask><mask id="satori_om-id-0-0-1-0"><rect x="1" y="1" width="0" height="110" fill="#fff" mask="url(#satori_om-id)"/></mask><mask id="satori_om-id-0-0-1-1"><rect x="1" y="1" width="0" height="110" fill="#fff" mask="url(#satori_om-id)"/></mask><mask id="satori_om-id-0-1"><rect x="1" y="1" width="0" height="110" fill="#fff" mask="url(#satori_om-id)"/></mask><mask id="satori_om-id-0-2"><rect x="1" y="1" width="0" height="110" fill="#fff" mask="url(#satori_om-id)"/></mask><defs><clipPath id="satori_bc-id-1" clip-path="url(#satori_cp-id)"><rect x="1" y="25" width="286" height="61"/></clipPath></defs><mask id="satori_om-id-1"><rect x="1" y="25" width="285" height="61" fill="#fff" mask="url(#satori_om-id)"/><path width="286" height="61" fill="none" stroke="#000" stroke-width="2" d="M287,25 A0,0 0 0 1 287,25 v61 A0,0 0 0 1 287,86"/></mask><path width="286" height="61" clip-path="url(#satori_bc-id-1)" fill="none" stroke="rgba(80,60,180,0.20)" stroke-width="2" d="M287,25 A0,0 0 0 1 287,25 v61 A0,0 0 0 1 287,86"/><mask id="satori_om-id-1-0"><rect x="115" y="25" width="58" height="44" fill="#fff" mask="url(#satori_om-id)"/></mask><g mask="url(#satori_om-id)" clip-path="url(#satori_cp-id)"><path fill="rgba(100,170,255,1)" d="M132.5 57.3L117.2 57.3L117.2 52.1L130.6 31.0L138.8 31.0L138.8 52.0L142.8 52.0L142.8 57.3L138.8 57.3L138.8 63L132.5 63L132.5 57.3ZM123.8 52.0L132.6 52.0L132.6 38.2L132.4 38.2L123.8 51.8L123.8 52.0ZM161.2 57.3L145.9 57.3L145.9 52.1L159.3 31.0L167.5 31.0L167.5 52.0L171.5 52.0L171.5 57.3L167.5 57.3L167.5 63L161.2 63L161.2 57.3ZM152.5 52.0L161.4 52.0L161.4 38.2L161.1 38.2L152.5 51.8L152.5 52.0Z "/></g><mask id="satori_om-id-1-1"><rect x="121" y="74" width="46" height="12" fill="#fff" mask="url(#satori_om-id)"/></mask><g mask="url(#satori_om-id)" clip-path="url(#satori_cp-id)"><path fill="rgba(120,110,170,0.55)" d="M123.1 84L121.7 84L121.7 76.7L124.5 76.7Q125.3 76.7 125.9 77.0Q126.5 77.3 126.8 77.8Q127.1 78.4 127.1 79.1Q127.1 79.8 126.8 80.3Q126.5 80.9 125.9 81.1L125.9 81.1Q125.8 81.1 125.8 81.2L125.8 81.2L127.4 84L125.7 84L124.3 81.4L123.1 81.4L123.1 84ZM123.1 78.0L123.1 80.2L124.2 80.2Q124.7 80.2 125.0 80.1Q125.3 79.9 125.4 79.7Q125.6 79.5 125.6 79.1L125.6 79.1Q125.6 78.7 125.4 78.5Q125.3 78.2 125.0 78.1Q124.7 78.0 124.2 78.0L124.2 78.0L123.1 78.0ZM135.6 84L130.7 84L130.7 76.7L135.6 76.7L135.6 78.0L132.2 78.0L132.2 79.7L135.3 79.7L135.3 80.9L132.2 80.9L132.2 82.8L135.6 82.8L135.6 84ZM140.8 84L139.3 84L139.3 76.7L142.1 76.7Q143.0 76.7 143.5 77.0Q144.1 77.4 144.4 77.9Q144.7 78.5 144.7 79.2L144.7 79.2Q144.7 79.9 144.4 80.5Q144.1 81.0 143.5 81.3Q142.9 81.6 142.1 81.6L142.1 81.6L140.8 81.6L140.8 84ZM140.8 78.0L140.8 80.4L141.9 80.4Q142.3 80.4 142.6 80.3Q142.9 80.1 143.1 79.8Q143.2 79.5 143.2 79.2Q143.2 78.8 143.1 78.5Q142.9 78.3 142.6 78.1Q142.3 78.0 141.9 78.0L141.9 78.0L140.8 78.0ZM151.5 84.1L151.5 84.1Q150.5 84.1 149.7 83.7Q149.0 83.2 148.5 82.4Q148.1 81.5 148.1 80.4L148.1 80.4Q148.1 79.2 148.5 78.3Q149.0 77.5 149.7 77.1Q150.5 76.6 151.5 76.6L151.5 76.6Q152.4 76.6 153.2 77.1Q154.0 77.5 154.4 78.3Q154.9 79.2 154.9 80.4L154.9 80.4Q154.9 81.5 154.4 82.4Q154.0 83.2 153.2 83.7Q152.4 84.1 151.5 84.1ZM151.5 82.8L151.5 82.8Q152.0 82.8 152.5 82.5Q152.9 82.2 153.1 81.7Q153.4 81.1 153.4 80.4L153.4 80.4Q153.4 79.6 153.1 79.0Q152.9 78.5 152.5 78.2Q152.0 78.0 151.5 78.0L151.5 78.0Q150.9 78.0 150.5 78.2Q150.1 78.5 149.8 79.0Q149.6 79.6 149.6 80.4L149.6 80.4Q149.6 81.1 149.8 81.7Q150.1 82.2 150.5 82.5Q150.9 82.8 151.5 82.8ZM161.2 84.1L161.2 84.1Q160.3 84.1 159.6 83.8Q159.0 83.6 158.6 83.0Q158.3 82.5 158.2 81.7L158.2 81.7L159.7 81.7Q159.7 82.1 159.9 82.4Q160.1 82.6 160.4 82.7Q160.7 82.8 161.1 82.8L161.1 82.8Q161.5 82.8 161.8 82.7Q162.1 82.6 162.3 82.4Q162.5 82.2 162.5 81.9L162.5 81.9Q162.5 81.7 162.3 81.5Q162.2 81.3 161.9 81.2Q161.6 81.1 161.2 81.0L161.2 81.0L160.4 80.8Q159.5 80.6 159.0 80.1Q158.4 79.6 158.4 78.8L158.4 78.8Q158.4 78.2 158.8 77.7Q159.1 77.2 159.8 76.9Q160.4 76.6 161.2 76.6L161.2 76.6Q162.0 76.6 162.6 76.9Q163.2 77.2 163.5 77.7Q163.9 78.2 163.9 78.8L163.9 78.8L162.4 78.8Q162.4 78.4 162.0 78.1Q161.7 77.9 161.2 77.9L161.2 77.9Q160.8 77.9 160.5 78.0Q160.2 78.1 160.1 78.3Q160.0 78.5 160.0 78.7L160.0 78.7Q160.0 79.0 160.1 79.2Q160.3 79.3 160.6 79.5Q160.8 79.6 161.1 79.6L161.1 79.6L161.8 79.8Q162.2 79.9 162.6 80.1Q163.0 80.3 163.3 80.5Q163.6 80.8 163.8 81.1Q164.0 81.5 164.0 81.9L164.0 81.9Q164.0 82.6 163.6 83.1Q163.3 83.6 162.7 83.8Q162.0 84.1 161.2 84.1Z "/></g><defs><clipPath id="satori_bc-id-2" clip-path="url(#satori_cp-id)"><rect x="287" y="25" width="287" height="61"/></clipPath></defs><mask id="satori_om-id-2"><rect x="287" y="25" width="286" height="61" fill="#fff" mask="url(#satori_om-id)"/><path width="287" height="61" fill="none" stroke="#000" stroke-width="2" d="M574,25 A0,0 0 0 1 574,25 v61 A0,0 0 0 1 574,86"/></mask><path width="287" height="61" clip-path="url(#satori_bc-id-2)" fill="none" stroke="rgba(80,60,180,0.20)" stroke-width="2" d="M574,25 A0,0 0 0 1 574,25 v61 A0,0 0 0 1 574,86"/><mask id="satori_om-id-2-0"><rect x="421" y="25" width="18" height="44" fill="#fff" mask="url(#satori_om-id)"/></mask><g mask="url(#satori_om-id)" clip-path="url(#satori_cp-id)"><path fill="rgba(255,200,80,1)" d="M430.1 31.0L437.1 31.0L437.1 63L430.5 63L430.5 36.8L430.3 36.8L423.0 42.0L423.0 36.0L430.1 31.0Z "/></g><mask id="satori_om-id-2-1"><rect x="406" y="74" width="47" height="12" fill="#fff" mask="url(#satori_om-id)"/></mask><g mask="url(#satori_om-id)" clip-path="url(#satori_cp-id)"><path fill="rgba(120,110,170,0.55)" d="M409.3 84.1L409.3 84.1Q408.5 84.1 407.8 83.8Q407.2 83.6 406.8 83.0Q406.4 82.5 406.4 81.7L406.4 81.7L407.9 81.7Q407.9 82.1 408.1 82.4Q408.3 82.6 408.6 82.7Q408.9 82.8 409.3 82.8L409.3 82.8Q409.7 82.8 410.0 82.7Q410.3 82.6 410.5 82.4Q410.6 82.2 410.6 81.9L410.6 81.9Q410.6 81.7 410.5 81.5Q410.3 81.3 410.1 81.2Q409.8 81.1 409.4 81.0L409.4 81.0L408.6 80.8Q407.7 80.6 407.1 80.1Q406.6 79.6 406.6 78.8L406.6 78.8Q406.6 78.2 407.0 77.7Q407.3 77.2 407.9 76.9Q408.6 76.6 409.3 76.6L409.3 76.6Q410.2 76.6 410.8 76.9Q411.4 77.2 411.7 77.7Q412.0 78.2 412.0 78.8L412.0 78.8L410.6 78.8Q410.6 78.4 410.2 78.1Q409.9 77.9 409.3 77.9L409.3 77.9Q409.0 77.9 408.7 78.0Q408.4 78.1 408.3 78.3Q408.1 78.5 408.1 78.7L408.1 78.7Q408.1 79.0 408.3 79.2Q408.5 79.3 408.7 79.5Q409.0 79.6 409.3 79.6L409.3 79.6L410.0 79.8Q410.4 79.9 410.8 80.1Q411.2 80.3 411.5 80.5Q411.8 80.8 412.0 81.1Q412.1 81.5 412.1 81.9L412.1 81.9Q412.1 82.6 411.8 83.1Q411.5 83.6 410.8 83.8Q410.2 84.1 409.3 84.1ZM417.6 78.0L415.4 78.0L415.4 76.7L421.4 76.7L421.4 78.0L419.1 78.0L419.1 84L417.6 84L417.6 78.0ZM426.1 84L424.5 84L426.9 76.7L428.9 76.7L431.4 84L429.8 84L429.2 82.3L426.6 82.3L426.1 84ZM427.0 81.1L428.8 81.1L428.6 80.5Q428.4 79.8 428.2 79L428.2 79Q428.1 78.5 427.9 77.9L427.9 77.9Q427.8 78.5 427.6 79.0L427.6 79.0Q427.4 79.8 427.2 80.5L427.2 80.5L427.0 81.1ZM436.3 84L434.8 84L434.8 76.7L437.7 76.7Q438.5 76.7 439.1 77.0Q439.7 77.3 440.0 77.8Q440.3 78.4 440.3 79.1Q440.3 79.8 440.0 80.3Q439.7 80.9 439.1 81.1L439.1 81.1Q439.0 81.1 439.0 81.2L439.0 81.2L440.5 84L438.9 84L437.5 81.4L436.3 81.4L436.3 84ZM436.3 78.0L436.3 80.2L437.4 80.2Q437.9 80.2 438.2 80.1Q438.5 79.9 438.6 79.7Q438.7 79.5 438.7 79.1L438.7 79.1Q438.7 78.7 438.6 78.5Q438.5 78.2 438.2 78.1Q437.9 78.0 437.4 78.0L437.4 78.0L436.3 78.0ZM446.6 84.1L446.6 84.1Q445.7 84.1 445.1 83.8Q444.4 83.6 444.1 83.0Q443.7 82.5 443.7 81.7L443.7 81.7L445.1 81.7Q445.2 82.1 445.3 82.4Q445.5 82.6 445.8 82.7Q446.2 82.8 446.6 82.8L446.6 82.8Q447.0 82.8 447.3 82.7Q447.6 82.6 447.7 82.4Q447.9 82.2 447.9 81.9L447.9 81.9Q447.9 81.7 447.7 81.5Q447.6 81.3 447.3 81.2Q447.0 81.1 446.6 81.0L446.6 81.0L445.8 80.8Q444.9 80.6 444.4 80.1Q443.9 79.6 443.9 78.8L443.9 78.8Q443.9 78.2 444.2 77.7Q444.6 77.2 445.2 76.9Q445.8 76.6 446.6 76.6L446.6 76.6Q447.4 76.6 448.0 76.9Q448.6 77.2 448.9 77.7Q449.3 78.2 449.3 78.8L449.3 78.8L447.9 78.8Q447.8 78.4 447.5 78.1Q447.1 77.9 446.6 77.9L446.6 77.9Q446.2 77.9 445.9 78.0Q445.7 78.1 445.5 78.3Q445.4 78.5 445.4 78.7L445.4 78.7Q445.4 79.0 445.6 79.2Q445.7 79.3 446.0 79.5Q446.3 79.6 446.6 79.6L446.6 79.6L447.2 79.8Q447.7 79.9 448.1 80.1Q448.5 80.3 448.8 80.5Q449.1 80.8 449.2 81.1Q449.4 81.5 449.4 81.9L449.4 81.9Q449.4 82.6 449.1 83.1Q448.7 83.6 448.1 83.8Q447.5 84.1 446.6 84.1Z "/></g><mask id="satori_om-id-3"><rect x="574" y="25" width="285" height="61" fill="#fff" mask="url(#satori_om-id)"/></mask><mask id="satori_om-id-3-0"><rect x="657" y="25" width="120" height="44" fill="#fff" mask="url(#satori_om-id)"/></mask><g mask="url(#satori_om-id)" clip-path="url(#satori_cp-id)"><path fill="rgba(180,130,255,1)" d="M666.1 31.0L673.1 31.0L673.1 63L666.5 63L666.5 36.8L666.3 36.8L659.0 42.0L659.0 36.0L666.1 31.0ZM692.5 57.3L677.1 57.3L677.1 52.1L690.5 31.0L698.8 31.0L698.8 52.0L702.8 52.0L702.8 57.3L698.8 57.3L698.8 63L692.5 63L692.5 57.3ZM683.8 52.0L692.6 52.0L692.6 38.2L692.3 38.2L683.8 51.8L683.8 52.0ZM718.4 63.4L718.4 63.4Q716.0 63.4 713.7 62.6Q711.4 61.8 709.6 60.0Q707.9 58.2 706.8 55.2Q705.7 52.2 705.7 47.7L705.7 47.7Q705.7 43.7 706.6 40.5Q707.6 37.3 709.2 35.1Q710.9 32.9 713.3 31.7Q715.7 30.6 718.7 30.6L718.7 30.6Q721.8 30.6 724.2 31.8Q726.7 33.0 728.2 35.1Q729.7 37.2 730.0 39.9L730.0 39.9L723.5 39.9Q723.1 38.2 721.8 37.2Q720.5 36.2 718.7 36.2L718.7 36.2Q716.6 36.2 715.1 37.5Q713.7 38.7 712.9 41.0Q712.2 43.3 712.2 46.4L712.2 46.4L712.4 46.4Q713.1 45.0 714.4 44.0Q715.6 43.0 717.1 42.5Q718.7 42.0 720.4 42.0L720.4 42.0Q723.3 42.0 725.5 43.3Q727.7 44.6 729.0 47.0Q730.3 49.3 730.3 52.3L730.3 52.3Q730.3 55.5 728.8 58.1Q727.3 60.6 724.6 62.0Q722.0 63.4 718.4 63.4ZM718.4 58.2L718.4 58.2Q720.0 58.2 721.2 57.5Q722.5 56.7 723.2 55.4Q723.9 54.1 723.9 52.5L723.9 52.5Q723.9 50.9 723.2 49.6Q722.5 48.3 721.3 47.5Q720.0 46.8 718.4 46.8L718.4 46.8Q717.2 46.8 716.2 47.2Q715.2 47.7 714.5 48.5Q713.7 49.3 713.3 50.3Q712.9 51.3 712.9 52.5L712.9 52.5Q712.9 54.1 713.6 55.4Q714.3 56.7 715.5 57.4Q716.8 58.2 718.4 58.2ZM745.5 63.4L745.5 63.4Q742.0 63.4 739.3 62.2Q736.6 61.0 735.0 58.9Q733.5 56.8 733.4 54.0L733.4 54.0L740.0 54.0Q740.1 55.2 740.8 56.1Q741.5 57.0 742.8 57.5Q744.0 58.0 745.5 58.0L745.5 58.0Q747.1 58.0 748.3 57.4Q749.5 56.9 750.2 55.9Q750.9 54.9 750.9 53.6L750.9 53.6Q750.9 52.3 750.1 51.3Q749.4 50.3 748.1 49.7Q746.7 49.1 744.9 49.1L744.9 49.1L741.9 49.1L741.9 44.2L744.9 44.2Q746.4 44.2 747.6 43.7Q748.8 43.1 749.5 42.2Q750.2 41.2 750.2 39.9L750.2 39.9Q750.2 38.7 749.6 37.8Q749.0 36.9 748.0 36.3Q746.9 35.8 745.5 35.8L745.5 35.8Q744.1 35.8 743.0 36.3Q741.8 36.8 741.1 37.7Q740.4 38.6 740.4 39.9L740.4 39.9L734.1 39.9Q734.1 37.1 735.6 35.0Q737.1 32.9 739.7 31.7Q742.3 30.6 745.6 30.6L745.6 30.6Q748.9 30.6 751.3 31.8Q753.8 33.0 755.2 35.0Q756.5 37.0 756.5 39.5L756.5 39.5Q756.5 42.2 754.9 44.0Q753.2 45.8 750.5 46.3L750.5 46.3L750.5 46.6Q752.8 46.9 754.5 47.9Q756.1 48.9 756.9 50.5Q757.7 52.0 757.7 54.0L757.7 54.0Q757.7 56.7 756.1 58.9Q754.5 61.0 751.8 62.2Q749.0 63.4 745.5 63.4ZM767.8 31.0L774.8 31.0L774.8 63L768.2 63L768.2 36.8L768.0 36.8L760.7 42.0L760.7 36.0L767.8 31.0Z "/></g><mask id="satori_om-id-3-1"><rect x="683" y="74" width="68" height="12" fill="#fff" mask="url(#satori_om-id)"/></mask><g mask="url(#satori_om-id)" clip-path="url(#satori_cp-id)"><path fill="rgba(120,110,170,0.55)" d="M686.8 84.1L686.8 84.1Q685.9 84.1 685.1 83.7Q684.3 83.2 683.9 82.4Q683.5 81.5 683.5 80.4L683.5 80.4Q683.5 79.2 683.9 78.3Q684.3 77.5 685.1 77.1Q685.9 76.6 686.8 76.6L686.8 76.6Q687.5 76.6 688.0 76.8Q688.5 77.0 688.9 77.3Q689.4 77.6 689.6 78.1Q689.9 78.6 690.0 79.2L690.0 79.2L688.5 79.2Q688.4 78.9 688.3 78.7Q688.1 78.4 687.9 78.3Q687.7 78.1 687.4 78.0Q687.2 78.0 686.9 78.0L686.9 78.0Q686.3 78.0 685.9 78.2Q685.4 78.5 685.2 79.1Q685.0 79.6 685.0 80.4L685.0 80.4Q685.0 81.2 685.2 81.7Q685.5 82.2 685.9 82.5Q686.3 82.8 686.9 82.8L686.9 82.8Q687.2 82.8 687.4 82.7Q687.7 82.6 687.9 82.4Q688.1 82.3 688.3 82.0Q688.4 81.8 688.5 81.5L688.5 81.5L690.0 81.5Q689.9 82.0 689.7 82.5Q689.4 82.9 689.0 83.3Q688.6 83.7 688.1 83.9Q687.5 84.1 686.8 84.1ZM696.8 84.1L696.8 84.1Q695.8 84.1 695.0 83.7Q694.3 83.2 693.8 82.4Q693.4 81.5 693.4 80.4L693.4 80.4Q693.4 79.2 693.8 78.3Q694.3 77.5 695.0 77.1Q695.8 76.6 696.8 76.6L696.8 76.6Q697.7 76.6 698.5 77.1Q699.3 77.5 699.7 78.3Q700.1 79.2 700.1 80.4L700.1 80.4Q700.1 81.5 699.7 82.4Q699.3 83.2 698.5 83.7Q697.7 84.1 696.8 84.1ZM696.8 82.8L696.8 82.8Q697.3 82.8 697.7 82.5Q698.2 82.2 698.4 81.7Q698.6 81.1 698.6 80.4L698.6 80.4Q698.6 79.6 698.4 79.0Q698.2 78.5 697.7 78.2Q697.3 78.0 696.8 78.0L696.8 78.0Q696.2 78.0 695.8 78.2Q695.3 78.5 695.1 79.0Q694.9 79.6 694.9 80.4L694.9 80.4Q694.9 81.1 695.1 81.7Q695.3 82.2 695.8 82.5Q696.2 82.8 696.8 82.8ZM705.2 84L703.8 84L703.8 76.7L706.0 76.7L707.2 80.1Q707.3 80.3 707.4 80.7Q707.5 81.0 707.6 81.5L707.6 81.5Q707.7 81.9 707.8 82.3L707.8 82.3Q707.9 81.9 707.9 81.5L707.9 81.5Q708.0 81.1 708.1 80.7Q708.2 80.3 708.3 80.1L708.3 80.1L709.5 76.7L711.8 76.7L711.8 84L710.3 84L710.3 80.6Q710.3 80.3 710.3 80.0Q710.3 79.6 710.3 79.2Q710.3 78.8 710.3 78.4L710.3 78.4Q710.3 78.2 710.3 78.0L710.3 78.0Q710.3 78.2 710.2 78.4L710.2 78.4Q710.1 78.9 710.0 79.3Q709.9 79.7 709.8 80.0Q709.7 80.3 709.6 80.6L709.6 80.6L708.4 84L707.1 84L705.9 80.6Q705.8 80.3 705.7 80.0Q705.6 79.7 705.5 79.3Q705.4 78.9 705.3 78.4L705.3 78.4Q705.2 78.2 705.2 78.1L705.2 78.1Q705.2 78.2 705.2 78.4L705.2 78.4Q705.2 78.8 705.2 79.2Q705.2 79.6 705.2 80.0Q705.2 80.3 705.2 80.6L705.2 80.6L705.2 84ZM717.1 84L715.6 84L715.6 76.7L717.9 76.7L719.0 80.1Q719.1 80.3 719.2 80.7Q719.3 81.0 719.4 81.5L719.4 81.5Q719.5 81.9 719.6 82.3L719.6 82.3Q719.7 81.9 719.8 81.5L719.8 81.5Q719.9 81.1 720.0 80.7Q720.1 80.3 720.1 80.1L720.1 80.1L721.3 76.7L723.6 76.7L723.6 84L722.1 84L722.1 80.6Q722.1 80.3 722.1 80.0Q722.1 79.6 722.1 79.2Q722.1 78.8 722.1 78.4L722.1 78.4Q722.1 78.2 722.1 78.0L722.1 78.0Q722.1 78.2 722.0 78.4L722.0 78.4Q721.9 78.9 721.8 79.3Q721.7 79.7 721.6 80.0Q721.5 80.3 721.4 80.6L721.4 80.6L720.2 84L719.0 84L717.7 80.6Q717.7 80.3 717.6 80.0Q717.4 79.7 717.3 79.3Q717.2 78.9 717.1 78.4L717.1 78.4Q717.1 78.2 717.0 78.1L717.0 78.1Q717.0 78.2 717.0 78.4L717.0 78.4Q717.0 78.8 717.0 79.2Q717.0 79.6 717.1 80.0Q717.1 80.3 717.1 80.6L717.1 80.6L717.1 84ZM727.4 76.7L728.9 76.7L728.9 84L727.4 84L727.4 76.7ZM734.6 78.0L732.4 78.0L732.4 76.7L738.4 76.7L738.4 78.0L736.1 78.0L736.1 84L734.6 84L734.6 78.0ZM744.5 84.1L744.5 84.1Q743.7 84.1 743.0 83.8Q742.4 83.6 742.0 83.0Q741.7 82.5 741.6 81.7L741.6 81.7L743.1 81.7Q743.1 82.1 743.3 82.4Q743.5 82.6 743.8 82.7Q744.1 82.8 744.5 82.8L744.5 82.8Q744.9 82.8 745.2 82.7Q745.5 82.6 745.7 82.4Q745.9 82.2 745.9 81.9L745.9 81.9Q745.9 81.7 745.7 81.5Q745.6 81.3 745.3 81.2Q745.0 81.1 744.6 81.0L744.6 81.0L743.8 80.8Q742.9 80.6 742.4 80.1Q741.8 79.6 741.8 78.8L741.8 78.8Q741.8 78.2 742.2 77.7Q742.5 77.2 743.2 76.9Q743.8 76.6 744.6 76.6L744.6 76.6Q745.4 76.6 746.0 76.9Q746.6 77.2 746.9 77.7Q747.2 78.2 747.3 78.8L747.3 78.8L745.8 78.8Q745.8 78.4 745.4 78.1Q745.1 77.9 744.5 77.9L744.5 77.9Q744.2 77.9 743.9 78.0Q743.6 78.1 743.5 78.3Q743.4 78.5 743.4 78.7L743.4 78.7Q743.4 79.0 743.5 79.2Q743.7 79.3 743.9 79.5Q744.2 79.6 744.5 79.6L744.5 79.6L745.2 79.8Q745.6 79.9 746.0 80.1Q746.4 80.3 746.7 80.5Q747.0 80.8 747.2 81.1Q747.4 81.5 747.4 81.9L747.4 81.9Q747.4 82.6 747.0 83.1Q746.7 83.6 746.1 83.8Q745.4 84.1 744.5 84.1Z "/></g></svg>