<!-- Generated by readme-aura https://github.com/collectioneur/readme-aura -->
<svg width="130" height="44" viewBox="0 0 130 44" xmlns="http://www.w3.org/2000/svg"><defs><clipPath id="satori_bc-id"><path x="0" y="0" width="130" height="44" d="M22,0 h86 a22,22 0 0 1 22,22 v0 a22,22 0 0 1 -22,22 h-86 a22,22 0 0 1 -22,-22 v0 a22,22 0 0 1 22,-22"/></clipPath></defs><mask id="satori_om-id"><rect x="1" y="1" width="128" height="42" fill="#fff"/><path width="130" height="44" fill="none" stroke="#000" stroke-width="2" d="M6.444000000000001,6.444000000000001 A22,22 0 0 1 22,0 h86 a22,22 0 0 1 22,22 v0 a22,22 0 0 1 -22,22 h-86 a22,22 0 0 1 -22,-22 v0 A22,22 0 0 1 6.444000000000001,6.444000000000001"/></mask><path x="0" y="0" width="130" height="44" fill="#0f0f0f" d="M22,0 h86 a22,22 0 0 1 22,22 v0 a22,22 0 0 1 -22,22 h-86 a22,22 0 0 1 -22,-22 v0 a22,22 0 0 1 22,-22"/><path width="130" height="44" clip-path="url(#satori_bc-id)" fill="none" stroke="rgba(212,255,0,0.5)" stroke-width="2" d="M6.444000000000001,6.444000000000001 A22,22 0 0 1 22,0 h86 a22,22 0 0 1 22,22 v0 a22,22 0 0 1 -22,22 h-86 a22,22 0 0 1 -22,-22 v0 A22,22 0 0 1 6.444000000000001,6.444000000000001"/><mask id="satori_om-id-0"><rect x="38" y="14" width="55" height="16" fill="#fff"/></mask><g  ><path fill="#D4FF00" d="M40.8 27L38.9 27L38.9 17.5L42.5 17.5Q43.6 17.5 44.4 18.0Q45.1 18.4 45.5 19.1Q45.9 19.8 45.9 20.7L45.9 20.7Q45.9 21.7 45.5 22.4Q45.1 23.1 44.4 23.5Q43.6 23.9 42.5 23.9L42.5 23.9L40.8 23.9L40.8 27ZM40.8 19.1L40.8 22.3L42.2 22.3Q42.8 22.3 43.2 22.1Q43.6 21.9 43.7 21.6Q43.9 21.2 43.9 20.7Q43.9 20.3 43.7 19.9Q43.6 19.5 43.2 19.3Q42.8 19.1 42.2 19.1L42.2 19.1L40.8 19.1ZM50.4 27.1L50.4 27.1Q49.3 27.1 48.6 26.7Q47.8 26.2 47.4 25.4Q46.9 24.6 46.9 23.5L46.9 23.5Q46.9 22.4 47.4 21.6Q47.8 20.7 48.6 20.3Q49.3 19.8 50.4 19.8L50.4 19.8Q51.5 19.8 52.3 20.3Q53.0 20.7 53.5 21.6Q53.9 22.4 53.9 23.5L53.9 23.5Q53.9 24.6 53.5 25.4Q53.0 26.2 52.3 26.7Q51.5 27.1 50.4 27.1ZM50.4 25.6L50.4 25.6Q50.9 25.6 51.3 25.4Q51.6 25.1 51.8 24.6Q51.9 24.1 51.9 23.5L51.9 23.5Q51.9 22.8 51.8 22.4Q51.6 21.9 51.3 21.6Q50.9 21.3 50.4 21.3L50.4 21.3Q49.9 21.3 49.6 21.6Q49.2 21.9 49.1 22.4Q48.9 22.8 48.9 23.5L48.9 23.5Q48.9 24.1 49.1 24.6Q49.2 25.1 49.6 25.4Q49.9 25.6 50.4 25.6ZM57.1 27L55.2 27L55.2 19.9L57.0 19.9L57.0 21.1L57.1 21.1Q57.3 20.5 57.8 20.1Q58.2 19.8 58.8 19.8L58.8 19.8Q59.0 19.8 59.2 19.8Q59.3 19.8 59.5 19.9L59.5 19.9L59.5 21.6Q59.3 21.5 59.1 21.5Q58.8 21.5 58.6 21.5L58.6 21.5Q58.2 21.5 57.8 21.7Q57.5 21.9 57.3 22.2Q57.1 22.5 57.1 23.0L57.1 23.0L57.1 27ZM62.7 19.9L64.0 19.9L64.0 21.4L62.7 21.4L62.7 24.9Q62.7 25.3 62.8 25.4Q63.0 25.6 63.3 25.6L63.3 25.6Q63.5 25.6 63.7 25.6Q63.8 25.5 63.9 25.5L63.9 25.5L64.2 26.9Q63.9 27.0 63.6 27.1Q63.3 27.1 63.0 27.1L63.0 27.1Q61.9 27.1 61.4 26.6Q60.8 26.1 60.8 25.1L60.8 25.1L60.8 21.4L59.8 21.4L59.8 19.9L60.8 19.9L60.8 18.2L62.7 18.2L62.7 19.9ZM67.7 19.9L69.2 19.9L69.2 21.4L67.7 21.4L67.7 27L65.8 27L65.8 21.4L64.6 21.4L64.6 19.9L65.8 19.9L65.8 19.4Q65.8 18.6 66.1 18.1Q66.4 17.6 67.0 17.3Q67.5 17.1 68.1 17.1L68.1 17.1Q68.6 17.1 69.0 17.2Q69.3 17.2 69.5 17.3L69.5 17.3L69.2 18.7Q69.0 18.7 68.9 18.7Q68.7 18.6 68.5 18.6L68.5 18.6Q68.1 18.6 67.9 18.8Q67.7 19.0 67.7 19.4L67.7 19.4L67.7 19.9ZM73.6 27.1L73.6 27.1Q72.5 27.1 71.8 26.7Q71.0 26.2 70.6 25.4Q70.1 24.6 70.1 23.5L70.1 23.5Q70.1 22.4 70.6 21.6Q71.0 20.7 71.8 20.3Q72.5 19.8 73.6 19.8L73.6 19.8Q74.7 19.8 75.5 20.3Q76.2 20.7 76.7 21.6Q77.1 22.4 77.1 23.5L77.1 23.5Q77.1 24.6 76.7 25.4Q76.2 26.2 75.5 26.7Q74.7 27.1 73.6 27.1ZM73.6 25.6L73.6 25.6Q74.1 25.6 74.5 25.4Q74.8 25.1 75.0 24.6Q75.1 24.1 75.1 23.5L75.1 23.5Q75.1 22.8 75.0 22.4Q74.8 21.9 74.5 21.6Q74.1 21.3 73.6 21.3L73.6 21.3Q73.1 21.3 72.8 21.6Q72.4 21.9 72.3 22.4Q72.1 22.8 72.1 23.5L72.1 23.5Q72.1 24.1 72.3 24.6Q72.4 25.1 72.8 25.4Q73.1 25.6 73.6 25.6ZM78.4 17.5L80.3 17.5L80.3 27L78.4 27L78.4 17.5ZM83.8 27L81.9 27L81.9 19.9L83.8 19.9L83.8 27ZM82.9 19.0L82.9 19.0Q82.5 19.0 82.1 18.7Q81.8 18.4 81.8 18.0L81.8 18.0Q81.8 17.6 82.1 17.3Q82.5 17.0 82.9 17.0L82.9 17.0Q83.3 17.0 83.6 17.3Q83.9 17.6 83.9 18.0L83.9 18.0Q83.9 18.4 83.6 18.7Q83.3 19.0 82.9 19.0ZM88.6 27.1L88.6 27.1Q87.6 27.1 86.8 26.7Q86.0 26.2 85.6 25.4Q85.2 24.6 85.2 23.5L85.2 23.5Q85.2 22.4 85.6 21.6Q86.0 20.7 86.8 20.3Q87.6 19.8 88.6 19.8L88.6 19.8Q89.7 19.8 90.5 20.3Q91.3 20.7 91.7 21.6Q92.1 22.4 92.1 23.5L92.1 23.5Q92.1 24.6 91.7 25.4Q91.3 26.2 90.5 26.7Q89.7 27.1 88.6 27.1ZM88.6 25.6L88.6 25.6Q89.1 25.6 89.5 25.4Q89.8 25.1 90.0 24.6Q90.2 24.1 90.2 23.5L90.2 23.5Q90.2 22.8 90.0 22.4Q89.8 21.9 89.5 21.6Q89.1 21.3 88.6 21.3L88.6 21.3Q88.1 21.3 87.8 21.6Q87.4 21.9 87.3 22.4Q87.1 22.8 87.1 23.5L87.1 23.5Q87.1 24.1 87.3 24.6Q87.4 25.1 87.8 25.4Q88.1 25.6 88.6 25.6Z "/></g></svg>